<?xml version="1.0" encoding="UTF-8"?>
<!DOCTYPE svg PUBLIC "-//W3C//DTD SVG 1.1//EN" "http://www.w3.org/Graphics/SVG/1.1/DTD/svg11.dtd">
<svg xmlns="http://www.w3.org/2000/svg" version="1.1" width="1911px" height="863px" style="shape-rendering:geometricPrecision; text-rendering:geometricPrecision; image-rendering:optimizeQuality; fill-rule:evenodd; clip-rule:evenodd" xmlns:xlink="http://www.w3.org/1999/xlink">
<g><path style="opacity:1" fill="#fefefe" d="M -0.5,-0.5 C 636.5,-0.5 1273.5,-0.5 1910.5,-0.5C 1910.5,25.8333 1910.5,52.1667 1910.5,78.5C 1273.5,78.5 636.5,78.5 -0.5,78.5C -0.5,52.1667 -0.5,25.8333 -0.5,-0.5 Z"/></g>
<g><path style="opacity:1" fill="#f0f4f8" d="M 1752.5,8.5 C 1776.99,8.15114 1788.82,20.1511 1788,44.5C 1782.56,61.9319 1770.73,69.7652 1752.5,68C 1735.09,62.5774 1727.26,50.7441 1729,32.5C 1732.35,19.9853 1740.18,11.9853 1752.5,8.5 Z"/></g>
<g><path style="opacity:1" fill="#eff3f8" d="M 719.5,14.5 C 849.5,14.3333 979.5,14.5 1109.5,15C 1111.67,15.8333 1113.17,17.3333 1114,19.5C 1114.67,32.1667 1114.67,44.8333 1114,57.5C 1113.17,59.6667 1111.67,61.1667 1109.5,62C 979.5,62.6667 849.5,62.6667 719.5,62C 717.333,61.1667 715.833,59.6667 715,57.5C 714.333,44.8333 714.333,32.1667 715,19.5C 716.025,17.313 717.525,15.6464 719.5,14.5 Z"/></g>
<g><path style="opacity:1" fill="#232323" d="M 1810.5,15.5 C 1812.34,15.6395 1812.67,16.3061 1811.5,17.5C 1810.7,17.0431 1810.37,16.3764 1810.5,15.5 Z"/></g>
<g><path style="opacity:1" fill="#232323" d="M 1882.5,15.5 C 1884.34,15.6395 1884.67,16.3061 1883.5,17.5C 1882.7,17.0431 1882.37,16.3764 1882.5,15.5 Z"/></g>
<g><path style="opacity:1" fill="#545454" d="M 1810.5,19.5 C 1811.79,20.8714 1812.45,22.7047 1812.5,25C 1812.17,26.8333 1811.83,28.6667 1811.5,30.5C 1810.51,26.8927 1810.18,23.226 1810.5,19.5 Z"/></g>
<g><path style="opacity:1" fill="#414141" d="M 1816.5,20.5 C 1825.19,18.8573 1828.19,22.1906 1825.5,30.5C 1824.68,27.8929 1824.18,25.2263 1824,22.5C 1822.33,21.1667 1820.67,21.1667 1819,22.5C 1818.82,25.2263 1818.32,27.8929 1817.5,30.5C 1816.51,27.2317 1816.18,23.8984 1816.5,20.5 Z"/></g>
<g><path style="opacity:1" fill="#151515" d="M 1832.5,21.5 C 1834.56,20.1888 1836.73,20.1888 1839,21.5C 1839.67,24.5 1839.67,27.5 1839,30.5C 1838.73,27.7759 1838.23,25.1092 1837.5,22.5C 1835.95,21.5481 1834.29,21.2148 1832.5,21.5 Z"/></g>
<g><path style="opacity:1" fill="#545454" d="M 1862.5,19.5 C 1864.18,19.8923 1865.85,20.3923 1867.5,21C 1866.58,21.3742 1865.75,21.8742 1865,22.5C 1864.82,25.2263 1864.32,27.8929 1863.5,30.5C 1862.51,26.8927 1862.18,23.226 1862.5,19.5 Z"/></g>
<g><path style="opacity:1" fill="#3c3c3c" d="M 1832.5,21.5 C 1831.92,24.4726 1831.25,27.4726 1830.5,30.5C 1829.17,25.5 1829.17,20.5 1830.5,15.5C 1831.17,17.6309 1831.84,19.6309 1832.5,21.5 Z"/></g>
<g><path style="opacity:1" fill="#2d2d2d" d="M 1871.5,20.5 C 1873.86,20.3367 1876.19,20.5034 1878.5,21C 1879.38,22.3561 1879.71,23.8561 1879.5,25.5C 1869.06,26.1404 1869.06,27.3071 1879.5,29C 1874.37,31.853 1871.04,30.5197 1869.5,25C 1869.52,23.167 1870.19,21.667 1871.5,20.5 Z"/></g>
<g><path style="opacity:1" fill="#eaeaea" d="M 1872.5,21.5 C 1874.98,21.0508 1876.98,21.7175 1878.5,23.5C 1876.17,24.8333 1873.83,24.8333 1871.5,23.5C 1871.86,22.8165 1872.2,22.1499 1872.5,21.5 Z"/></g>
<g><path style="opacity:1" fill="#242424" d="M 1857.5,16.5 C 1858.65,20.9811 1858.82,25.6478 1858,30.5C 1855.63,30.2734 1853.13,30.1067 1850.5,30C 1848.35,27.4449 1848.02,24.6116 1849.5,21.5C 1851.43,20.4798 1853.43,20.3131 1855.5,21C 1850.56,21.246 1848.89,23.5794 1850.5,28C 1852.57,28.6869 1854.57,28.5202 1856.5,27.5C 1856.4,23.9238 1856.74,20.2572 1857.5,16.5 Z"/></g>
<g><path style="opacity:1" fill="#a0adc0" d="M 1079.5,29.5 C 1088.81,28.31 1092.14,32.1433 1089.5,41C 1091.35,42.6837 1093.02,44.5171 1094.5,46.5C 1093.64,47.5827 1092.64,47.7494 1091.5,47C 1090.31,45.647 1088.98,44.4803 1087.5,43.5C 1082.94,45.3223 1079.1,44.3223 1076,40.5C 1074.66,35.9597 1075.83,32.293 1079.5,29.5 Z"/></g>
<g><path style="opacity:1" fill="#7c7c7c" d="M 43.5,47.5 C 43.6661,41.8236 43.4994,36.1569 43,30.5C 42.8238,34.6877 42.3238,38.6877 41.5,42.5C 41.5,38.1667 41.5,33.8333 41.5,29.5C 42.5,29.5 43.5,29.5 44.5,29.5C 44.8229,35.69 44.4896,41.69 43.5,47.5 Z"/></g>
<g><path style="opacity:1" fill="#1f1f1f" d="M 65.5,31.5 C 67.0481,31.8212 67.7148,32.8212 67.5,34.5C 72.8333,35.1667 72.8333,35.8333 67.5,36.5C 67.5,39.5 67.5,42.5 67.5,45.5C 68.9778,45.238 70.3112,45.5713 71.5,46.5C 69.3886,47.8485 67.5553,47.5152 66,45.5C 65.9632,41.9111 65.1299,38.5778 63.5,35.5C 64.8532,34.4763 65.5198,33.143 65.5,31.5 Z"/></g>
<g><path style="opacity:1" fill="#020617" d="M 1747.5,31.5 C 1747.5,35.8333 1747.5,40.1667 1747.5,44.5C 1750.06,44.1984 1752.39,44.5318 1754.5,45.5C 1751.83,45.5 1749.17,45.5 1746.5,45.5C 1746.18,40.6367 1746.51,35.97 1747.5,31.5 Z"/></g>
<g><path style="opacity:1" fill="#edf2f6" d="M 1080.5,31.5 C 1087.98,31.3083 1089.98,34.4749 1086.5,41C 1078.42,41.8047 1076.42,38.638 1080.5,31.5 Z"/></g>
<g><path style="opacity:1" fill="#b2b8c2" d="M 790.5,32.5 C 793.422,34.594 795.922,37.2607 798,40.5C 798.182,37.7737 798.682,35.1071 799.5,32.5C 800.833,36.1667 800.833,39.8333 799.5,43.5C 797.343,41.2082 795.176,38.8749 793,36.5C 792.814,38.9005 792.314,41.2338 791.5,43.5C 790.511,39.8927 790.177,36.226 790.5,32.5 Z"/></g>
<g><path style="opacity:1" fill="#1d1d1d" d="M 77.5,34.5 C 83.1878,33.531 86.1878,35.8643 86.5,41.5C 83.1667,41.5 79.8333,41.5 76.5,41.5C 76.33,42.8221 76.6634,43.9887 77.5,45C 80.3315,45.2121 82.9982,45.3787 85.5,45.5C 81.0534,48.5643 77.2201,47.8977 74,43.5C 72.9804,39.5532 74.1471,36.5532 77.5,34.5 Z"/></g>
<g><path style="opacity:1" fill="#d6d6d6" d="M 77.5,36.5 C 79.5273,36.3379 81.5273,36.5045 83.5,37C 84.3366,38.0113 84.67,39.1779 84.5,40.5C 81.4281,40.8174 78.4281,40.4841 75.5,39.5C 76.1925,38.4822 76.8592,37.4822 77.5,36.5 Z"/></g>
<g><path style="opacity:1" fill="#161616" d="M 41.5,42.5 C 42.3238,38.6877 42.8238,34.6877 43,30.5C 43.4994,36.1569 43.6661,41.8236 43.5,47.5C 39.85,43.5734 36.1833,39.5734 32.5,35.5C 31.8333,39.5 31.1667,43.5 30.5,47.5C 29.1667,41.8333 29.1667,36.1667 30.5,30.5C 34.1886,34.5201 37.8553,38.5201 41.5,42.5 Z"/></g>
<g><path style="opacity:1" fill="#1b1b1b" d="M 90.5,34.5 C 93.2469,34.1866 95.9135,34.52 98.5,35.5C 96.2573,36.4742 93.924,36.8076 91.5,36.5C 91.281,37.675 91.6143,38.675 92.5,39.5C 94.5,40.1667 96.5,40.8333 98.5,41.5C 99.9159,45.6915 98.2492,47.6915 93.5,47.5C 91.5191,47.5629 89.8524,46.8962 88.5,45.5C 91.319,45.2577 94.319,45.2577 97.5,45.5C 97.719,44.325 97.3857,43.325 96.5,42.5C 90.1718,42.8554 88.1718,40.1888 90.5,34.5 Z"/></g>
<g><path style="opacity:1" fill="#262a37" d="M 1758.5,31.5 C 1763.45,30.6276 1767.61,31.9609 1771,35.5C 1771.93,38.85 1771.1,41.6833 1768.5,44C 1765.31,45.3158 1761.98,45.8158 1758.5,45.5C 1758.5,40.8333 1758.5,36.1667 1758.5,31.5 Z"/></g>
<g><path style="opacity:1" fill="#ebeff3" d="M 1760.5,33.5 C 1768.99,32.4707 1771.33,35.6373 1767.5,43C 1765.19,43.4966 1762.86,43.6633 1760.5,43.5C 1760.5,40.1667 1760.5,36.8333 1760.5,33.5 Z"/></g>
<g><path style="opacity:1" fill="#575b67" d="M 1747.5,31.5 C 1748.48,35.2984 1748.82,39.2984 1748.5,43.5C 1750.92,43.1924 1753.26,43.5258 1755.5,44.5C 1755.38,45.1067 1755.04,45.44 1754.5,45.5C 1752.39,44.5318 1750.06,44.1984 1747.5,44.5C 1747.5,40.1667 1747.5,35.8333 1747.5,31.5 Z"/></g>
<g><path style="opacity:1" fill="#1d1d1d" d="M 51.5,34.5 C 60.8075,33.9533 63.4742,37.7866 59.5,46C 51.2463,49.0813 47.7463,46.2479 49,37.5C 50.045,36.6266 50.8783,35.6266 51.5,34.5 Z"/></g>
<g><path style="opacity:1" fill="#f1f1f1" d="M 51.5,36.5 C 58.9974,35.8038 60.9974,38.6372 57.5,45C 50.7813,45.7259 48.7813,42.8925 51.5,36.5 Z"/></g>
<g><path style="opacity:1" fill="#727c8a" d="M 1869.5,47.5 C 1871.21,48.305 1872.88,49.305 1874.5,50.5C 1873.68,51.3857 1872.68,51.719 1871.5,51.5C 1871.5,54.1667 1871.5,56.8333 1871.5,59.5C 1872.55,59.3505 1873.55,59.5172 1874.5,60C 1872.89,60.7203 1871.39,60.5536 1870,59.5C 1869.94,56.2369 1869.1,53.2369 1867.5,50.5C 1868.61,49.7348 1869.28,48.7348 1869.5,47.5 Z"/></g>
<g><path style="opacity:1" fill="#687281" d="M 1823.5,59.5 C 1826.87,53.8549 1825.21,51.1883 1818.5,51.5C 1821.07,49.0361 1823.57,49.3695 1826,52.5C 1827.08,55.6939 1826.25,58.0272 1823.5,59.5 Z"/></g>
<g><path style="opacity:1" fill="#717b89" d="M 1832.5,49.5 C 1834.58,50.2483 1836.58,50.2483 1838.5,49.5C 1839.66,53.4589 1839.83,57.4589 1839,61.5C 1836.29,64.7572 1833.12,65.2572 1829.5,63C 1831.44,63.3052 1833.44,63.3052 1835.5,63C 1837.41,62.1739 1837.74,61.0072 1836.5,59.5C 1830.65,60.8198 1828.15,58.4865 1829,52.5C 1830.15,51.3636 1831.31,50.3636 1832.5,49.5 Z"/></g>
<g><path style="opacity:1" fill="#76808d" d="M 1855.5,49.5 C 1857.24,52.008 1858.07,55.008 1858,58.5C 1859.46,59.7468 1860.96,59.7468 1862.5,58.5C 1863.17,55.5 1863.83,52.5 1864.5,49.5C 1865.83,53.1667 1865.83,56.8333 1864.5,60.5C 1862.33,60.3241 1860,60.1575 1857.5,60C 1857,59.5 1856.5,59 1856,58.5C 1855.5,55.5184 1855.34,52.5184 1855.5,49.5 Z"/></g>
<g><path style="opacity:1" fill="#f4f4f6" d="M 1818.5,51.5 C 1825.21,51.1883 1826.87,53.8549 1823.5,59.5C 1817.81,59.4344 1816.14,56.7677 1818.5,51.5 Z"/></g>
<g><path style="opacity:1" fill="#f6f7f8" d="M 1831.5,51.5 C 1837.16,50.6794 1838.82,52.846 1836.5,58C 1830.24,58.9338 1828.58,56.7672 1831.5,51.5 Z"/></g>
<g><path style="opacity:1" fill="#f3f3f5" d="M 1850.5,51.5 C 1852.86,56.7677 1851.19,59.4344 1845.5,59.5C 1842.07,53.8999 1843.74,51.2333 1850.5,51.5 Z"/></g>
<g><path style="opacity:1" fill="#747e8b" d="M 1805.5,46.5 C 1807.43,50.3727 1808.1,54.706 1807.5,59.5C 1809.86,59.3367 1812.19,59.5034 1814.5,60C 1811.52,60.498 1808.52,60.6646 1805.5,60.5C 1805.5,55.8333 1805.5,51.1667 1805.5,46.5 Z"/></g>
<g><path style="opacity:1" fill="#5a6575" d="M 1850.5,51.5 C 1851.73,52.1522 1852.39,53.3189 1852.5,55C 1852.27,60.0948 1849.93,61.5948 1845.5,59.5C 1851.19,59.4344 1852.86,56.7677 1850.5,51.5 Z"/></g>
<g><path style="opacity:1" fill="#626d7c" d="M 1850.5,51.5 C 1843.74,51.2333 1842.07,53.8999 1845.5,59.5C 1844.5,59.5858 1843.67,59.2524 1843,58.5C 1841.54,54.1805 1842.87,51.1805 1847,49.5C 1848.46,49.8082 1849.63,50.4749 1850.5,51.5 Z"/></g>
<g><path style="opacity:1" fill="#5c6777" d="M 1818.5,51.5 C 1816.14,56.7677 1817.81,59.4344 1823.5,59.5C 1817.65,61.1503 1815.49,58.817 1817,52.5C 1817.38,51.944 1817.88,51.6107 1818.5,51.5 Z"/></g>
<g><path style="opacity:1" fill="#334155" d="M 1803.5,61.5 C 1811.53,61.169 1819.53,61.5023 1827.5,62.5C 1823.5,62.8333 1819.5,63.1667 1815.5,63.5C 1811.11,63.4907 1807.11,62.824 1803.5,61.5 Z"/></g>
<g><path style="opacity:1" fill="#344256" d="M 1840.5,61.5 C 1852.19,61.1678 1863.85,61.5011 1875.5,62.5C 1869.67,62.8333 1863.83,63.1667 1858,63.5C 1851.79,63.4958 1845.96,62.8291 1840.5,61.5 Z"/></g>
<g><path style="opacity:1" fill="#8ebd2e" d="M -0.5,78.5 C 636.5,78.5 1273.5,78.5 1910.5,78.5C 1910.5,79.1667 1910.5,79.8333 1910.5,80.5C 1273.5,80.5 636.5,80.5 -0.5,80.5C -0.5,79.8333 -0.5,79.1667 -0.5,78.5 Z"/></g>
<g><path style="opacity:1" fill="#96c730" d="M -0.5,80.5 C 636.5,80.5 1273.5,80.5 1910.5,80.5C 1910.5,81.1667 1910.5,81.8333 1910.5,82.5C 1273.5,82.5 636.5,82.5 -0.5,82.5C -0.5,81.8333 -0.5,81.1667 -0.5,80.5 Z"/></g>
<g><path style="opacity:1" fill="#99cc32" d="M -0.5,82.5 C 636.5,82.5 1273.5,82.5 1910.5,82.5C 1910.5,342.5 1910.5,602.5 1910.5,862.5C 1273.5,862.5 636.5,862.5 -0.5,862.5C -0.5,602.5 -0.5,342.5 -0.5,82.5 Z"/></g>
<g><path style="opacity:1" fill="#010200" d="M 879.5,216.5 C 908.169,216.333 936.835,216.5 965.5,217C 968.287,219.167 969.12,222.001 968,225.5C 967.097,226.701 965.931,227.535 964.5,228C 937.167,228.333 909.833,228.667 882.5,229C 876.026,231.474 871.526,235.974 869,242.5C 868.333,299.5 868.333,356.5 869,413.5C 871.063,420.565 875.563,425.398 882.5,428C 914.833,428.667 947.167,428.667 979.5,428C 985.113,426.718 989.28,423.551 992,418.5C 993.93,412.031 995.263,405.364 996,398.5C 1003.39,383.542 1015.56,376.376 1032.5,377C 1038.53,374.309 1042.36,369.809 1044,363.5C 1044.33,348.833 1044.67,334.167 1045,319.5C 1048.62,315.513 1052.29,315.513 1056,319.5C 1056.67,335.833 1056.67,352.167 1056,368.5C 1049.78,406.05 1028.28,429.55 991.5,439C 971.698,440.122 951.865,440.622 932,440.5C 914.5,440.333 897,440.167 879.5,440C 866.275,436.061 858.775,427.228 857,413.5C 856.333,355.5 856.333,297.5 857,239.5C 860.684,227.984 868.184,220.317 879.5,216.5 Z"/></g>
<g><path style="opacity:1" fill="#010100" d="M 1021.5,216.5 C 1025.29,215.814 1028.45,216.814 1031,219.5C 1031.5,230.828 1031.67,242.162 1031.5,253.5C 1042.51,253.333 1053.51,253.5 1064.5,254C 1068.5,256.107 1069.5,259.273 1067.5,263.5C 1066.97,264.192 1066.31,264.692 1065.5,265C 1054.17,265.5 1042.84,265.667 1031.5,265.5C 1031.67,276.505 1031.5,287.505 1031,298.5C 1028.17,304.201 1024.5,304.867 1020,300.5C 1019.67,289.167 1019.33,277.833 1019,266.5C 1007.58,265.678 996.076,265.178 984.5,265C 980.5,261.333 980.5,257.667 984.5,254C 996.162,253.5 1007.83,253.333 1019.5,253.5C 1019.33,242.162 1019.5,230.828 1020,219.5C 1020.51,218.473 1021.01,217.473 1021.5,216.5 Z"/></g>
<g><path style="opacity:1" fill="#010100" d="M 909.5,278.5 C 927.836,278.333 946.17,278.5 964.5,279C 968.501,281.107 969.501,284.273 967.5,288.5C 966.975,289.192 966.308,289.692 965.5,290C 946.833,290.667 928.167,290.667 909.5,290C 905.581,286.173 905.581,282.339 909.5,278.5 Z"/></g>
<g><path style="opacity:1" fill="#010100" d="M 909.5,316.5 C 940.835,316.333 972.168,316.5 1003.5,317C 1007.64,320.979 1007.31,324.645 1002.5,328C 971.495,328.833 940.495,328.667 909.5,327.5C 905.618,323.716 905.618,320.049 909.5,316.5 Z"/></g>
<g><path style="opacity:1" fill="#010200" d="M 909.5,353.5 C 931.836,353.333 954.169,353.5 976.5,354C 982.253,356.686 982.92,360.353 978.5,365C 955.5,365.667 932.5,365.667 909.5,365C 905.562,361.153 905.562,357.32 909.5,353.5 Z"/></g>
<g><path style="opacity:1" fill="#93c42f" d="M 1032.5,389.5 C 1033.98,389.238 1035.31,389.571 1036.5,390.5C 1029.83,404.5 1019.5,414.833 1005.5,421.5C 1003.04,400.974 1012.04,390.307 1032.5,389.5 Z"/></g>
<g><path style="opacity:1" fill="#33414e" d="M 805.5,519.5 C 804.772,522.079 804.272,524.746 804,527.5C 803.333,523.167 803.333,518.833 804,514.5C 804.198,516.382 804.698,518.048 805.5,519.5 Z"/></g>
<g><path style="opacity:1" fill="#38424f" d="M 851.5,526.5 C 854.167,524.167 854.167,521.833 851.5,519.5C 853.117,518.411 853.95,516.744 854,514.5C 854.667,518.833 854.667,523.167 854,527.5C 853.329,526.748 852.496,526.414 851.5,526.5 Z"/></g>
<g><path style="opacity:1" fill="#334154" d="M 1103.5,519.5 C 1102.77,522.079 1102.27,524.746 1102,527.5C 1101.33,523.167 1101.33,518.833 1102,514.5C 1102.2,516.382 1102.7,518.048 1103.5,519.5 Z"/></g>
<g><path style="opacity:1" fill="#33414e" d="M 1150.5,519.5 C 1149.77,522.079 1149.27,524.746 1149,527.5C 1148.33,523.167 1148.33,518.833 1149,514.5C 1149.2,516.382 1149.7,518.048 1150.5,519.5 Z"/></g>
<g><path style="opacity:1" fill="#38424f" d="M 1276.5,526.5 C 1279.17,524.167 1279.17,521.833 1276.5,519.5C 1278.12,518.411 1278.95,516.744 1279,514.5C 1279.67,518.833 1279.67,523.167 1279,527.5C 1278.33,526.748 1277.5,526.414 1276.5,526.5 Z"/></g>
<g><path style="opacity:1" fill="#505650" d="M 580.5,514.5 C 582.337,514.639 582.67,515.306 581.5,516.5C 580.702,516.043 580.369,515.376 580.5,514.5 Z"/></g>
<g><path style="opacity:1" fill="#414952" d="M 750.5,515.5 C 753.073,515.148 755.406,515.648 757.5,517C 752.976,515.385 749.976,516.885 748.5,521.5C 749.641,525.987 752.308,527.32 756.5,525.5C 757.696,525.846 757.696,526.346 756.5,527C 749.667,528.167 746.833,525.333 748,518.5C 748.698,517.309 749.531,516.309 750.5,515.5 Z"/></g>
<g><path style="opacity:1" fill="#4e564c" d="M 966.5,514.5 C 968.337,514.639 968.67,515.306 967.5,516.5C 966.702,516.043 966.369,515.376 966.5,514.5 Z"/></g>
<g><path style="opacity:1" fill="#53534d" d="M 1184.5,514.5 C 1186.34,514.639 1186.67,515.306 1185.5,516.5C 1184.7,516.043 1184.37,515.376 1184.5,514.5 Z"/></g>
<g><path style="opacity:1" fill="#505650" d="M 1323.5,514.5 C 1325.34,514.639 1325.67,515.306 1324.5,516.5C 1323.7,516.043 1323.37,515.376 1323.5,514.5 Z"/></g>
<g><path style="opacity:1" fill="#334154" d="M 1388.5,515.5 C 1389.48,518.962 1389.81,522.629 1389.5,526.5C 1391.86,526.337 1394.19,526.503 1396.5,527C 1393.85,527.497 1391.19,527.664 1388.5,527.5C 1388.5,523.5 1388.5,519.5 1388.5,515.5 Z"/></g>
<g><path style="opacity:1" fill="#3a4353" d="M 524.5,516.5 C 525.534,517.687 526.867,518.52 528.5,519C 527.552,519.483 526.552,519.649 525.5,519.5C 525.338,521.527 525.505,523.527 526,525.5C 526.75,526.126 527.584,526.626 528.5,527C 527.216,527.684 526.049,527.517 525,526.5C 524.971,523.633 524.138,521.133 522.5,519C 523.756,518.583 524.423,517.75 524.5,516.5 Z"/></g>
<g><path style="opacity:1" fill="#3a4353" d="M 660.5,514.5 C 661.552,514.351 662.552,514.517 663.5,515C 659.701,516.553 659.701,517.886 663.5,519C 662.552,519.483 661.552,519.649 660.5,519.5C 660.664,522.187 660.497,524.854 660,527.5C 659.999,524.313 659.166,521.48 657.5,519C 659.117,517.908 660.117,516.408 660.5,514.5 Z"/></g>
<g><path style="opacity:1" fill="#3a4353" d="M 686.5,516.5 C 687.534,517.687 688.867,518.52 690.5,519C 689.552,519.483 688.552,519.649 687.5,519.5C 687.338,521.527 687.505,523.527 688,525.5C 688.75,526.126 689.584,526.626 690.5,527C 689.216,527.684 688.049,527.517 687,526.5C 686.971,523.633 686.138,521.133 684.5,519C 685.756,518.583 686.423,517.75 686.5,516.5 Z"/></g>
<g><path style="opacity:1" fill="#3a4353" d="M 721.5,516.5 C 722.534,517.687 723.867,518.52 725.5,519C 724.552,519.483 723.552,519.649 722.5,519.5C 722.338,521.527 722.505,523.527 723,525.5C 723.75,526.126 724.584,526.626 725.5,527C 724.216,527.684 723.049,527.517 722,526.5C 721.971,523.633 721.138,521.133 719.5,519C 720.756,518.583 721.423,517.75 721.5,516.5 Z"/></g>
<g><path style="opacity:1" fill="#3a4353" d="M 902.5,516.5 C 903.534,517.687 904.867,518.52 906.5,519C 905.552,519.483 904.552,519.649 903.5,519.5C 903.338,521.527 903.505,523.527 904,525.5C 904.75,526.126 905.584,526.626 906.5,527C 905.216,527.684 904.049,527.517 903,526.5C 902.971,523.633 902.138,521.133 900.5,519C 901.756,518.583 902.423,517.75 902.5,516.5 Z"/></g>
<g><path style="opacity:1" fill="#3a4353" d="M 909.5,516.5 C 910.534,517.687 911.867,518.52 913.5,519C 912.552,519.483 911.552,519.649 910.5,519.5C 910.338,521.527 910.505,523.527 911,525.5C 911.75,526.126 912.584,526.626 913.5,527C 912.216,527.684 911.049,527.517 910,526.5C 909.971,523.633 909.138,521.133 907.5,519C 908.756,518.583 909.423,517.75 909.5,516.5 Z"/></g>
<g><path style="opacity:1" fill="#3a4353" d="M 1094.5,516.5 C 1095.53,517.687 1096.87,518.52 1098.5,519C 1097.55,519.483 1096.55,519.649 1095.5,519.5C 1095.34,521.527 1095.5,523.527 1096,525.5C 1096.75,526.126 1097.58,526.626 1098.5,527C 1097.22,527.684 1096.05,527.517 1095,526.5C 1094.97,523.633 1094.14,521.133 1092.5,519C 1093.76,518.583 1094.42,517.75 1094.5,516.5 Z"/></g>
<g><path style="opacity:1" fill="#3a4353" d="M 1160.5,516.5 C 1161.53,517.687 1162.87,518.52 1164.5,519C 1163.55,519.483 1162.55,519.649 1161.5,519.5C 1161.34,521.527 1161.5,523.527 1162,525.5C 1162.75,526.126 1163.58,526.626 1164.5,527C 1163.22,527.684 1162.05,527.517 1161,526.5C 1160.97,523.633 1160.14,521.133 1158.5,519C 1159.76,518.583 1160.42,517.75 1160.5,516.5 Z"/></g>
<g><path style="opacity:1" fill="#3a4353" d="M 1409.5,516.5 C 1410.53,517.687 1411.87,518.52 1413.5,519C 1412.55,519.483 1411.55,519.649 1410.5,519.5C 1410.34,521.527 1410.5,523.527 1411,525.5C 1411.75,526.126 1412.58,526.626 1413.5,527C 1412.22,527.684 1411.05,527.517 1410,526.5C 1409.97,523.633 1409.14,521.133 1407.5,519C 1408.76,518.583 1409.42,517.75 1409.5,516.5 Z"/></g>
<g><path style="opacity:1" fill="#474c52" d="M 488.5,515.5 C 490.924,515.192 493.257,515.526 495.5,516.5C 493.761,516.594 491.761,516.761 489.5,517C 489.043,517.414 488.709,517.914 488.5,518.5C 490.416,520.317 492.749,521.484 495.5,522C 496.86,523.938 496.527,525.604 494.5,527C 491.947,527.851 489.614,527.518 487.5,526C 489.443,526.305 491.443,526.305 493.5,526C 494.337,524.989 494.67,523.822 494.5,522.5C 488.739,523.012 486.739,520.679 488.5,515.5 Z"/></g>
<g><path style="opacity:1" fill="#505351" d="M 498.5,516.5 C 499.931,517.082 501.264,517.915 502.5,519C 500.709,521.106 500.042,523.606 500.5,526.5C 501.552,526.351 502.552,526.517 503.5,527C 501.888,527.72 500.388,527.554 499,526.5C 498.774,523.905 498.274,521.405 497.5,519C 498.252,518.329 498.586,517.496 498.5,516.5 Z"/></g>
<g><path style="opacity:1" fill="#584652" d="M 516.5,518.5 C 517.991,518.901 519.658,519.068 521.5,519C 518.104,520.71 516.604,523.543 517,527.5C 516.502,524.518 516.335,521.518 516.5,518.5 Z"/></g>
<g><path style="opacity:1" fill="#595c4e" d="M 545.5,518.5 C 547.199,518.34 548.866,518.506 550.5,519C 549.584,519.374 548.75,519.874 548,520.5C 547.814,522.9 547.314,525.234 546.5,527.5C 545.516,524.572 545.183,521.572 545.5,518.5 Z"/></g>
<g><path style="opacity:1" fill="#505351" d="M 573.5,516.5 C 574.931,517.082 576.264,517.915 577.5,519C 575.709,521.106 575.042,523.606 575.5,526.5C 576.552,526.351 577.552,526.517 578.5,527C 576.888,527.72 575.388,527.554 574,526.5C 573.774,523.905 573.274,521.405 572.5,519C 573.252,518.329 573.586,517.496 573.5,516.5 Z"/></g>
<g><path style="opacity:1" fill="#555b4e" d="M 585.5,518.5 C 593.198,517.193 595.865,520.193 593.5,527.5C 592.686,525.234 592.186,522.9 592,520.5C 590.667,519.167 589.333,519.167 588,520.5C 587.814,522.9 587.314,525.234 586.5,527.5C 585.516,524.572 585.183,521.572 585.5,518.5 Z"/></g>
<g><path style="opacity:1" fill="#484f4f" d="M 598.5,518.5 C 601.167,518.5 603.833,518.5 606.5,518.5C 606.665,521.85 606.498,525.183 606,528.5C 603.445,530.65 600.612,530.983 597.5,529.5C 597.833,529.167 598.167,528.833 598.5,528.5C 600.901,530.062 602.901,529.729 604.5,527.5C 597.346,527.404 595.346,524.404 598.5,518.5 Z"/></g>
<g><path style="opacity:1" fill="#444f4f" d="M 625.5,518.5 C 632.486,518.331 634.153,521.164 630.5,527C 623.416,527.475 621.749,524.642 625.5,518.5 Z"/></g>
<g><path style="opacity:1" fill="#3d4650" d="M 640.5,526.5 C 639.116,527.801 637.616,527.801 636,526.5C 635.333,523.833 635.333,521.167 636,518.5C 636.333,520.833 636.667,523.167 637,525.5C 638.011,526.337 639.178,526.67 640.5,526.5 Z"/></g>
<g><path style="opacity:1" fill="#39444e" d="M 640.5,526.5 C 642.07,524.149 642.903,521.482 643,518.5C 643.667,521.5 643.667,524.5 643,527.5C 642.329,526.748 641.496,526.414 640.5,526.5 Z"/></g>
<g><path style="opacity:1" fill="#555b4e" d="M 697.5,518.5 C 705.198,517.193 707.865,520.193 705.5,527.5C 704.686,525.234 704.186,522.9 704,520.5C 702.667,519.167 701.333,519.167 700,520.5C 699.814,522.9 699.314,525.234 698.5,527.5C 697.516,524.572 697.183,521.572 697.5,518.5 Z"/></g>
<g><path style="opacity:1" fill="#414851" d="M 771.5,518.5 C 773.75,518.181 775.75,518.681 777.5,520C 774.211,518.654 771.878,519.654 770.5,523C 771.515,526.281 773.515,527.115 776.5,525.5C 777.696,525.846 777.696,526.346 776.5,527C 769.416,527.475 767.749,524.642 771.5,518.5 Z"/></g>
<g><path style="opacity:1" fill="#505351" d="M 795.5,516.5 C 796.931,517.082 798.264,517.915 799.5,519C 797.709,521.106 797.042,523.606 797.5,526.5C 798.552,526.351 799.552,526.517 800.5,527C 798.888,527.72 797.388,527.554 796,526.5C 795.774,523.905 795.274,521.405 794.5,519C 795.252,518.329 795.586,517.496 795.5,516.5 Z"/></g>
<g><path style="opacity:1" fill="#4e524f" d="M 895.5,526.5 C 893.511,527.887 891.678,527.553 890,525.5C 890.007,516.166 890.673,516.166 892,525.5C 893.011,526.337 894.178,526.67 895.5,526.5 Z"/></g>
<g><path style="opacity:1" fill="#4b504c" d="M 895.5,526.5 C 896.073,523.853 896.74,521.187 897.5,518.5C 898.655,521.446 898.821,524.446 898,527.5C 897.329,526.748 896.496,526.414 895.5,526.5 Z"/></g>
<g><path style="opacity:1" fill="#444f4f" d="M 917.5,518.5 C 924.486,518.331 926.153,521.164 922.5,527C 915.416,527.475 913.749,524.642 917.5,518.5 Z"/></g>
<g><path style="opacity:1" fill="#505351" d="M 943.5,516.5 C 944.931,517.082 946.264,517.915 947.5,519C 945.709,521.106 945.042,523.606 945.5,526.5C 946.552,526.351 947.552,526.517 948.5,527C 946.888,527.72 945.388,527.554 944,526.5C 943.774,523.905 943.274,521.405 942.5,519C 943.252,518.329 943.586,517.496 943.5,516.5 Z"/></g>
<g><path style="opacity:1" fill="#584254" d="M 966.5,518.5 C 967.483,522.298 967.817,526.298 967.5,530.5C 963.162,530.378 962.828,530.045 966.5,529.5C 966.5,525.833 966.5,522.167 966.5,518.5 Z"/></g>
<g><path style="opacity:1" fill="#434951" d="M 972.5,518.5 C 979.486,518.331 981.153,521.164 977.5,527C 970.416,527.475 968.749,524.642 972.5,518.5 Z"/></g>
<g><path style="opacity:1" fill="#434951" d="M 1007.5,518.5 C 1014.49,518.331 1016.15,521.164 1012.5,527C 1005.42,527.475 1003.75,524.642 1007.5,518.5 Z"/></g>
<g><path style="opacity:1" fill="#444f4f" d="M 1060.5,518.5 C 1067.49,518.331 1069.15,521.164 1065.5,527C 1058.42,527.475 1056.75,524.642 1060.5,518.5 Z"/></g>
<g><path style="opacity:1" fill="#3d4650" d="M 1075.5,526.5 C 1074.12,527.801 1072.62,527.801 1071,526.5C 1070.33,523.833 1070.33,521.167 1071,518.5C 1071.33,520.833 1071.67,523.167 1072,525.5C 1073.01,526.337 1074.18,526.67 1075.5,526.5 Z"/></g>
<g><path style="opacity:1" fill="#39444e" d="M 1075.5,526.5 C 1077.07,524.149 1077.9,521.482 1078,518.5C 1078.67,521.5 1078.67,524.5 1078,527.5C 1077.33,526.748 1076.5,526.414 1075.5,526.5 Z"/></g>
<g><path style="opacity:1" fill="#444f4f" d="M 1114.5,518.5 C 1121.49,518.331 1123.15,521.164 1119.5,527C 1112.42,527.475 1110.75,524.642 1114.5,518.5 Z"/></g>
<g><path style="opacity:1" fill="#3d4650" d="M 1129.5,526.5 C 1128.12,527.801 1126.62,527.801 1125,526.5C 1124.33,523.833 1124.33,521.167 1125,518.5C 1125.33,520.833 1125.67,523.167 1126,525.5C 1127.01,526.337 1128.18,526.67 1129.5,526.5 Z"/></g>
<g><path style="opacity:1" fill="#39444e" d="M 1129.5,526.5 C 1131.07,524.149 1131.9,521.482 1132,518.5C 1132.67,521.5 1132.67,524.5 1132,527.5C 1131.33,526.748 1130.5,526.414 1129.5,526.5 Z"/></g>
<g><path style="opacity:1" fill="#454f52" d="M 1136.5,518.5 C 1139.17,518.5 1141.83,518.5 1144.5,518.5C 1144.67,522.182 1144.5,525.848 1144,529.5C 1141.6,530.602 1139.1,530.769 1136.5,530C 1138.47,529.505 1140.47,529.338 1142.5,529.5C 1142.5,528.5 1142.5,527.5 1142.5,526.5C 1135.76,527.46 1133.76,524.793 1136.5,518.5 Z"/></g>
<g><path style="opacity:1" fill="#4a6047" d="M 1184.5,518.5 C 1185.76,519.514 1186.43,521.014 1186.5,523C 1186.17,524.5 1185.83,526 1185.5,527.5C 1184.52,524.572 1184.18,521.572 1184.5,518.5 Z"/></g>
<g><path style="opacity:1" fill="#595c4e" d="M 1287.5,518.5 C 1289.2,518.34 1290.87,518.506 1292.5,519C 1291.58,519.374 1290.75,519.874 1290,520.5C 1289.81,522.9 1289.31,525.234 1288.5,527.5C 1287.52,524.572 1287.18,521.572 1287.5,518.5 Z"/></g>
<g><path style="opacity:1" fill="#555b4e" d="M 1328.5,518.5 C 1336.2,517.193 1338.86,520.193 1336.5,527.5C 1335.69,525.234 1335.19,522.9 1335,520.5C 1333.67,519.167 1332.33,519.167 1331,520.5C 1330.81,522.9 1330.31,525.234 1329.5,527.5C 1328.52,524.572 1328.18,521.572 1328.5,518.5 Z"/></g>
<g><path style="opacity:1" fill="#434651" d="M 1024.5,521.5 C 1023.83,521.167 1023.17,520.833 1022.5,520.5C 1022.37,519.624 1022.7,518.957 1023.5,518.5C 1024.39,519.325 1024.72,520.325 1024.5,521.5 Z"/></g>
<g><path style="opacity:1" fill="#334154" d="M 1261.5,519.5 C 1260.77,522.079 1260.27,524.746 1260,527.5C 1259.33,524.5 1259.33,521.5 1260,518.5C 1260.38,519.056 1260.88,519.389 1261.5,519.5 Z"/></g>
<g><path style="opacity:1" fill="#454d4f" d="M 1305.5,518.5 C 1310.25,519.086 1314.92,519.253 1319.5,519C 1320.61,521.737 1320.78,524.571 1320,527.5C 1319.67,525.167 1319.33,522.833 1319,520.5C 1317.06,519.14 1315.4,519.473 1314,521.5C 1313.19,529.167 1312.52,528.834 1312,520.5C 1310.95,519.483 1309.78,519.316 1308.5,520C 1307.88,522.473 1307.21,524.973 1306.5,527.5C 1305.52,524.572 1305.18,521.572 1305.5,518.5 Z"/></g>
<g><path style="opacity:1" fill="#364453" d="M 1363.5,518.5 C 1364.71,519.189 1366.04,519.355 1367.5,519C 1365.12,521.226 1363.95,524.059 1364,527.5C 1363.5,524.518 1363.34,521.518 1363.5,518.5 Z"/></g>
<g><path style="opacity:1" fill="#93c634" d="M 599.5,519.5 C 604.159,519.015 605.492,520.848 603.5,525C 598.728,525.81 597.395,523.977 599.5,519.5 Z"/></g>
<g><path style="opacity:1" fill="#4c554c" d="M 618.5,525.5 C 618.541,522.195 619.875,520.029 622.5,519C 621.267,521.314 619.933,523.481 618.5,525.5 Z"/></g>
<g><path style="opacity:1" fill="#90c235" d="M 626.5,519.5 C 630.473,520.075 631.473,522.242 629.5,526C 624.382,525.824 623.382,523.658 626.5,519.5 Z"/></g>
<g><path style="opacity:1" fill="#424952" d="M 677.5,518.5 C 679.199,518.34 680.866,518.506 682.5,519C 676.004,520.562 676.171,522.062 683,523.5C 683.684,524.784 683.517,525.951 682.5,527C 680.421,527.808 678.421,527.641 676.5,526.5C 678.565,526.738 680.565,526.238 682.5,525C 680.781,523.943 678.947,523.11 677,522.5C 676.421,521.072 676.588,519.738 677.5,518.5 Z"/></g>
<g><path style="opacity:1" fill="#35454d" d="M 805.5,519.5 C 807.223,518.193 809.057,518.193 811,519.5C 811.667,522.167 811.667,524.833 811,527.5C 810.667,525.167 810.333,522.833 810,520.5C 808.644,519.62 807.144,519.286 805.5,519.5 Z"/></g>
<g><path style="opacity:1" fill="#90be38" d="M 851.5,519.5 C 854.167,521.833 854.167,524.167 851.5,526.5C 846.507,526.003 845.507,523.836 848.5,520C 849.448,519.517 850.448,519.351 851.5,519.5 Z"/></g>
<g><path style="opacity:1" fill="#90c235" d="M 918.5,519.5 C 922.473,520.075 923.473,522.242 921.5,526C 916.382,525.824 915.382,523.658 918.5,519.5 Z"/></g>
<g><path style="opacity:1" fill="#35454d" d="M 929.5,519.5 C 931.223,518.193 933.057,518.193 935,519.5C 935.667,522.167 935.667,524.833 935,527.5C 934.667,525.167 934.333,522.833 934,520.5C 932.644,519.62 931.144,519.286 929.5,519.5 Z"/></g>
<g><path style="opacity:1" fill="#8fbe37" d="M 973.5,519.5 C 978.493,519.997 979.493,522.164 976.5,526C 971.382,525.824 970.382,523.658 973.5,519.5 Z"/></g>
<g><path style="opacity:1" fill="#525850" d="M 982.5,516.5 C 983.931,517.082 985.264,517.915 986.5,519C 984.709,521.106 984.042,523.606 984.5,526.5C 985.552,526.351 986.552,526.517 987.5,527C 985.888,527.72 984.388,527.554 983,526.5C 982.774,523.905 982.274,521.405 981.5,519C 982.252,518.329 982.586,517.496 982.5,516.5 Z"/></g>
<g><path style="opacity:1" fill="#8fbe37" d="M 1008.5,519.5 C 1013.49,519.997 1014.49,522.164 1011.5,526C 1006.38,525.824 1005.38,523.658 1008.5,519.5 Z"/></g>
<g><path style="opacity:1" fill="#57564e" d="M 1027.5,525.5 C 1027.64,522.903 1028.48,520.569 1030,518.5C 1030.06,521.151 1029.23,523.484 1027.5,525.5 Z"/></g>
<g><path style="opacity:1" fill="#35454d" d="M 1035.5,519.5 C 1037.22,518.193 1039.06,518.193 1041,519.5C 1041.67,522.167 1041.67,524.833 1041,527.5C 1040.67,525.167 1040.33,522.833 1040,520.5C 1038.64,519.62 1037.14,519.286 1035.5,519.5 Z"/></g>
<g><path style="opacity:1" fill="#4c554c" d="M 1053.5,525.5 C 1053.54,522.195 1054.87,520.029 1057.5,519C 1056.27,521.314 1054.93,523.481 1053.5,525.5 Z"/></g>
<g><path style="opacity:1" fill="#90c235" d="M 1061.5,519.5 C 1065.47,520.075 1066.47,522.242 1064.5,526C 1059.38,525.824 1058.38,523.658 1061.5,519.5 Z"/></g>
<g><path style="opacity:1" fill="#354253" d="M 1103.5,519.5 C 1105.22,518.193 1107.06,518.193 1109,519.5C 1109.67,522.167 1109.67,524.833 1109,527.5C 1108.67,525.167 1108.33,522.833 1108,520.5C 1106.64,519.62 1105.14,519.286 1103.5,519.5 Z"/></g>
<g><path style="opacity:1" fill="#90c235" d="M 1115.5,519.5 C 1119.47,520.075 1120.47,522.242 1118.5,526C 1113.38,525.824 1112.38,523.658 1115.5,519.5 Z"/></g>
<g><path style="opacity:1" fill="#91c036" d="M 1138.5,519.5 C 1142.48,519.629 1143.82,521.463 1142.5,525C 1136.55,526.227 1135.21,524.394 1138.5,519.5 Z"/></g>
<g><path style="opacity:1" fill="#35454d" d="M 1150.5,519.5 C 1152.22,518.193 1154.06,518.193 1156,519.5C 1156.67,522.167 1156.67,524.833 1156,527.5C 1155.67,525.167 1155.33,522.833 1155,520.5C 1153.64,519.62 1152.14,519.286 1150.5,519.5 Z"/></g>
<g><path style="opacity:1" fill="#424952" d="M 1167.5,518.5 C 1169.2,518.34 1170.87,518.506 1172.5,519C 1166,520.562 1166.17,522.062 1173,523.5C 1173.68,524.784 1173.52,525.951 1172.5,527C 1170.42,527.808 1168.42,527.641 1166.5,526.5C 1168.57,526.738 1170.57,526.238 1172.5,525C 1170.78,523.943 1168.95,523.11 1167,522.5C 1166.42,521.072 1166.59,519.738 1167.5,518.5 Z"/></g>
<g><path style="opacity:1" fill="#424952" d="M 1231.5,518.5 C 1233.2,518.34 1234.87,518.506 1236.5,519C 1230,520.562 1230.17,522.062 1237,523.5C 1237.68,524.784 1237.52,525.951 1236.5,527C 1234.42,527.808 1232.42,527.641 1230.5,526.5C 1232.57,526.738 1234.57,526.238 1236.5,525C 1234.78,523.943 1232.95,523.11 1231,522.5C 1230.42,521.072 1230.59,519.738 1231.5,518.5 Z"/></g>
<g><path style="opacity:1" fill="#354253" d="M 1261.5,519.5 C 1263.22,518.193 1265.06,518.193 1267,519.5C 1267.67,522.167 1267.67,524.833 1267,527.5C 1266.67,525.167 1266.33,522.833 1266,520.5C 1264.64,519.62 1263.14,519.286 1261.5,519.5 Z"/></g>
<g><path style="opacity:1" fill="#90be38" d="M 1276.5,519.5 C 1279.17,521.833 1279.17,524.167 1276.5,526.5C 1271.51,526.003 1270.51,523.836 1273.5,520C 1274.45,519.517 1275.45,519.351 1276.5,519.5 Z"/></g>
<g><path style="opacity:1" fill="#4c5350" d="M 510.5,526.5 C 510.804,525.85 511.137,525.183 511.5,524.5C 509.955,523.548 508.288,523.215 506.5,523.5C 508.042,522.837 509.709,522.17 511.5,521.5C 511.291,520.914 510.957,520.414 510.5,520C 508.687,520.046 507.021,519.88 505.5,519.5C 512.672,517.677 515.005,520.344 512.5,527.5C 511.817,527.137 511.15,526.804 510.5,526.5 Z"/></g>
<g><path style="opacity:1" fill="#4a5050" d="M 536.5,518.5 C 539.073,518.148 541.406,518.648 543.5,520C 541.3,519.416 539.133,519.582 537,520.5C 536.202,522.259 536.369,523.926 537.5,525.5C 538.833,526.833 540.167,526.833 541.5,525.5C 542.696,525.846 542.696,526.346 541.5,527C 534.808,527.116 533.141,524.282 536.5,518.5 Z"/></g>
<g><path style="opacity:1" fill="#33414e" d="M 647.5,518.5 C 648.289,518.783 648.956,519.283 649.5,520C 648.726,522.405 648.226,524.905 648,527.5C 647.502,524.518 647.335,521.518 647.5,518.5 Z"/></g>
<g><path style="opacity:1" fill="#33414e" d="M 670.5,518.5 C 671.289,518.783 671.956,519.283 672.5,520C 671.726,522.405 671.226,524.905 671,527.5C 670.502,524.518 670.335,521.518 670.5,518.5 Z"/></g>
<g><path style="opacity:1" fill="#4b544f" d="M 710.5,518.5 C 717.716,517.688 719.716,520.355 716.5,526.5C 709.149,527.792 707.149,525.125 710.5,518.5 Z"/></g>
<g><path style="opacity:1" fill="#90c136" d="M 711.5,519.5 C 716.241,519.161 717.574,521.161 715.5,525.5C 712.849,526.842 711.182,526.008 710.5,523C 710.648,521.744 710.982,520.577 711.5,519.5 Z"/></g>
<g><path style="opacity:1" fill="#3e4951" d="M 851.5,519.5 C 850.448,519.351 849.448,519.517 848.5,520C 845.507,523.836 846.507,526.003 851.5,526.5C 848.048,528.257 846.048,527.09 845.5,523C 846.048,518.91 848.048,517.743 851.5,519.5 Z"/></g>
<g><path style="opacity:1" fill="#4a544f" d="M 863.5,519.5 C 864.163,517.958 864.83,516.291 865.5,514.5C 866.833,518.833 866.833,523.167 865.5,527.5C 863.264,527.583 860.93,527.25 858.5,526.5C 855.333,522.49 856.166,519.823 861,518.5C 862.07,518.528 862.903,518.861 863.5,519.5 Z"/></g>
<g><path style="opacity:1" fill="#90c136" d="M 863.5,519.5 C 865.215,522.542 864.548,524.875 861.5,526.5C 858.911,525.278 858.077,523.278 859,520.5C 860.356,519.62 861.856,519.286 863.5,519.5 Z"/></g>
<g><path style="opacity:1" fill="#33414e" d="M 929.5,519.5 C 928.772,522.079 928.272,524.746 928,527.5C 927.333,524.5 927.333,521.5 928,518.5C 928.383,519.056 928.883,519.389 929.5,519.5 Z"/></g>
<g><path style="opacity:1" fill="#4f534e" d="M 1020.5,525.5 C 1020.63,526.376 1020.3,527.043 1019.5,527.5C 1018.26,524.617 1016.93,521.783 1015.5,519C 1016.33,518.312 1017,518.479 1017.5,519.5C 1018.14,521.78 1019.14,523.78 1020.5,525.5 Z"/></g>
<g><path style="opacity:1" fill="#33414e" d="M 1035.5,519.5 C 1034.77,522.079 1034.27,524.746 1034,527.5C 1033.33,524.5 1033.33,521.5 1034,518.5C 1034.38,519.056 1034.88,519.389 1035.5,519.5 Z"/></g>
<g><path style="opacity:1" fill="#33414e" d="M 1082.5,518.5 C 1083.29,518.783 1083.96,519.283 1084.5,520C 1083.73,522.405 1083.23,524.905 1083,527.5C 1082.5,524.518 1082.34,521.518 1082.5,518.5 Z"/></g>
<g><path style="opacity:1" fill="#3e4951" d="M 1276.5,519.5 C 1275.45,519.351 1274.45,519.517 1273.5,520C 1270.51,523.836 1271.51,526.003 1276.5,526.5C 1273.05,528.257 1271.05,527.09 1270.5,523C 1271.05,518.91 1273.05,517.743 1276.5,519.5 Z"/></g>
<g><path style="opacity:1" fill="#4a544f" d="M 1346.5,519.5 C 1347.16,517.958 1347.83,516.291 1348.5,514.5C 1349.83,518.833 1349.83,523.167 1348.5,527.5C 1346.26,527.583 1343.93,527.25 1341.5,526.5C 1338.33,522.49 1339.17,519.823 1344,518.5C 1345.07,518.528 1345.9,518.861 1346.5,519.5 Z"/></g>
<g><path style="opacity:1" fill="#90c136" d="M 1346.5,519.5 C 1348.21,522.542 1347.55,524.875 1344.5,526.5C 1341.91,525.278 1341.08,523.278 1342,520.5C 1343.36,519.62 1344.86,519.286 1346.5,519.5 Z"/></g>
<g><path style="opacity:1" fill="#434c52" d="M 558.5,519.5 C 560.176,520.183 560.843,521.517 560.5,523.5C 558.076,523.192 555.743,523.526 553.5,524.5C 555.579,526.59 557.912,527.09 560.5,526C 557.199,528.207 554.365,527.707 552,524.5C 551.491,519.167 553.657,517.5 558.5,519.5 Z"/></g>
<g><path style="opacity:1" fill="#8ebf36" d="M 558.5,519.5 C 558.414,520.496 558.748,521.329 559.5,522C 557.421,522.808 555.421,522.641 553.5,521.5C 554.668,519.783 556.335,519.116 558.5,519.5 Z"/></g>
<g><path style="opacity:1" fill="#484e50" d="M 563.5,523.5 C 570.105,522.192 570.105,520.692 563.5,519C 565.5,518.333 567.5,518.333 569.5,519C 570.444,521.719 570.777,524.552 570.5,527.5C 568.143,527.663 565.81,527.497 563.5,527C 562.209,525.708 562.209,524.542 563.5,523.5 Z"/></g>
<g><path style="opacity:1" fill="#4d5150" d="M 618.5,525.5 C 618.504,529.605 616.504,531.105 612.5,530C 613.793,529.51 615.127,529.343 616.5,529.5C 616.095,526.013 615.095,522.68 613.5,519.5C 613.846,518.304 614.346,518.304 615,519.5C 615.716,521.879 616.883,523.879 618.5,525.5 Z"/></g>
<g><path style="opacity:1" fill="#434c52" d="M 733.5,519.5 C 735.176,520.183 735.843,521.517 735.5,523.5C 733.076,523.192 730.743,523.526 728.5,524.5C 730.579,526.59 732.912,527.09 735.5,526C 732.199,528.207 729.365,527.707 727,524.5C 726.491,519.167 728.657,517.5 733.5,519.5 Z"/></g>
<g><path style="opacity:1" fill="#8ebf36" d="M 733.5,519.5 C 733.414,520.496 733.748,521.329 734.5,522C 732.421,522.808 730.421,522.641 728.5,521.5C 729.668,519.783 731.335,519.116 733.5,519.5 Z"/></g>
<g><path style="opacity:1" fill="#414c52" d="M 780.5,514.5 C 781.317,516.969 781.817,519.635 782,522.5C 783.636,520.102 785.802,518.935 788.5,519C 787.167,520 785.833,521 784.5,522C 786.213,523.378 787.547,525.045 788.5,527C 786.78,526.29 785.113,525.123 783.5,523.5C 782.029,524.381 781.196,525.714 781,527.5C 780.501,523.179 780.334,518.846 780.5,514.5 Z"/></g>
<g><path style="opacity:1" fill="#434c52" d="M 820.5,519.5 C 822.176,520.183 822.843,521.517 822.5,523.5C 820.076,523.192 817.743,523.526 815.5,524.5C 817.579,526.59 819.912,527.09 822.5,526C 819.199,528.207 816.365,527.707 814,524.5C 813.491,519.167 815.657,517.5 820.5,519.5 Z"/></g>
<g><path style="opacity:1" fill="#8ebf36" d="M 820.5,519.5 C 820.414,520.496 820.748,521.329 821.5,522C 819.421,522.808 817.421,522.641 815.5,521.5C 816.668,519.783 818.335,519.116 820.5,519.5 Z"/></g>
<g><path style="opacity:1" fill="#4f554c" d="M 1022.5,520.5 C 1022.6,522.553 1021.93,524.22 1020.5,525.5C 1020.4,523.447 1021.07,521.78 1022.5,520.5 Z"/></g>
<g><path style="opacity:1" fill="#4d5150" d="M 1053.5,525.5 C 1053.5,529.605 1051.5,531.105 1047.5,530C 1048.79,529.51 1050.13,529.343 1051.5,529.5C 1051.09,526.013 1050.09,522.68 1048.5,519.5C 1048.85,518.304 1049.35,518.304 1050,519.5C 1050.72,521.879 1051.88,523.879 1053.5,525.5 Z"/></g>
<g><path style="opacity:1" fill="#454d52" d="M 1189.5,518.5 C 1196.63,518.363 1196.96,519.03 1190.5,520.5C 1191.66,521.95 1193.16,522.95 1195,523.5C 1195.68,524.784 1195.52,525.951 1194.5,527C 1192.27,527.82 1190.27,527.487 1188.5,526C 1196.07,526.092 1196.23,524.925 1189,522.5C 1188.42,521.072 1188.59,519.738 1189.5,518.5 Z"/></g>
<g><path style="opacity:1" fill="#424a51" d="M 1211.5,518.5 C 1215.85,517.533 1218.18,519.2 1218.5,523.5C 1215.81,523.336 1213.15,523.503 1210.5,524C 1212.39,526.524 1214.73,527.19 1217.5,526C 1213.41,528.588 1210.74,527.588 1209.5,523C 1209.52,521.167 1210.19,519.667 1211.5,518.5 Z"/></g>
<g><path style="opacity:1" fill="#8fc035" d="M 1212.5,519.5 C 1214.35,519.222 1215.68,519.889 1216.5,521.5C 1214.58,522.641 1212.58,522.808 1210.5,522C 1211.38,521.292 1212.05,520.458 1212.5,519.5 Z"/></g>
<g><path style="opacity:1" fill="#434c52" d="M 1300.5,519.5 C 1302.18,520.183 1302.84,521.517 1302.5,523.5C 1300.08,523.192 1297.74,523.526 1295.5,524.5C 1297.58,526.59 1299.91,527.09 1302.5,526C 1299.2,528.207 1296.37,527.707 1294,524.5C 1293.49,519.167 1295.66,517.5 1300.5,519.5 Z"/></g>
<g><path style="opacity:1" fill="#8ebf36" d="M 1300.5,519.5 C 1300.41,520.496 1300.75,521.329 1301.5,522C 1299.42,522.808 1297.42,522.641 1295.5,521.5C 1296.67,519.783 1298.34,519.116 1300.5,519.5 Z"/></g>
<g><path style="opacity:1" fill="#454d52" d="M 1370.5,518.5 C 1377.63,518.363 1377.96,519.03 1371.5,520.5C 1372.66,521.95 1374.16,522.95 1376,523.5C 1376.68,524.784 1376.52,525.951 1375.5,527C 1373.27,527.82 1371.27,527.487 1369.5,526C 1377.07,526.092 1377.23,524.925 1370,522.5C 1369.42,521.072 1369.59,519.738 1370.5,518.5 Z"/></g>
<g><path style="opacity:1" fill="#424a51" d="M 1399.5,518.5 C 1403.85,517.533 1406.18,519.2 1406.5,523.5C 1403.81,523.336 1401.15,523.503 1398.5,524C 1400.39,526.524 1402.73,527.19 1405.5,526C 1401.41,528.588 1398.74,527.588 1397.5,523C 1397.52,521.167 1398.19,519.667 1399.5,518.5 Z"/></g>
<g><path style="opacity:1" fill="#8fc035" d="M 1400.5,519.5 C 1402.35,519.222 1403.68,519.889 1404.5,521.5C 1402.58,522.641 1400.58,522.808 1398.5,522C 1399.38,521.292 1400.05,520.458 1400.5,519.5 Z"/></g>
<g><path style="opacity:1" fill="#48544f" d="M 1419.5,518.5 C 1421.6,518.201 1423.6,518.534 1425.5,519.5C 1424,519.478 1422.34,519.811 1420.5,520.5C 1421.99,522.012 1423.82,523.012 1426,523.5C 1426.42,526.328 1425.09,527.661 1422,527.5C 1417.4,525.914 1417.4,525.581 1422,526.5C 1423.06,526.37 1423.89,525.87 1424.5,525C 1423,523.885 1421.33,523.052 1419.5,522.5C 1418.37,521.192 1418.37,519.858 1419.5,518.5 Z"/></g>
<g><path style="opacity:1" fill="#8dc035" d="M 506.5,523.5 C 508.288,523.215 509.955,523.548 511.5,524.5C 511.137,525.183 510.804,525.85 510.5,526.5C 508.027,526.912 506.694,525.912 506.5,523.5 Z"/></g>
<g><path style="opacity:1" fill="#8abd36" d="M 563.5,523.5 C 565.288,523.215 566.955,523.548 568.5,524.5C 566.203,527.29 564.536,526.956 563.5,523.5 Z"/></g>
<g><path style="opacity:1" fill="#444b51" d="M 836.5,515.5 C 837.496,515.414 838.329,515.748 839,516.5C 841.24,519.953 842.573,523.619 843,527.5C 841.922,525.61 840.255,524.61 838,524.5C 835.317,524.64 833.15,525.474 831.5,527C 833.308,523.219 834.974,519.385 836.5,515.5 Z"/></g>
<g><path style="opacity:1" fill="#82ae3b" d="M 837.5,517.5 C 841.925,521.558 841.259,523.558 835.5,523.5C 835.604,521.297 836.27,519.297 837.5,517.5 Z"/></g>
<g><path style="opacity:1" fill="#444a52" d="M 1220.5,518.5 C 1222.79,518.244 1224.96,518.577 1227,519.5C 1227.67,522.167 1227.67,524.833 1227,527.5C 1224.96,527.643 1222.79,527.309 1220.5,526.5C 1219.27,525.349 1219.27,524.183 1220.5,523C 1222.58,522.808 1224.58,522.308 1226.5,521.5C 1225.03,519.343 1223.2,519.01 1221,520.5C 1220.54,519.906 1220.37,519.239 1220.5,518.5 Z"/></g>
<g><path style="opacity:1" fill="#93c336" d="M 1221.5,523.5 C 1223.29,523.215 1224.95,523.548 1226.5,524.5C 1224.04,527.423 1222.37,527.089 1221.5,523.5 Z"/></g>
<g><path style="opacity:1" fill="#444a52" d="M 1248.5,518.5 C 1250.79,518.244 1252.96,518.577 1255,519.5C 1255.67,522.167 1255.67,524.833 1255,527.5C 1252.96,527.643 1250.79,527.309 1248.5,526.5C 1247.27,525.349 1247.27,524.183 1248.5,523C 1250.58,522.808 1252.58,522.308 1254.5,521.5C 1253.03,519.343 1251.2,519.01 1249,520.5C 1248.54,519.906 1248.37,519.239 1248.5,518.5 Z"/></g>
<g><path style="opacity:1" fill="#93c336" d="M 1249.5,523.5 C 1251.29,523.215 1252.95,523.548 1254.5,524.5C 1252.04,527.423 1250.37,527.089 1249.5,523.5 Z"/></g>
<g><path style="opacity:1" fill="#48534f" d="M 878.5,514.5 C 879.302,515.952 879.802,517.618 880,519.5C 885.683,517.514 888.016,519.514 887,525.5C 886.5,526 886,526.5 885.5,527C 883.141,527.208 880.974,527.374 879,527.5C 878.501,523.179 878.334,518.846 878.5,514.5 Z"/></g>
<g><path style="opacity:1" fill="#8fc135" d="M 881.5,519.5 C 885.473,520.075 886.473,522.242 884.5,526C 879.395,525.751 878.395,523.584 881.5,519.5 Z"/></g>
<g><path style="opacity:1" fill="#535052" d="M 1000.5,519.5 C 1001.3,518.048 1001.8,516.382 1002,514.5C 1002.67,518.833 1002.67,523.167 1002,527.5C 1000.03,527.374 997.859,527.208 995.5,527C 993.604,525.192 993.104,523.025 994,520.5C 996.016,518.392 998.183,518.058 1000.5,519.5 Z"/></g>
<g><path style="opacity:1" fill="#90c136" d="M 1000.5,519.5 C 1002.54,523.915 1001.21,526.082 996.5,526C 994.339,521.552 995.672,519.385 1000.5,519.5 Z"/></g>
<g><path style="opacity:1" fill="#4d4e52" d="M 1024.5,521.5 C 1025.5,522.833 1026.5,524.167 1027.5,525.5C 1027.63,526.376 1027.3,527.043 1026.5,527.5C 1025.23,525.696 1024.57,523.696 1024.5,521.5 Z"/></g>
<g><path style="opacity:1" fill="#535052" d="M 1204.5,519.5 C 1205.3,518.048 1205.8,516.382 1206,514.5C 1206.67,518.833 1206.67,523.167 1206,527.5C 1204.03,527.374 1201.86,527.208 1199.5,527C 1197.6,525.192 1197.1,523.025 1198,520.5C 1200.02,518.392 1202.18,518.058 1204.5,519.5 Z"/></g>
<g><path style="opacity:1" fill="#90c136" d="M 1204.5,519.5 C 1206.54,523.915 1205.21,526.082 1200.5,526C 1198.34,521.552 1199.67,519.385 1204.5,519.5 Z"/></g>
<g><path style="opacity:1" fill="#4e594f" d="M 1359.5,520.5 C 1360.4,521.209 1360.74,522.209 1360.5,523.5C 1351.19,524.012 1351.19,524.845 1360.5,526C 1354.23,529.226 1351.39,527.393 1352,520.5C 1354.62,517.86 1357.12,517.86 1359.5,520.5 Z"/></g>
<g><path style="opacity:1" fill="#90bc38" d="M 1359.5,520.5 C 1359.03,521.693 1358.03,522.36 1356.5,522.5C 1352.74,522.03 1352.57,521.03 1356,519.5C 1357.14,519.989 1358.31,520.322 1359.5,520.5 Z"/></g>
<g><path style="opacity:1" fill="#474a52" d="M 506.5,523.5 C 506.694,525.912 508.027,526.912 510.5,526.5C 509.399,527.598 508.066,527.765 506.5,527C 505.209,525.708 505.209,524.542 506.5,523.5 Z"/></g>
<g><path style="opacity:1" fill="#484e51" d="M 952.5,526.5 C 949.053,524.521 948.72,522.021 951.5,519C 957.667,517.167 959.833,519.333 958,525.5C 956.322,527.553 954.489,527.887 952.5,526.5 Z"/></g>
<g><path style="opacity:1" fill="#90c136" d="M 952.5,526.5 C 950.237,521.74 951.57,519.573 956.5,520C 958.31,524.033 956.976,526.2 952.5,526.5 Z"/></g>
<g><path style="opacity:1" fill="#434d4b" d="M 1378.5,525.5 C 1380.34,525.639 1380.67,526.306 1379.5,527.5C 1378.7,527.043 1378.37,526.376 1378.5,525.5 Z"/></g>
<g><path style="opacity:1" fill="#5a564d" d="M 1175.5,525.5 C 1176.38,525.369 1177.04,525.702 1177.5,526.5C 1176.01,531.646 1175.34,531.313 1175.5,525.5 Z"/></g>
<g><path style="opacity:1" fill="#5a564d" d="M 1239.5,525.5 C 1240.38,525.369 1241.04,525.702 1241.5,526.5C 1240.01,531.646 1239.34,531.313 1239.5,525.5 Z"/></g>
<g><path style="opacity:1" fill="#38424f" d="M 998.5,561.5 C 1001.17,559.167 1001.17,556.833 998.5,554.5C 1000.12,553.411 1000.95,551.744 1001,549.5C 1001.67,553.833 1001.67,558.167 1001,562.5C 1000.33,561.748 999.496,561.414 998.5,561.5 Z"/></g>
<g><path style="opacity:1" fill="#4f584b" d="M 1004.5,550.5 C 1005.75,551.334 1006.41,552.667 1006.5,554.5C 1006.17,555.833 1005.83,557.167 1005.5,558.5C 1004.52,555.914 1004.19,553.247 1004.5,550.5 Z"/></g>
<g><path style="opacity:1" fill="#484f4f" d="M 907.5,553.5 C 910.167,553.5 912.833,553.5 915.5,553.5C 915.665,556.85 915.498,560.183 915,563.5C 912.445,565.65 909.612,565.983 906.5,564.5C 906.833,564.167 907.167,563.833 907.5,563.5C 909.901,565.062 911.901,564.729 913.5,562.5C 906.346,562.404 904.346,559.404 907.5,553.5 Z"/></g>
<g><path style="opacity:1" fill="#455051" d="M 957.5,553.5 C 959.792,553.244 961.959,553.577 964,554.5C 964.497,557.146 964.664,559.813 964.5,562.5C 961.881,562.768 959.381,562.435 957,561.5C 956.316,560.216 956.483,559.049 957.5,558C 959.577,557.808 961.577,557.308 963.5,556.5C 962.034,554.343 960.2,554.01 958,555.5C 957.536,554.906 957.369,554.239 957.5,553.5 Z"/></g>
<g><path style="opacity:1" fill="#4b4554" d="M 950.5,551.5 C 951.534,552.687 952.867,553.52 954.5,554C 953.552,554.483 952.552,554.649 951.5,554.5C 951.338,556.527 951.505,558.527 952,560.5C 952.75,561.126 953.584,561.626 954.5,562C 953.216,562.684 952.049,562.517 951,561.5C 950.971,558.633 950.138,556.133 948.5,554C 949.756,553.583 950.423,552.75 950.5,551.5 Z"/></g>
<g><path style="opacity:1" fill="#93c634" d="M 908.5,554.5 C 913.159,554.015 914.492,555.848 912.5,560C 907.728,560.81 906.395,558.977 908.5,554.5 Z"/></g>
<g><path style="opacity:1" fill="#525850" d="M 929.5,551.5 C 930.931,552.082 932.264,552.915 933.5,554C 931.709,556.106 931.042,558.606 931.5,561.5C 932.552,561.351 933.552,561.517 934.5,562C 932.888,562.72 931.388,562.554 930,561.5C 929.774,558.905 929.274,556.405 928.5,554C 929.252,553.329 929.586,552.496 929.5,551.5 Z"/></g>
<g><path style="opacity:1" fill="#525850" d="M 975.5,551.5 C 976.931,552.082 978.264,552.915 979.5,554C 977.709,556.106 977.042,558.606 977.5,561.5C 978.552,561.351 979.552,561.517 980.5,562C 978.888,562.72 977.388,562.554 976,561.5C 975.774,558.905 975.274,556.405 974.5,554C 975.252,553.329 975.586,552.496 975.5,551.5 Z"/></g>
<g><path style="opacity:1" fill="#90be38" d="M 998.5,554.5 C 1001.17,556.833 1001.17,559.167 998.5,561.5C 993.507,561.003 992.507,558.836 995.5,555C 996.448,554.517 997.448,554.351 998.5,554.5 Z"/></g>
<g><path style="opacity:1" fill="#33414e" d="M 968.5,553.5 C 969.289,553.783 969.956,554.283 970.5,555C 969.726,557.405 969.226,559.905 969,562.5C 968.502,559.518 968.335,556.518 968.5,553.5 Z"/></g>
<g><path style="opacity:1" fill="#3e4951" d="M 998.5,554.5 C 997.448,554.351 996.448,554.517 995.5,555C 992.507,558.836 993.507,561.003 998.5,561.5C 995.048,563.257 993.048,562.09 992.5,558C 993.048,553.91 995.048,552.743 998.5,554.5 Z"/></g>
<g><path style="opacity:1" fill="#434c52" d="M 924.5,554.5 C 926.176,555.183 926.843,556.517 926.5,558.5C 924.076,558.192 921.743,558.526 919.5,559.5C 921.579,561.59 923.912,562.09 926.5,561C 923.199,563.207 920.365,562.707 918,559.5C 917.491,554.167 919.657,552.5 924.5,554.5 Z"/></g>
<g><path style="opacity:1" fill="#8ebf36" d="M 924.5,554.5 C 924.414,555.496 924.748,556.329 925.5,557C 923.421,557.808 921.421,557.641 919.5,556.5C 920.668,554.783 922.335,554.116 924.5,554.5 Z"/></g>
<g><path style="opacity:1" fill="#454d52" d="M 941.5,553.5 C 948.626,553.363 948.959,554.03 942.5,555.5C 943.655,556.95 945.155,557.95 947,558.5C 947.684,559.784 947.517,560.951 946.5,562C 944.272,562.82 942.272,562.487 940.5,561C 948.067,561.092 948.234,559.925 941,557.5C 940.421,556.072 940.588,554.738 941.5,553.5 Z"/></g>
<g><path style="opacity:1" fill="#424a51" d="M 983.5,553.5 C 987.851,552.533 990.185,554.2 990.5,558.5C 987.813,558.336 985.146,558.503 982.5,559C 984.394,561.524 986.727,562.19 989.5,561C 985.408,563.588 982.741,562.588 981.5,558C 981.519,556.167 982.185,554.667 983.5,553.5 Z"/></g>
<g><path style="opacity:1" fill="#8fc035" d="M 984.5,554.5 C 986.346,554.222 987.68,554.889 988.5,556.5C 986.579,557.641 984.579,557.808 982.5,557C 983.381,556.292 984.047,555.458 984.5,554.5 Z"/></g>
<g><path style="opacity:1" fill="#94c138" d="M 958.5,558.5 C 960.288,558.215 961.955,558.548 963.5,559.5C 961.039,562.423 959.372,562.089 958.5,558.5 Z"/></g>
<g><path style="opacity:1" fill="#4a4d4f" d="M 1004.5,560.5 C 1006.34,560.639 1006.67,561.306 1005.5,562.5C 1004.7,562.043 1004.37,561.376 1004.5,560.5 Z"/></g>
<g><path style="opacity:1" fill="#2b85fe" d="M 1801.5,737.5 C 1817.84,737.333 1834.17,737.5 1850.5,738C 1858.56,739.732 1863.73,744.565 1866,752.5C 1866.67,768.833 1866.67,785.167 1866,801.5C 1864.17,810 1859,815.167 1850.5,817C 1834.17,817.667 1817.83,817.667 1801.5,817C 1793.56,814.732 1788.73,809.565 1787,801.5C 1786.33,785.167 1786.33,768.833 1787,752.5C 1789.35,744.984 1794.18,739.984 1801.5,737.5 Z"/></g>
<g><path style="opacity:1" fill="#e3eeff" d="M 1824.5,765.5 C 1825.83,765.5 1827.17,765.5 1828.5,765.5C 1828.5,768.833 1828.5,772.167 1828.5,775.5C 1831.83,775.5 1835.17,775.5 1838.5,775.5C 1838.5,776.833 1838.5,778.167 1838.5,779.5C 1835.17,779.5 1831.83,779.5 1828.5,779.5C 1828.5,782.833 1828.5,786.167 1828.5,789.5C 1827.17,789.5 1825.83,789.5 1824.5,789.5C 1824.5,786.167 1824.5,782.833 1824.5,779.5C 1821.17,779.5 1817.83,779.5 1814.5,779.5C 1814.5,778.167 1814.5,776.833 1814.5,775.5C 1817.83,775.5 1821.17,775.5 1824.5,775.5C 1824.5,772.167 1824.5,768.833 1824.5,765.5 Z"/></g>
</svg>
