<?xml version="1.0" encoding="UTF-8"?>
<!DOCTYPE svg PUBLIC "-//W3C//DTD SVG 1.1//EN" "http://www.w3.org/Graphics/SVG/1.1/DTD/svg11.dtd">
<svg xmlns="http://www.w3.org/2000/svg" version="1.1" width="1916px" height="865px" style="shape-rendering:geometricPrecision; text-rendering:geometricPrecision; image-rendering:optimizeQuality; fill-rule:evenodd; clip-rule:evenodd" xmlns:xlink="http://www.w3.org/1999/xlink">
<g><path style="opacity:1" fill="#fefefe" d="M -0.5,-0.5 C 638.167,-0.5 1276.83,-0.5 1915.5,-0.5C 1915.5,24.1667 1915.5,48.8333 1915.5,73.5C 1276.83,73.5 638.167,73.5 -0.5,73.5C -0.5,48.8333 -0.5,24.1667 -0.5,-0.5 Z"/></g>
<g><path style="opacity:1" fill="#f0f4f8" d="M 1491.5,12.5 C 1621.5,12.3333 1751.5,12.5 1881.5,13C 1883.67,13.8333 1885.17,15.3333 1886,17.5C 1886.67,29.8333 1886.67,42.1667 1886,54.5C 1885.17,56.6667 1883.67,58.1667 1881.5,59C 1751.5,59.6667 1621.5,59.6667 1491.5,59C 1489.33,58.1667 1487.83,56.6667 1487,54.5C 1486.33,42.1667 1486.33,29.8333 1487,17.5C 1488.02,15.313 1489.52,13.6464 1491.5,12.5 Z"/></g>
<g><path style="opacity:1" fill="#7c7c7c" d="M 43.5,44.5 C 43.6661,38.8236 43.4994,33.1569 43,27.5C 42.8238,31.6877 42.3238,35.6877 41.5,39.5C 41.5,35.1667 41.5,30.8333 41.5,26.5C 42.5,26.5 43.5,26.5 44.5,26.5C 44.8229,32.69 44.4896,38.69 43.5,44.5 Z"/></g>
<g><path style="opacity:1" fill="#a0adc0" d="M 1851.5,27.5 C 1860.81,26.31 1864.14,30.1433 1861.5,39C 1863.35,40.6837 1865.02,42.5171 1866.5,44.5C 1865.64,45.5827 1864.64,45.7494 1863.5,45C 1862.31,43.647 1860.98,42.4803 1859.5,41.5C 1854.94,43.3223 1851.1,42.3223 1848,38.5C 1846.66,33.9597 1847.83,30.293 1851.5,27.5 Z"/></g>
<g><path style="opacity:1" fill="#1f1f1f" d="M 65.5,28.5 C 67.0481,28.8212 67.7148,29.8212 67.5,31.5C 72.8333,32.1667 72.8333,32.8333 67.5,33.5C 67.5,36.5 67.5,39.5 67.5,42.5C 68.9778,42.238 70.3112,42.5713 71.5,43.5C 69.3886,44.8485 67.5553,44.5152 66,42.5C 65.9632,38.9111 65.1299,35.5778 63.5,32.5C 64.8532,31.4763 65.5198,30.143 65.5,28.5 Z"/></g>
<g><path style="opacity:1" fill="#edf2f6" d="M 1852.5,29.5 C 1859.98,29.3083 1861.98,32.4749 1858.5,39C 1850.42,39.8047 1848.42,36.638 1852.5,29.5 Z"/></g>
<g><path style="opacity:1" fill="#161616" d="M 41.5,39.5 C 42.3238,35.6877 42.8238,31.6877 43,27.5C 43.4994,33.1569 43.6661,38.8236 43.5,44.5C 39.85,40.5734 36.1833,36.5734 32.5,32.5C 31.8333,36.5 31.1667,40.5 30.5,44.5C 29.1667,38.8333 29.1667,33.1667 30.5,27.5C 34.1886,31.5201 37.8553,35.5201 41.5,39.5 Z"/></g>
<g><path style="opacity:1" fill="#c2c8d0" d="M 1576.5,33.5 C 1581.88,33.4517 1583.55,35.9517 1581.5,41C 1574.68,41.8606 1573.02,39.3606 1576.5,33.5 Z"/></g>
<g><path style="opacity:1" fill="#cdd3da" d="M 1584.5,31.5 C 1586.44,32.5903 1588.27,33.9236 1590,35.5C 1592.46,32.8997 1594.96,32.8997 1597.5,35.5C 1599.6,33.4798 1601.93,33.1465 1604.5,34.5C 1603.93,35.2913 1603.1,35.2913 1602,34.5C 1600.74,34.8499 1600.41,35.5165 1601,36.5C 1606.9,38.578 1606.9,40.2447 1601,41.5C 1595.87,41.4811 1590.7,41.3144 1585.5,41C 1584.2,37.7844 1583.87,34.6177 1584.5,31.5 Z"/></g>
<g><path style="opacity:1" fill="#1b1b1b" d="M 90.5,31.5 C 93.2469,31.1866 95.9135,31.52 98.5,32.5C 96.2573,33.4742 93.924,33.8076 91.5,33.5C 91.281,34.675 91.6143,35.675 92.5,36.5C 94.5,37.1667 96.5,37.8333 98.5,38.5C 99.9159,42.6915 98.2492,44.6915 93.5,44.5C 91.5191,44.5629 89.8524,43.8962 88.5,42.5C 91.319,42.2577 94.319,42.2577 97.5,42.5C 97.719,41.325 97.3857,40.325 96.5,39.5C 90.1718,39.8554 88.1718,37.1888 90.5,31.5 Z"/></g>
<g><path style="opacity:1" fill="#1d1d1d" d="M 51.5,31.5 C 60.8075,30.9533 63.4742,34.7866 59.5,43C 51.2463,46.0813 47.7463,43.2479 49,34.5C 50.045,33.6266 50.8783,32.6266 51.5,31.5 Z"/></g>
<g><path style="opacity:1" fill="#f1f1f1" d="M 51.5,33.5 C 58.9974,32.8038 60.9974,35.6372 57.5,42C 50.7813,42.7259 48.7813,39.8925 51.5,33.5 Z"/></g>
<g><path style="opacity:1" fill="#1c1c1c" d="M 77.5,31.5 C 83.1878,30.531 86.1878,32.8643 86.5,38.5C 83.1667,38.5 79.8333,38.5 76.5,38.5C 76.33,39.8221 76.6634,40.9887 77.5,42C 80.3315,42.2121 82.9982,42.3787 85.5,42.5C 81.0534,45.5643 77.2201,44.8977 74,40.5C 72.9804,36.5532 74.1471,33.5532 77.5,31.5 Z"/></g>
<g><path style="opacity:1" fill="#d6d6d6" d="M 77.5,33.5 C 79.5273,33.3379 81.5273,33.5045 83.5,34C 84.3366,35.0113 84.67,36.1779 84.5,37.5C 81.4281,37.8174 78.4281,37.4841 75.5,36.5C 76.1925,35.4822 76.8592,34.4822 77.5,33.5 Z"/></g>
<g><path style="opacity:1" fill="#8ebd2e" d="M -0.5,73.5 C 638.167,73.5 1276.83,73.5 1915.5,73.5C 1915.5,73.8333 1915.5,74.1667 1915.5,74.5C 1276.87,75.4993 638.206,75.8326 -0.5,75.5C -0.5,74.8333 -0.5,74.1667 -0.5,73.5 Z"/></g>
<g><path style="opacity:1" fill="#96c730" d="M 1915.5,74.5 C 1915.5,75.5 1915.5,76.5 1915.5,77.5C 1276.83,77.5 638.167,77.5 -0.5,77.5C -0.5,76.8333 -0.5,76.1667 -0.5,75.5C 638.206,75.8326 1276.87,75.4993 1915.5,74.5 Z"/></g>
<g><path style="opacity:1" fill="#99cc32" d="M -0.5,77.5 C 638.167,77.5 1276.83,77.5 1915.5,77.5C 1915.5,339.833 1915.5,602.167 1915.5,864.5C 1276.83,864.5 638.167,864.5 -0.5,864.5C -0.5,602.167 -0.5,339.833 -0.5,77.5 Z"/></g>
<g><path style="opacity:1" fill="#fefdfe" d="M 717.5,636.5 C 717.333,496.833 717.5,357.166 718,217.5C 718.513,216.473 719.013,215.473 719.5,214.5C 877.706,213.168 1036.04,213.168 1194.5,214.5C 1195.19,215.025 1195.69,215.692 1196,216.5C 1196.67,356.5 1196.67,496.5 1196,636.5C 1195.5,637.667 1194.67,638.5 1193.5,639C 1035.5,639.667 877.5,639.667 719.5,639C 718.244,638.583 717.577,637.75 717.5,636.5 Z"/></g>
<g><path style="opacity:1" fill="#e4e7ea" d="M 719.5,214.5 C 719.013,215.473 718.513,216.473 718,217.5C 717.5,357.166 717.333,496.833 717.5,636.5C 716.334,496.667 716.167,356.667 717,216.5C 717.417,215.244 718.25,214.577 719.5,214.5 Z"/></g>
<g><path style="opacity:1" fill="#000000" d="M 756.5,273.5 C 757.49,279.645 757.823,285.978 757.5,292.5C 761.555,292.176 765.555,292.509 769.5,293.5C 765.217,294.492 760.884,294.826 756.5,294.5C 756.5,287.5 756.5,280.5 756.5,273.5 Z"/></g>
<g><path style="opacity:1" fill="#22151b" d="M 812.5,272.5 C 814.973,272.947 815.14,273.947 813,275.5C 812.517,274.552 812.351,273.552 812.5,272.5 Z"/></g>
<g><path style="opacity:1" fill="#322025" d="M 776.5,278.5 C 784.523,278.683 788.023,282.683 787,290.5C 782.044,295.674 777.211,295.674 772.5,290.5C 771.348,287.894 771.182,285.227 772,282.5C 773.667,281.267 775.167,279.933 776.5,278.5 Z"/></g>
<g><path style="opacity:1" fill="#43ff59" d="M 812.5,278.5 C 813.812,280.743 814.478,283.41 814.5,286.5C 814.167,289.167 813.833,291.833 813.5,294.5C 812.505,289.208 812.172,283.875 812.5,278.5 Z"/></g>
<g><path style="opacity:1" fill="#3c1d2a" d="M 820.5,278.5 C 821.931,278.881 822.764,279.881 823,281.5C 826.588,277.607 830.254,277.607 834,281.5C 834.156,298.796 833.323,298.796 831.5,281.5C 828.589,280.017 825.922,280.35 823.5,282.5C 822.833,286.5 822.167,290.5 821.5,294.5C 820.505,289.208 820.172,283.875 820.5,278.5 Z"/></g>
<g><path style="opacity:1" fill="#f5f5f2" d="M 776.5,280.5 C 785.818,280.655 787.818,284.488 782.5,292C 773.103,292.139 771.103,288.306 776.5,280.5 Z"/></g>
<g><path style="opacity:1" fill="#2b212c" d="M 795.5,278.5 C 798.862,278.07 801.695,279.07 804,281.5C 804.249,280.376 804.749,279.376 805.5,278.5C 806.664,284.472 806.83,290.472 806,296.5C 802.095,300.512 797.595,301.345 792.5,299C 791.209,295.975 791.876,295.641 794.5,298C 797.916,298.893 801.083,298.393 804,296.5C 804.667,294.833 804.667,293.167 804,291.5C 794.733,295.563 790.4,292.563 791,282.5C 792.397,280.93 793.897,279.596 795.5,278.5 Z"/></g>
<g><path style="opacity:1" fill="#f2f0eb" d="M 795.5,280.5 C 803.937,280.087 806.27,283.587 802.5,291C 794.685,293.522 791.518,290.689 793,282.5C 793.995,281.934 794.828,281.267 795.5,280.5 Z"/></g>
<g><path style="opacity:1" fill="#010101" d="M 754.5,336.5 C 888.834,336.333 1023.17,336.5 1157.5,337C 1160.23,337.398 1162.07,338.898 1163,341.5C 1163.67,358.833 1163.67,376.167 1163,393.5C 1162.5,396.667 1160.67,398.5 1157.5,399C 1023.17,399.667 888.833,399.667 754.5,399C 751.898,398.065 750.398,396.232 750,393.5C 749.333,376.167 749.333,358.833 750,341.5C 751.025,339.313 752.525,337.646 754.5,336.5 Z"/></g>
<g><path style="opacity:1" fill="#e4e6ea" d="M 1157.5,340.5 C 1022.79,340.17 888.126,340.503 753.5,341.5C 753.611,340.883 753.944,340.383 754.5,340C 889.001,339.167 1023.33,339.334 1157.5,340.5 Z"/></g>
<g><path style="opacity:1" fill="#fcfbfb" d="M 1157.5,340.5 C 1158.5,340.414 1159.33,340.748 1160,341.5C 1160.67,358.833 1160.67,376.167 1160,393.5C 1159.5,394.667 1158.67,395.5 1157.5,396C 1023.17,396.667 888.833,396.667 754.5,396C 753.874,395.25 753.374,394.416 753,393.5C 752.171,375.995 752.338,358.662 753.5,341.5C 888.126,340.503 1022.79,340.17 1157.5,340.5 Z"/></g>
<g><path style="opacity:1" fill="#74737d" d="M 815.5,364.5 C 815.611,363.883 815.944,363.383 816.5,363C 819.167,362.333 821.833,362.333 824.5,363C 821.456,363.363 818.456,363.863 815.5,364.5 Z"/></g>
<g><path style="opacity:1" fill="#61314b" d="M 857.5,363.5 C 858.534,364.687 859.867,365.52 861.5,366C 860.552,366.483 859.552,366.649 858.5,366.5C 858.662,368.527 858.495,370.527 858,372.5C 857.933,369.953 857.099,367.786 855.5,366C 856.756,365.583 857.423,364.75 857.5,363.5 Z"/></g>
<g><path style="opacity:1" fill="#a26e1e" d="M 833.5,366.5 C 832.532,368.607 832.198,370.941 832.5,373.5C 831.79,371.107 831.123,368.607 830.5,366C 831.126,365.25 831.626,364.416 832,363.5C 832.772,364.849 833.939,365.682 835.5,366C 834.906,366.464 834.239,366.631 833.5,366.5 Z"/></g>
<g><path style="opacity:1" fill="#517baa" d="M 833.5,366.5 C 833.042,369.394 833.709,371.894 835.5,374C 834.251,374.74 833.251,374.573 832.5,373.5C 832.198,370.941 832.532,368.607 833.5,366.5 Z"/></g>
<g><path style="opacity:1" fill="#3685c5" d="M 796.5,367.5 C 796.56,366.957 796.893,366.624 797.5,366.5C 798.652,369.106 798.818,371.773 798,374.5C 797.814,371.964 797.314,369.631 796.5,367.5 Z"/></g>
<g><path style="opacity:1" fill="#62a6e3" d="M 808.5,367.5 C 808.56,366.957 808.893,366.624 809.5,366.5C 810.652,369.106 810.818,371.773 810,374.5C 809.814,371.964 809.314,369.631 808.5,367.5 Z"/></g>
<g><path style="opacity:1" fill="#7a1810" d="M 871.5,366.5 C 872.239,366.369 872.906,366.536 873.5,367C 872.726,369.405 872.226,371.905 872,374.5C 871.503,371.854 871.336,369.187 871.5,366.5 Z"/></g>
<g><path style="opacity:1" fill="#5ea2df" d="M 888.5,367.5 C 888.56,366.957 888.893,366.624 889.5,366.5C 890.8,369.309 890.8,371.976 889.5,374.5C 889.802,371.941 889.468,369.607 888.5,367.5 Z"/></g>
<g><path style="opacity:1" fill="#344c8e" d="M 933.5,367.5 C 934.251,366.427 935.251,366.26 936.5,367C 935.726,369.405 935.226,371.905 935,374.5C 934.814,371.964 934.314,369.631 933.5,367.5 Z"/></g>
<g><path style="opacity:1" fill="#4791ce" d="M 790.5,366.5 C 791.239,366.369 791.906,366.536 792.5,367C 791.726,369.405 791.226,371.905 791,374.5C 790.503,371.854 790.336,369.187 790.5,366.5 Z"/></g>
<g><path style="opacity:1" fill="#8d6297" d="M 815.5,364.5 C 814.109,366.921 813.275,369.588 813,372.5C 811.834,369.073 812.668,366.407 815.5,364.5 Z"/></g>
<g><path style="opacity:1" fill="#5c4441" d="M 837.5,371.5 C 837.263,370.209 837.596,369.209 838.5,368.5C 840.863,370.002 843.03,369.668 845,367.5C 845.483,368.448 845.649,369.448 845.5,370.5C 842.721,370.279 840.054,370.612 837.5,371.5 Z"/></g>
<g><path style="opacity:1" fill="#b9b4b6" d="M 837.5,371.5 C 840.054,370.612 842.721,370.279 845.5,370.5C 845.649,369.448 845.483,368.448 845,367.5C 843.03,369.668 840.863,370.002 838.5,368.5C 838.414,367.504 838.748,366.671 839.5,366C 843.825,364.576 846.325,366.076 847,370.5C 847.219,369.062 847.719,367.729 848.5,366.5C 850.791,368.123 852.791,369.957 854.5,372C 854.355,372.772 854.022,373.439 853.5,374C 849.759,373.919 846.092,374.085 842.5,374.5C 839.952,374.735 838.286,373.735 837.5,371.5 Z"/></g>
<g><path style="opacity:1" fill="#836d81" d="M 871.5,366.5 C 869.856,366.286 868.356,366.62 867,367.5C 866.814,369.9 866.314,372.234 865.5,374.5C 864.345,371.554 864.179,368.554 865,365.5C 867.17,365.388 869.336,365.722 871.5,366.5 Z"/></g>
<g><path style="opacity:1" fill="#644b2a" d="M 888.5,367.5 C 889.468,369.607 889.802,371.941 889.5,374.5C 888.833,374.167 888.167,373.833 887.5,373.5C 887.804,372.85 888.137,372.183 888.5,371.5C 886.955,370.548 885.288,370.215 883.5,370.5C 885.531,370.028 887.198,369.028 888.5,367.5 Z"/></g>
<g><path style="opacity:1" fill="#787996" d="M 907.5,365.5 C 913.853,365.453 914.02,366.119 908,367.5C 907.667,369.167 907.333,370.833 907,372.5C 905.03,370.037 905.196,367.703 907.5,365.5 Z"/></g>
<g><path style="opacity:1" fill="#4d4993" d="M 916.5,366.5 C 917.043,366.56 917.376,366.893 917.5,367.5C 916.902,368.795 916.402,370.128 916,371.5C 915.36,369.735 915.527,368.068 916.5,366.5 Z"/></g>
<g><path style="opacity:1" fill="#094a96" d="M 927.5,365.5 C 928.289,365.783 928.956,366.283 929.5,367C 928.726,369.405 928.226,371.905 928,374.5C 927.502,371.518 927.335,368.518 927.5,365.5 Z"/></g>
<g><path style="opacity:1" fill="#2260ab" d="M 940.5,367.5 C 940.56,366.957 940.893,366.624 941.5,366.5C 942.652,369.106 942.818,371.773 942,374.5C 941.814,371.964 941.314,369.631 940.5,367.5 Z"/></g>
<g><path style="opacity:1" fill="#eef7f9" d="M 883.5,370.5 C 885.288,370.215 886.955,370.548 888.5,371.5C 888.137,372.183 887.804,372.85 887.5,373.5C 886.167,373.5 884.833,373.5 883.5,373.5C 883.5,372.5 883.5,371.5 883.5,370.5 Z"/></g>
<g><path style="opacity:1" fill="#865959" d="M 883.5,370.5 C 883.5,371.5 883.5,372.5 883.5,373.5C 884.833,373.5 886.167,373.5 887.5,373.5C 886.081,374.451 884.415,374.784 882.5,374.5C 882.232,372.901 882.566,371.568 883.5,370.5 Z"/></g>
<g><path style="opacity:1" fill="#3d313a" d="M 916.5,373.5 C 916.56,372.957 916.893,372.624 917.5,372.5C 918.795,373.098 920.128,373.598 921.5,374C 919.735,374.64 918.068,374.473 916.5,373.5 Z"/></g>
<g><path style="opacity:1" fill="#9aa0aa" d="M 814.5,375.5 C 814.56,374.957 814.893,374.624 815.5,374.5C 818.22,376.111 821.22,376.944 824.5,377C 820.794,379.075 817.461,378.575 814.5,375.5 Z"/></g>
<g><path style="opacity:1" fill="#4b92ff" d="M 1119.5,435.5 C 1128.3,435.154 1133.13,439.154 1134,447.5C 1130.37,453.158 1125.21,455.325 1118.5,454C 1107.78,447.304 1108.11,441.138 1119.5,435.5 Z"/></g>
<g><path style="opacity:1" fill="#ebf2ff" d="M 1120.5,437.5 C 1126.34,437.332 1130.34,439.998 1132.5,445.5C 1125.93,454.814 1119.27,454.814 1112.5,445.5C 1114.34,441.931 1117.01,439.264 1120.5,437.5 Z"/></g>
<g><path style="opacity:1" fill="#458fff" d="M 1119.5,440.5 C 1125.34,439.518 1128.17,441.851 1128,447.5C 1124.67,451.5 1121.33,451.5 1118,447.5C 1117.17,444.829 1117.67,442.496 1119.5,440.5 Z"/></g>
<g><path style="opacity:1" fill="#f0f6ff" d="M 1122.5,441.5 C 1124.72,441.559 1125.72,442.725 1125.5,445C 1125.74,447.259 1124.74,448.426 1122.5,448.5C 1121,448.547 1120,447.881 1119.5,446.5C 1121.3,445.305 1122.3,443.638 1122.5,441.5 Z"/></g>
<g><path style="opacity:1" fill="#3685c5" d="M 796.5,444.5 C 796.56,443.957 796.893,443.624 797.5,443.5C 798.652,446.106 798.818,448.773 798,451.5C 797.814,448.964 797.314,446.631 796.5,444.5 Z"/></g>
<g><path style="opacity:1" fill="#62a6e3" d="M 808.5,444.5 C 808.56,443.957 808.893,443.624 809.5,443.5C 810.652,446.106 810.818,448.773 810,451.5C 809.814,448.964 809.314,446.631 808.5,444.5 Z"/></g>
<g><path style="opacity:1" fill="#4791ce" d="M 790.5,443.5 C 791.239,443.369 791.906,443.536 792.5,444C 791.726,446.405 791.226,448.905 791,451.5C 790.503,448.854 790.336,446.187 790.5,443.5 Z"/></g>
<g><path style="opacity:1" fill="#e5e7eb" d="M 1157.5,418.5 C 1158.19,417.226 1159.02,417.226 1160,418.5C 1160.67,436.167 1160.67,453.833 1160,471.5C 1159.5,472 1159,472.5 1158.5,473C 1023.83,473.667 889.167,473.667 754.5,473C 753.238,470.505 753.571,470.172 755.5,472C 889.5,472.667 1023.5,472.667 1157.5,472C 1158,471.5 1158.5,471 1159,470.5C 1159.67,453.833 1159.67,437.167 1159,420.5C 1158.72,419.584 1158.22,418.918 1157.5,418.5 Z"/></g>
<g><path style="opacity:1" fill="#2b85ff" d="M 755.5,493.5 C 889.5,493.333 1023.5,493.5 1157.5,494C 1158.67,494.5 1159.5,495.333 1160,496.5C 1160.67,509.5 1160.67,522.5 1160,535.5C 1159.5,536.667 1158.67,537.5 1157.5,538C 1023.5,538.667 889.5,538.667 755.5,538C 754.333,537.5 753.5,536.667 753,535.5C 752.333,522.5 752.333,509.5 753,496.5C 753.698,495.309 754.531,494.309 755.5,493.5 Z"/></g>
<g><path style="opacity:1" fill="#ddebff" d="M 944.5,513.5 C 951.94,512.753 953.94,515.587 950.5,522C 942.749,523.091 940.749,520.258 944.5,513.5 Z"/></g>
<g><path style="opacity:1" fill="#e1ecff" d="M 955.5,513.5 C 958.167,513.5 960.833,513.5 963.5,513.5C 963.665,516.85 963.498,520.183 963,523.5C 961.124,526.428 958.624,527.094 955.5,525.5C 954.479,524.998 954.312,524.332 955,523.5C 957.518,525.028 959.685,524.694 961.5,522.5C 959.014,522.919 956.514,522.252 954,520.5C 953.167,517.829 953.667,515.496 955.5,513.5 Z"/></g>
<g><path style="opacity:1" fill="#dde0ff" d="M 966.5,513.5 C 967.765,514.514 968.431,516.014 968.5,518C 968.167,519.5 967.833,521 967.5,522.5C 966.516,519.572 966.183,516.572 966.5,513.5 Z"/></g>
<g><path style="opacity:1" fill="#d2e8ff" d="M 970.5,513.5 C 978.687,511.685 981.687,514.685 979.5,522.5C 978.686,520.234 978.186,517.9 978,515.5C 976.062,514.14 974.396,514.473 973,516.5C 972.808,518.577 972.308,520.577 971.5,522.5C 970.516,519.572 970.183,516.572 970.5,513.5 Z"/></g>
<g><path style="opacity:1" fill="#3e89ff" d="M 945.5,514.5 C 948.233,514.196 949.899,515.363 950.5,518C 948.449,522.634 946.449,522.634 944.5,518C 944.648,516.744 944.982,515.577 945.5,514.5 Z"/></g>
<g><path style="opacity:1" fill="#3888ff" d="M 956.5,514.5 C 961.159,514.015 962.492,515.848 960.5,520C 955.728,520.81 954.395,518.977 956.5,514.5 Z"/></g>
<g><path style="opacity:1" fill="#e9f3ff" d="M 933.5,510.5 C 935.414,513.684 936.08,517.351 935.5,521.5C 937.857,521.337 940.19,521.503 942.5,522C 939.518,522.498 936.518,522.665 933.5,522.5C 933.5,518.5 933.5,514.5 933.5,510.5 Z"/></g>
<g><path style="opacity:1" fill="#e7c890" d="M 796.5,578.5 C 797.117,578.611 797.617,578.944 798,579.5C 798.333,576.5 798.667,573.5 799,570.5C 799.667,574.5 799.667,578.5 799,582.5C 797.519,581.529 796.685,580.196 796.5,578.5 Z"/></g>
<g><path style="opacity:1" fill="#500046" d="M 790.5,570.5 C 791.289,570.783 791.956,571.283 792.5,572C 791.707,575.411 791.207,578.911 791,582.5C 790.501,578.514 790.334,574.514 790.5,570.5 Z"/></g>
<g><path style="opacity:1" fill="#61314b" d="M 815.5,571.5 C 816.534,572.687 817.867,573.52 819.5,574C 818.552,574.483 817.552,574.649 816.5,574.5C 816.662,576.527 816.495,578.527 816,580.5C 815.933,577.953 815.099,575.786 813.5,574C 814.756,573.583 815.423,572.75 815.5,571.5 Z"/></g>
<g><path style="opacity:1" fill="#7090ff" d="M 974.5,573.5 C 976.199,573.34 977.866,573.506 979.5,574C 978.584,574.374 977.75,574.874 977,575.5C 976.814,577.9 976.314,580.234 975.5,582.5C 974.516,579.572 974.183,576.572 974.5,573.5 Z"/></g>
<g><path style="opacity:1" fill="#6e93ff" d="M 1002.5,571.5 C 1004.08,572.382 1005.75,573.215 1007.5,574C 1006.55,574.483 1005.55,574.649 1004.5,574.5C 1004.5,576.5 1004.5,578.5 1004.5,580.5C 1005.68,580.281 1006.68,580.614 1007.5,581.5C 1005.99,582.747 1004.49,582.747 1003,581.5C 1002.77,578.905 1002.27,576.405 1001.5,574C 1002.25,573.329 1002.59,572.496 1002.5,571.5 Z"/></g>
<g><path style="opacity:1" fill="#3988ff" d="M 1035.5,573.5 C 1037.9,573.437 1040.4,573.77 1043,574.5C 1043.67,577.167 1043.67,579.833 1043,582.5C 1042.67,580.167 1042.33,577.833 1042,575.5C 1040.06,574.14 1038.4,574.473 1037,576.5C 1036.67,578.5 1036.33,580.5 1036,582.5C 1035.5,579.518 1035.34,576.518 1035.5,573.5 Z"/></g>
<g><path style="opacity:1" fill="#3988ff" d="M 1107.5,573.5 C 1109.9,573.437 1112.4,573.77 1115,574.5C 1115.67,577.167 1115.67,579.833 1115,582.5C 1114.67,580.167 1114.33,577.833 1114,575.5C 1112.06,574.14 1110.4,574.473 1109,576.5C 1108.67,578.5 1108.33,580.5 1108,582.5C 1107.5,579.518 1107.34,576.518 1107.5,573.5 Z"/></g>
<g><path style="opacity:1" fill="#6195ff" d="M 1119.5,571.5 C 1120.93,572.082 1122.26,572.915 1123.5,574C 1120.83,576.667 1120.83,579.333 1123.5,582C 1122.22,582.684 1121.05,582.517 1120,581.5C 1119.97,578.633 1119.14,576.133 1117.5,574C 1118.76,573.583 1119.42,572.75 1119.5,571.5 Z"/></g>
<g><path style="opacity:1" fill="#bf8b64" d="M 796.5,578.5 C 794.243,577.438 793.077,575.772 793,573.5C 794.802,574.789 795.969,576.456 796.5,578.5 Z"/></g>
<g><path style="opacity:1" fill="#a26e1e" d="M 871.5,574.5 C 870.532,576.607 870.198,578.941 870.5,581.5C 869.79,579.107 869.123,576.607 868.5,574C 869.126,573.25 869.626,572.416 870,571.5C 870.772,572.849 871.939,573.682 873.5,574C 872.906,574.464 872.239,574.631 871.5,574.5 Z"/></g>
<g><path style="opacity:1" fill="#517baa" d="M 871.5,574.5 C 871.042,577.394 871.709,579.894 873.5,582C 872.251,582.74 871.251,582.573 870.5,581.5C 870.198,578.941 870.532,576.607 871.5,574.5 Z"/></g>
<g><path style="opacity:1" fill="#a26e1e" d="M 942.5,574.5 C 941.532,576.607 941.198,578.941 941.5,581.5C 940.79,579.107 940.123,576.607 939.5,574C 940.126,573.25 940.626,572.416 941,571.5C 941.772,572.849 942.939,573.682 944.5,574C 943.906,574.464 943.239,574.631 942.5,574.5 Z"/></g>
<g><path style="opacity:1" fill="#517baa" d="M 942.5,574.5 C 942.042,577.394 942.709,579.894 944.5,582C 943.251,582.74 942.251,582.573 941.5,581.5C 941.198,578.941 941.532,576.607 942.5,574.5 Z"/></g>
<g><path style="opacity:1" fill="#4b0351" d="M 910.5,574.5 C 911.302,573.048 911.802,571.382 912,569.5C 912.667,573.833 912.667,578.167 912,582.5C 911.728,579.746 911.228,577.079 910.5,574.5 Z"/></g>
<g><path style="opacity:1" fill="#6191ff" d="M 964.5,570.5 C 967.397,570.125 970.063,570.625 972.5,572C 965.579,569.923 962.745,572.423 964,579.5C 966.333,580.833 968.667,580.833 971,579.5C 971.5,580 972,580.5 972.5,581C 964.758,584.248 961.258,581.748 962,573.5C 962.698,572.309 963.531,571.309 964.5,570.5 Z"/></g>
<g><path style="opacity:1" fill="#6693ff" d="M 982.5,573.5 C 984.527,573.338 986.527,573.505 988.5,574C 989.38,575.356 989.714,576.856 989.5,578.5C 980.384,578.563 980.384,579.397 989.5,581C 987.386,582.518 985.053,582.851 982.5,582C 979.899,579.17 979.899,576.337 982.5,573.5 Z"/></g>
<g><path style="opacity:1" fill="#edebff" d="M 983.5,574.5 C 985.484,574.383 987.15,575.05 988.5,576.5C 986.5,577.833 984.5,577.833 982.5,576.5C 982.863,575.817 983.196,575.15 983.5,574.5 Z"/></g>
<g><path style="opacity:1" fill="#757b9d" d="M 805.5,573.5 C 811.853,573.453 812.02,574.119 806,575.5C 805.667,577.167 805.333,578.833 805,580.5C 803.266,578.137 803.433,575.804 805.5,573.5 Z"/></g>
<g><path style="opacity:1" fill="#084a94" d="M 827.5,573.5 C 828.289,573.783 828.956,574.283 829.5,575C 828.726,577.405 828.226,579.905 828,582.5C 827.502,579.518 827.335,576.518 827.5,573.5 Z"/></g>
<g><path style="opacity:1" fill="#49465e" d="M 833.5,575.5 C 836.01,578.061 838.51,578.061 841,575.5C 841.483,576.448 841.649,577.448 841.5,578.5C 838.606,578.042 836.106,578.709 834,580.5C 833.506,578.866 833.34,577.199 833.5,575.5 Z"/></g>
<g><path style="opacity:1" fill="#737393" d="M 850.5,574.5 C 846.241,574.102 844.408,576.102 845,580.5C 842.949,578.191 843.116,576.024 845.5,574C 847.387,573.22 849.054,573.387 850.5,574.5 Z"/></g>
<g><path style="opacity:1" fill="#515064" d="M 860.5,574.5 C 861.749,576.136 863.416,577.303 865.5,578C 862.074,579.238 860.408,578.071 860.5,574.5 Z"/></g>
<g><path style="opacity:1" fill="#705d60" d="M 882.5,574.5 C 884.176,575.183 884.843,576.517 884.5,578.5C 881.753,578.187 879.086,578.52 876.5,579.5C 877.506,580.396 877.506,581.062 876.5,581.5C 875.369,579.926 875.202,578.259 876,576.5C 878.041,577.423 880.208,577.756 882.5,577.5C 882.5,576.5 882.5,575.5 882.5,574.5 Z"/></g>
<g><path style="opacity:1" fill="#084a94" d="M 887.5,573.5 C 888.289,573.783 888.956,574.283 889.5,575C 888.726,577.405 888.226,579.905 888,582.5C 887.502,579.518 887.335,576.518 887.5,573.5 Z"/></g>
<g><path style="opacity:1" fill="#49465e" d="M 893.5,575.5 C 896.01,578.061 898.51,578.061 901,575.5C 901.483,576.448 901.649,577.448 901.5,578.5C 898.606,578.042 896.106,578.709 894,580.5C 893.506,578.866 893.34,577.199 893.5,575.5 Z"/></g>
<g><path style="opacity:1" fill="#767998" d="M 910.5,574.5 C 906.241,574.102 904.408,576.102 905,580.5C 902.949,578.191 903.116,576.024 905.5,574C 907.387,573.22 909.054,573.387 910.5,574.5 Z"/></g>
<g><path style="opacity:1" fill="#534a57" d="M 929.5,575.5 C 932.01,578.061 934.51,578.061 937,575.5C 937.692,576.025 938.192,576.692 938.5,577.5C 935.634,578.208 932.8,578.875 930,579.5C 929.51,578.207 929.343,576.873 929.5,575.5 Z"/></g>
<g><path style="opacity:1" fill="#588eff" d="M 1029.5,581.5 C 1027.98,582.735 1026.32,582.735 1024.5,581.5C 1023.27,580.349 1023.27,579.183 1024.5,578C 1026.58,577.808 1028.58,577.308 1030.5,576.5C 1030.29,575.914 1029.96,575.414 1029.5,575C 1027.58,574.821 1025.91,574.654 1024.5,574.5C 1031.67,572.677 1034.01,575.344 1031.5,582.5C 1030.82,582.137 1030.15,581.804 1029.5,581.5 Z"/></g>
<g><path style="opacity:1" fill="#5a8eff" d="M 1055.5,570.5 C 1056.5,570.414 1057.33,570.748 1058,571.5C 1060.16,575.119 1061.32,578.785 1061.5,582.5C 1060.61,581.675 1060.28,580.675 1060.5,579.5C 1057.83,579.5 1055.17,579.5 1052.5,579.5C 1052.72,580.675 1052.39,581.675 1051.5,582.5C 1051.17,582.167 1050.83,581.833 1050.5,581.5C 1051.91,577.688 1053.57,574.022 1055.5,570.5 Z"/></g>
<g><path style="opacity:1" fill="#e9ebff" d="M 1055.5,572.5 C 1057.54,573.911 1058.54,575.911 1058.5,578.5C 1057.17,578.5 1055.83,578.5 1054.5,578.5C 1054.83,576.5 1055.17,574.5 1055.5,572.5 Z"/></g>
<g><path style="opacity:1" fill="#f0f0ff" d="M 1029.5,581.5 C 1027.65,581.778 1026.32,581.111 1025.5,579.5C 1027.17,578.167 1028.83,578.167 1030.5,579.5C 1030.14,580.183 1029.8,580.85 1029.5,581.5 Z"/></g>
<g><path style="opacity:1" fill="#5c8fff" d="M 991.5,573.5 C 994.119,573.232 996.619,573.565 999,574.5C 999.497,577.146 999.664,579.813 999.5,582.5C 996.881,582.768 994.381,582.435 992,581.5C 991.316,580.216 991.483,579.049 992.5,578C 994.256,577.798 995.922,577.298 997.5,576.5C 996.252,574.31 994.586,573.977 992.5,575.5C 991.702,575.043 991.369,574.376 991.5,573.5 Z"/></g>
<g><path style="opacity:1" fill="#eff4ff" d="M 993.5,578.5 C 994.978,578.238 996.311,578.571 997.5,579.5C 996.081,581.915 994.415,582.081 992.5,580C 993.056,579.617 993.389,579.117 993.5,578.5 Z"/></g>
<g><path style="opacity:1" fill="#6e92ff" d="M 1065.5,573.5 C 1068.07,573.148 1070.41,573.648 1072.5,575C 1070.26,574.681 1068.09,574.848 1066,575.5C 1065.28,580.111 1067.11,581.945 1071.5,581C 1065.65,583.822 1063.15,581.989 1064,575.5C 1064.72,574.956 1065.22,574.289 1065.5,573.5 Z"/></g>
<g><path style="opacity:1" fill="#6e92ff" d="M 1075.5,573.5 C 1078.07,573.148 1080.41,573.648 1082.5,575C 1080.26,574.681 1078.09,574.848 1076,575.5C 1075.28,580.111 1077.11,581.945 1081.5,581C 1075.65,583.822 1073.15,581.989 1074,575.5C 1074.72,574.956 1075.22,574.289 1075.5,573.5 Z"/></g>
<g><path style="opacity:1" fill="#5a0b1c" d="M 850.5,574.5 C 851.117,574.389 851.617,574.056 852,573.5C 852.667,576.833 852.667,580.167 852,583.5C 851.741,580.413 851.241,577.413 850.5,574.5 Z"/></g>
<g><path style="opacity:1" fill="#5f6286" d="M 922.5,578.5 C 923.218,580.246 924.218,580.912 925.5,580.5C 923.712,583.905 922.712,583.238 922.5,578.5 Z"/></g>
<g><path style="opacity:1" fill="#6693ff" d="M 1010.5,573.5 C 1014.85,572.533 1017.18,574.2 1017.5,578.5C 1009.11,578.772 1008.78,579.606 1016.5,581C 1012.41,583.588 1009.74,582.588 1008.5,578C 1008.52,576.167 1009.19,574.667 1010.5,573.5 Z"/></g>
<g><path style="opacity:1" fill="#f4f3ff" d="M 1011.5,574.5 C 1013.35,574.222 1014.68,574.889 1015.5,576.5C 1013.83,577.833 1012.17,577.833 1010.5,576.5C 1010.86,575.817 1011.2,575.15 1011.5,574.5 Z"/></g>
<g><path style="opacity:1" fill="#578dff" d="M 1085.5,573.5 C 1092.68,572.985 1094.34,575.818 1090.5,582C 1083.42,582.475 1081.75,579.642 1085.5,573.5 Z"/></g>
<g><path style="opacity:1" fill="#f4f2ff" d="M 1086.5,574.5 C 1091.49,574.997 1092.49,577.164 1089.5,581C 1088.22,581.684 1087.05,581.517 1086,580.5C 1085.32,578.402 1085.49,576.402 1086.5,574.5 Z"/></g>
<g><path style="opacity:1" fill="#8097ff" d="M 1095.5,573.5 C 1096.47,575.607 1096.8,577.941 1096.5,580.5C 1098.17,580.5 1099.83,580.5 1101.5,580.5C 1101.19,578.076 1101.53,575.743 1102.5,573.5C 1103.65,576.446 1103.82,579.446 1103,582.5C 1100.77,582.626 1098.43,582.293 1096,581.5C 1095.5,578.854 1095.34,576.187 1095.5,573.5 Z"/></g>
<g><path style="opacity:1" fill="#3d2d34" d="M 930.5,581.5 C 930.56,580.957 930.893,580.624 931.5,580.5C 932.795,581.098 934.128,581.598 935.5,582C 933.735,582.64 932.068,582.473 930.5,581.5 Z"/></g>
</svg>
