<?xml version="1.0" encoding="UTF-8"?>
<!DOCTYPE svg PUBLIC "-//W3C//DTD SVG 1.1//EN" "http://www.w3.org/Graphics/SVG/1.1/DTD/svg11.dtd">
<svg xmlns="http://www.w3.org/2000/svg" version="1.1" width="1918px" height="862px" style="shape-rendering:geometricPrecision; text-rendering:geometricPrecision; image-rendering:optimizeQuality; fill-rule:evenodd; clip-rule:evenodd" xmlns:xlink="http://www.w3.org/1999/xlink">
<g><path style="opacity:1" fill="#fefefe" d="M -0.5,-0.5 C 638.833,-0.5 1278.17,-0.5 1917.5,-0.5C 1917.5,26.1667 1917.5,52.8333 1917.5,79.5C 1278.17,79.5 638.833,79.5 -0.5,79.5C -0.5,52.8333 -0.5,26.1667 -0.5,-0.5 Z"/></g>
<g><path style="opacity:1" fill="#eff3f7" d="M 1707.5,9.5 C 1731.99,9.15114 1743.82,21.1511 1743,45.5C 1737.57,62.9209 1725.74,70.7543 1707.5,69C 1690.09,63.5774 1682.26,51.7441 1684,33.5C 1687.35,20.9853 1695.18,12.9853 1707.5,9.5 Z"/></g>
<g><path style="opacity:1" fill="#f0f4f8" d="M 697.5,15.5 C 827.5,15.3333 957.5,15.5 1087.5,16C 1089.67,16.8333 1091.17,18.3333 1092,20.5C 1092.67,33.1667 1092.67,45.8333 1092,58.5C 1091.17,60.6667 1089.67,62.1667 1087.5,63C 957.5,63.6667 827.5,63.6667 697.5,63C 695.333,62.1667 693.833,60.6667 693,58.5C 692.333,45.8333 692.333,33.1667 693,20.5C 694.025,18.313 695.525,16.6464 697.5,15.5 Z"/></g>
<g><path style="opacity:1" fill="#000000" d="M 1761.5,17.5 C 1761.5,21.8333 1761.5,26.1667 1761.5,30.5C 1764.06,30.1984 1766.39,30.5318 1768.5,31.5C 1765.83,31.5 1763.17,31.5 1760.5,31.5C 1760.18,26.6367 1760.51,21.97 1761.5,17.5 Z"/></g>
<g><path style="opacity:1" fill="#232323" d="M 1771.5,16.5 C 1773.34,16.6395 1773.67,17.3061 1772.5,18.5C 1771.7,18.0431 1771.37,17.3764 1771.5,16.5 Z"/></g>
<g><path style="opacity:1" fill="#060606" d="M 1791.5,16.5 C 1793.34,21.1524 1793.51,26.1524 1792,31.5C 1791.5,26.5111 1791.33,21.5111 1791.5,16.5 Z"/></g>
<g><path style="opacity:1" fill="#363636" d="M 1810.5,17.5 C 1814.09,20.2588 1817.25,23.5921 1820,27.5C 1820.18,24.1182 1820.68,20.7848 1821.5,17.5C 1822.83,22.1667 1822.83,26.8333 1821.5,31.5C 1818.48,28.3135 1815.65,24.9802 1813,21.5C 1812.82,24.8818 1812.32,28.2152 1811.5,31.5C 1810.51,26.8804 1810.17,22.2137 1810.5,17.5 Z"/></g>
<g><path style="opacity:1" fill="#414141" d="M 1777.5,21.5 C 1786.19,19.8573 1789.19,23.1906 1786.5,31.5C 1785.68,28.8929 1785.18,26.2263 1785,23.5C 1783.33,22.1667 1781.67,22.1667 1780,23.5C 1779.82,26.2263 1779.32,28.8929 1778.5,31.5C 1777.51,28.2317 1777.18,24.8984 1777.5,21.5 Z"/></g>
<g><path style="opacity:1" fill="#3f3f3f" d="M 1852.5,21.5 C 1853.38,21.3691 1854.04,21.7025 1854.5,22.5C 1855.5,24.5101 1856.5,26.5101 1857.5,28.5C 1858.5,26.5101 1859.5,24.5101 1860.5,22.5C 1861.17,21.1667 1861.83,21.1667 1862.5,22.5C 1860.7,25.9393 1859.03,29.4393 1857.5,33C 1855.82,35.6762 1853.82,36.0096 1851.5,34C 1852.83,33.6667 1854.17,33.3333 1855.5,33C 1856.02,32.4387 1856.36,31.772 1856.5,31C 1855.02,27.8695 1853.68,24.7029 1852.5,21.5 Z"/></g>
<g><path style="opacity:1" fill="#363636" d="M 1794.5,22.5 C 1796.82,21.0584 1798.98,21.3918 1801,23.5C 1800.99,34.1668 1800.33,34.1668 1799,23.5C 1797.64,22.6198 1796.14,22.2865 1794.5,22.5 Z"/></g>
<g><path style="opacity:1" fill="#2d2d2d" d="M 1865.5,21.5 C 1867.86,21.3367 1870.19,21.5034 1872.5,22C 1873.38,23.3561 1873.71,24.8561 1873.5,26.5C 1863.06,27.1404 1863.06,28.3071 1873.5,30C 1868.37,32.853 1865.04,31.5197 1863.5,26C 1863.52,24.167 1864.19,22.667 1865.5,21.5 Z"/></g>
<g><path style="opacity:1" fill="#eaeaea" d="M 1866.5,22.5 C 1868.98,22.0508 1870.98,22.7175 1872.5,24.5C 1870.17,25.8333 1867.83,25.8333 1865.5,24.5C 1865.86,23.8165 1866.2,23.1499 1866.5,22.5 Z"/></g>
<g><path style="opacity:1" fill="#474747" d="M 1876.5,20.5 C 1879.72,21.0295 1882.88,21.6962 1886,22.5C 1886.82,25.5541 1886.65,28.5541 1885.5,31.5C 1884.52,28.5719 1884.18,25.5719 1884.5,22.5C 1882.53,22.2606 1880.7,22.5939 1879,23.5C 1878.82,26.2263 1878.32,28.8929 1877.5,31.5C 1876.51,27.8927 1876.18,24.226 1876.5,20.5 Z"/></g>
<g><path style="opacity:1" fill="#5b5b5b" d="M 1761.5,17.5 C 1762.48,21.2984 1762.82,25.2984 1762.5,29.5C 1764.92,29.1924 1767.26,29.5258 1769.5,30.5C 1769.38,31.1067 1769.04,31.44 1768.5,31.5C 1766.39,30.5318 1764.06,30.1984 1761.5,30.5C 1761.5,26.1667 1761.5,21.8333 1761.5,17.5 Z"/></g>
<g><path style="opacity:1" fill="#1f1f1f" d="M 1840.5,21.5 C 1841.31,23.631 1841.81,25.9644 1842,28.5C 1844,29.8333 1846,29.8333 1848,28.5C 1848.33,26.1667 1848.67,23.8333 1849,21.5C 1849.67,24.8333 1849.67,28.1667 1849,31.5C 1846.57,31.5234 1844.07,31.1901 1841.5,30.5C 1840.52,27.5719 1840.18,24.5719 1840.5,21.5 Z"/></g>
<g><path style="opacity:1" fill="#7c7c7c" d="M 45.5,48.5 C 45.6661,42.8236 45.4994,37.1569 45,31.5C 44.8238,35.6877 44.3238,39.6877 43.5,43.5C 43.5,39.1667 43.5,34.8333 43.5,30.5C 44.5,30.5 45.5,30.5 46.5,30.5C 46.8229,36.69 46.4896,42.69 45.5,48.5 Z"/></g>
<g><path style="opacity:1" fill="#1f1f1f" d="M 67.5,32.5 C 69.0481,32.8212 69.7148,33.8212 69.5,35.5C 74.8333,36.1667 74.8333,36.8333 69.5,37.5C 69.5,40.5 69.5,43.5 69.5,46.5C 70.9778,46.238 72.3112,46.5713 73.5,47.5C 71.3886,48.8485 69.5553,48.5152 68,46.5C 67.9632,42.9111 67.1299,39.5778 65.5,36.5C 66.8532,35.4763 67.5198,34.143 67.5,32.5 Z"/></g>
<g><path style="opacity:1" fill="#020617" d="M 1702.5,32.5 C 1702.5,36.8333 1702.5,41.1667 1702.5,45.5C 1705.06,45.1984 1707.39,45.5318 1709.5,46.5C 1706.83,46.5 1704.17,46.5 1701.5,46.5C 1701.18,41.6367 1701.51,36.97 1702.5,32.5 Z"/></g>
<g><path style="opacity:1" fill="#9eacbf" d="M 1058.5,31.5 C 1067.02,30.0197 1070.35,33.353 1068.5,41.5C 1069.48,42.9814 1070.65,44.3147 1072,45.5C 1072.75,46.635 1072.58,47.635 1071.5,48.5C 1069.63,44.247 1066.63,42.9137 1062.5,44.5C 1057.83,44.5 1055.5,42.1667 1055.5,37.5C 1055.63,35.0452 1056.63,33.0452 1058.5,31.5 Z"/></g>
<g><path style="opacity:1" fill="#e9eef3" d="M 1059.5,33.5 C 1065.5,32.3327 1068,34.6661 1067,40.5C 1062.61,43.6136 1059.45,42.7803 1057.5,38C 1057.52,36.167 1058.19,34.667 1059.5,33.5 Z"/></g>
<g><path style="opacity:1" fill="#383838" d="M 1834.5,20.5 C 1835.79,22.0478 1836.46,24.0478 1836.5,26.5C 1837.5,33.6713 1834.5,36.5046 1827.5,35C 1826.55,34.2825 1826.38,33.4491 1827,32.5C 1829.06,33.5914 1831.23,33.7581 1833.5,33C 1834.52,31.9505 1834.68,30.7839 1834,29.5C 1827.83,31.9901 1825.17,29.9901 1826,23.5C 1828.71,22.0035 1831.55,21.0035 1834.5,20.5 Z"/></g>
<g><path style="opacity:1" fill="#eeeeee" d="M 1828.5,22.5 C 1833.89,21.5548 1835.56,23.5548 1833.5,28.5C 1827.74,30.2121 1826.07,28.2121 1828.5,22.5 Z"/></g>
<g><path style="opacity:1" fill="#2a2e3b" d="M 1713.5,32.5 C 1717.17,35.3325 1720.33,38.6659 1723,42.5C 1723.33,39.1667 1723.67,35.8333 1724,32.5C 1724.67,37.1667 1724.67,41.8333 1724,46.5C 1721.57,43.3119 1718.9,40.3119 1716,37.5C 1715.82,40.5535 1715.32,43.5535 1714.5,46.5C 1713.51,41.8804 1713.17,37.2137 1713.5,32.5 Z"/></g>
<g><path style="opacity:1" fill="#758499" d="M 1027.5,34.5 C 1029.13,35.6253 1030.63,36.9586 1032,38.5C 1036.82,34.4861 1037.32,34.8195 1033.5,39.5C 1037.48,45.5244 1036.98,45.8578 1032,40.5C 1027.02,45.8578 1026.52,45.5244 1030.5,39.5C 1029.05,38.0603 1028.05,36.3936 1027.5,34.5 Z"/></g>
<g><path style="opacity:1" fill="#1d1d1d" d="M 79.5,35.5 C 85.1878,34.531 88.1878,36.8643 88.5,42.5C 85.1667,42.5 81.8333,42.5 78.5,42.5C 78.33,43.8221 78.6634,44.9887 79.5,46C 82.3315,46.2121 84.9982,46.3787 87.5,46.5C 83.0534,49.5643 79.2201,48.8977 76,44.5C 74.9804,40.5532 76.1471,37.5532 79.5,35.5 Z"/></g>
<g><path style="opacity:1" fill="#d6d6d6" d="M 79.5,37.5 C 81.5273,37.3379 83.5273,37.5045 85.5,38C 86.3366,39.0113 86.67,40.1779 86.5,41.5C 83.4281,41.8174 80.4281,41.4841 77.5,40.5C 78.1925,39.4822 78.8592,38.4822 79.5,37.5 Z"/></g>
<g><path style="opacity:1" fill="#a8abae" d="M 731.5,36.5 C 735.349,36.0193 737.349,37.686 737.5,41.5C 735.473,41.3379 733.473,41.5045 731.5,42C 732.623,43.0437 733.956,43.7104 735.5,44C 729.403,44.1475 728.07,41.6475 731.5,36.5 Z"/></g>
<g><path style="opacity:1" fill="#161616" d="M 43.5,43.5 C 44.3238,39.6877 44.8238,35.6877 45,31.5C 45.4994,37.1569 45.6661,42.8236 45.5,48.5C 41.85,44.5734 38.1833,40.5734 34.5,36.5C 33.8333,40.5 33.1667,44.5 32.5,48.5C 31.1667,42.8333 31.1667,37.1667 32.5,31.5C 36.1886,35.5201 39.8553,39.5201 43.5,43.5 Z"/></g>
<g><path style="opacity:1" fill="#606264" d="M 720.5,33.5 C 721.643,36.9758 721.81,40.6425 721,44.5C 719.461,43.4542 719.295,42.1209 720.5,40.5C 717.376,36.4466 715.209,37.1132 714,42.5C 713.314,37.5163 715.314,35.8496 720,37.5C 720.49,36.2068 720.657,34.8734 720.5,33.5 Z"/></g>
<g><path style="opacity:1" fill="#5c5e5f" d="M 724.5,36.5 C 725.289,36.7828 725.956,37.2828 726.5,38C 725.736,40.0693 725.236,42.236 725,44.5C 724.503,41.854 724.336,39.1873 724.5,36.5 Z"/></g>
<g><path style="opacity:1" fill="#1b1b1b" d="M 92.5,35.5 C 95.2469,35.1866 97.9135,35.52 100.5,36.5C 98.2573,37.4742 95.924,37.8076 93.5,37.5C 93.281,38.675 93.6143,39.675 94.5,40.5C 96.5,41.1667 98.5,41.8333 100.5,42.5C 101.916,46.6915 100.249,48.6915 95.5,48.5C 93.5191,48.5629 91.8524,47.8962 90.5,46.5C 93.319,46.2577 96.319,46.2577 99.5,46.5C 99.719,45.325 99.3857,44.325 98.5,43.5C 92.1718,43.8554 90.1718,41.1888 92.5,35.5 Z"/></g>
<g><path style="opacity:1" fill="#575b67" d="M 1702.5,32.5 C 1703.48,36.2984 1703.82,40.2984 1703.5,44.5C 1705.92,44.1924 1708.26,44.5258 1710.5,45.5C 1710.38,46.1067 1710.04,46.44 1709.5,46.5C 1707.39,45.5318 1705.06,45.1984 1702.5,45.5C 1702.5,41.1667 1702.5,36.8333 1702.5,32.5 Z"/></g>
<g><path style="opacity:1" fill="#1d1d1d" d="M 53.5,35.5 C 62.8075,34.9533 65.4742,38.7866 61.5,47C 53.2463,50.0813 49.7463,47.2479 51,38.5C 52.045,37.6266 52.8783,36.6266 53.5,35.5 Z"/></g>
<g><path style="opacity:1" fill="#f1f1f1" d="M 53.5,37.5 C 60.9974,36.8038 62.9974,39.6372 59.5,46C 52.7813,46.7259 50.7813,43.8925 53.5,37.5 Z"/></g>
<g><path style="opacity:1" fill="#687281" d="M 1804.5,60.5 C 1807.87,54.8549 1806.21,52.1883 1799.5,52.5C 1802.07,50.0361 1804.57,50.3695 1807,53.5C 1808.08,56.6939 1807.25,59.0272 1804.5,60.5 Z"/></g>
<g><path style="opacity:1" fill="#6f7887" d="M 1774.5,50.5 C 1781.99,51.8052 1783.32,55.3052 1778.5,61C 1773.16,61.9888 1770.66,59.8222 1771,54.5C 1771.69,52.6498 1772.86,51.3164 1774.5,50.5 Z"/></g>
<g><path style="opacity:1" fill="#f8f8f9" d="M 1773.5,52.5 C 1779.24,51.8213 1780.9,54.1546 1778.5,59.5C 1772.8,60.4458 1771.14,58.1125 1773.5,52.5 Z"/></g>
<g><path style="opacity:1" fill="#f4f4f6" d="M 1799.5,52.5 C 1806.21,52.1883 1807.87,54.8549 1804.5,60.5C 1798.81,60.4344 1797.14,57.7677 1799.5,52.5 Z"/></g>
<g><path style="opacity:1" fill="#505c6d" d="M 1824.5,48.5 C 1825.66,49.6114 1826.99,50.6114 1828.5,51.5C 1827.68,52.3857 1826.68,52.719 1825.5,52.5C 1825.34,54.8568 1825.5,57.1902 1826,59.5C 1826.75,60.1258 1827.58,60.6258 1828.5,61C 1827.22,61.6838 1826.05,61.5171 1825,60.5C 1824.94,57.2369 1824.1,54.2369 1822.5,51.5C 1823.61,50.7348 1824.28,49.7348 1824.5,48.5 Z"/></g>
<g><path style="opacity:1" fill="#5c6777" d="M 1799.5,52.5 C 1797.14,57.7677 1798.81,60.4344 1804.5,60.5C 1798.65,62.1503 1796.49,59.817 1798,53.5C 1798.38,52.944 1798.88,52.6107 1799.5,52.5 Z"/></g>
<g><path style="opacity:1" fill="#586373" d="M 1810.5,51.5 C 1811.31,53.631 1811.81,55.9644 1812,58.5C 1814,61.1667 1816,61.1667 1818,58.5C 1818.33,56.1667 1818.67,53.8333 1819,51.5C 1819.67,54.8333 1819.67,58.1667 1819,61.5C 1817.03,61.3744 1814.86,61.2078 1812.5,61C 1810.66,58.1737 1809.99,55.0071 1810.5,51.5 Z"/></g>
<g><path style="opacity:1" fill="#3c495c" d="M 1760.5,47.5 C 1761.48,51.6344 1761.82,55.9677 1761.5,60.5C 1764.19,60.3359 1766.85,60.5026 1769.5,61C 1766.52,61.498 1763.52,61.6646 1760.5,61.5C 1760.5,56.8333 1760.5,52.1667 1760.5,47.5 Z"/></g>
<g><path style="opacity:1" fill="#808895" d="M 1791.5,52.5 C 1792.12,52.3893 1792.62,52.056 1793,51.5C 1793.67,55.5 1793.67,59.5 1793,63.5C 1790.85,65.4439 1788.35,65.9439 1785.5,65C 1784.3,64.3457 1784.3,63.8457 1785.5,63.5C 1787.9,65.0622 1789.9,64.7288 1791.5,62.5C 1785.8,61.9758 1783.3,58.9758 1784,53.5C 1786.24,50.0126 1788.74,49.6793 1791.5,52.5 Z"/></g>
<g><path style="opacity:1" fill="#f7f7f8" d="M 1791.5,52.5 C 1793.93,57.972 1792.26,60.1387 1786.5,59C 1784.79,57.8668 1784.29,56.3668 1785,54.5C 1786.79,52.771 1788.96,52.1043 1791.5,52.5 Z"/></g>
<g><path style="opacity:1" fill="#334155" d="M 1758.5,62.5 C 1766.2,62.1692 1773.86,62.5025 1781.5,63.5C 1777.67,63.8333 1773.83,64.1667 1770,64.5C 1765.77,64.4898 1761.94,63.8232 1758.5,62.5 Z"/></g>
<g><path style="opacity:1" fill="#354356" d="M 1795.5,62.5 C 1807.19,62.1678 1818.85,62.5011 1830.5,63.5C 1824.67,63.8333 1818.83,64.1667 1813,64.5C 1806.79,64.4958 1800.96,63.8291 1795.5,62.5 Z"/></g>
<g><path style="opacity:1" fill="#8ebd2e" d="M -0.5,80.5 C -0.5,80.1667 -0.5,79.8333 -0.5,79.5C 638.833,79.5 1278.17,79.5 1917.5,79.5C 1917.5,79.8333 1917.5,80.1667 1917.5,80.5C 1278.17,81.8333 638.833,81.8333 -0.5,80.5 Z"/></g>
<g><path style="opacity:1" fill="#96c730" d="M -0.5,80.5 C 638.833,81.8333 1278.17,81.8333 1917.5,80.5C 1917.5,81.5 1917.5,82.5 1917.5,83.5C 1278.17,83.5 638.833,83.5 -0.5,83.5C -0.5,82.5 -0.5,81.5 -0.5,80.5 Z"/></g>
<g><path style="opacity:1" fill="#99cc31" d="M -0.5,83.5 C 638.833,83.5 1278.17,83.5 1917.5,83.5C 1917.5,342.833 1917.5,602.167 1917.5,861.5C 1278.17,861.5 638.833,861.5 -0.5,861.5C -0.5,602.167 -0.5,342.833 -0.5,83.5 Z"/></g>
<g><path style="opacity:1" fill="#020300" d="M 968.5,459.5 C 932.182,460.454 895.849,460.787 859.5,460.5C 852.083,459.863 847.583,455.863 846,448.5C 845.333,368.5 845.333,288.5 846,208.5C 847.461,204.74 849.961,201.907 853.5,200C 888.083,198.84 922.75,198.34 957.5,198.5C 992.879,198.346 1028.21,198.846 1063.5,200C 1066.47,201.765 1068.64,204.265 1070,207.5C 1070.67,251.5 1070.67,295.5 1070,339.5C 1061.33,351.5 1052.67,351.5 1044,339.5C 1043.83,301.929 1043.33,264.429 1042.5,227C 986.501,226.5 930.501,226.333 874.5,226.5C 874.5,295.167 874.5,363.833 874.5,432.5C 905.875,432.038 937.208,432.538 968.5,434C 976.56,438.367 978.726,444.867 975,453.5C 973.549,456.303 971.382,458.303 968.5,459.5 Z"/></g>
<g><path style="opacity:1" fill="#000100" d="M 913.5,254.5 C 943.169,254.333 972.835,254.5 1002.5,255C 1015.09,259.054 1017.93,266.887 1011,278.5C 1009.2,280.317 1007.03,281.484 1004.5,282C 973.5,282.667 942.5,282.667 911.5,282C 902.516,276.871 900.349,269.704 905,260.5C 907.234,257.399 910.067,255.399 913.5,254.5 Z"/></g>
<g><path style="opacity:1" fill="#020200" d="M 912.5,310.5 C 942.835,310.333 973.168,310.5 1003.5,311C 1015.01,315.9 1017.51,323.733 1011,334.5C 1009.07,336.038 1006.9,337.205 1004.5,338C 973.5,338.667 942.5,338.667 911.5,338C 902.477,332.929 900.31,325.762 905,316.5C 907.114,313.879 909.614,311.879 912.5,310.5 Z"/></g>
<g><path style="opacity:1" fill="#060702" d="M 912.5,366.5 C 924.895,366.082 937.228,366.582 949.5,368C 959.211,373.434 961.044,380.934 955,390.5C 952.707,392.372 950.207,393.872 947.5,395C 935.096,395.939 922.762,395.606 910.5,394C 902.199,388.482 900.365,381.316 905,372.5C 907.478,370.361 909.978,368.361 912.5,366.5 Z"/></g>
<g><path style="opacity:1" fill="#010200" d="M 1004.5,367.5 C 1008.97,367.133 1013.3,367.633 1017.5,369C 1025.71,377.543 1034.21,385.71 1043,393.5C 1051.54,384.288 1060.71,375.788 1070.5,368C 1086.96,366.794 1092.46,373.961 1087,389.5C 1078.79,397.375 1070.96,405.542 1063.5,414C 1071.99,423.155 1080.49,432.321 1089,441.5C 1090.47,457.029 1083.64,462.862 1068.5,459C 1060.29,450.457 1051.79,442.29 1043,434.5C 1034.18,442.654 1025.35,450.821 1016.5,459C 1000.47,461.971 994.306,455.471 998,439.5C 1005.82,430.675 1013.99,422.175 1022.5,414C 1014.01,404.845 1005.51,395.679 997,386.5C 994.552,378.081 997.052,371.747 1004.5,367.5 Z"/></g>
<g><path style="opacity:1" fill="#698c22" d="M 968.5,459.5 C 967.048,460.302 965.382,460.802 963.5,461C 928.664,461.831 893.998,461.664 859.5,460.5C 895.849,460.787 932.182,460.454 968.5,459.5 Z"/></g>
<g><path style="opacity:1" fill="#545b4d" d="M 1005.5,515.5 C 1007.18,516.183 1007.84,517.517 1007.5,519.5C 1014.2,519.216 1016.2,522.216 1013.5,528.5C 1012.69,526.234 1012.19,523.9 1012,521.5C 1010.67,520.167 1009.33,520.167 1008,521.5C 1007.81,523.9 1007.31,526.234 1006.5,528.5C 1005.51,524.217 1005.17,519.884 1005.5,515.5 Z"/></g>
<g><path style="opacity:1" fill="#334154" d="M 1144.5,520.5 C 1143.77,523.079 1143.27,525.746 1143,528.5C 1142.33,524.167 1142.33,519.833 1143,515.5C 1143.2,517.382 1143.7,519.048 1144.5,520.5 Z"/></g>
<g><path style="opacity:1" fill="#4d564e" d="M 903.5,515.5 C 907.838,515.622 908.172,515.955 904.5,516.5C 904.36,518.124 905.027,519.29 906.5,520C 904.98,522.54 903.98,525.373 903.5,528.5C 901.695,523.942 901.695,519.608 903.5,515.5 Z"/></g>
<g><path style="opacity:1" fill="#53534d" d="M 1017.5,515.5 C 1019.34,515.639 1019.67,516.306 1018.5,517.5C 1017.7,517.043 1017.37,516.376 1017.5,515.5 Z"/></g>
<g><path style="opacity:1" fill="#474e50" d="M 764.5,516.5 C 773.24,515.717 775.907,519.217 772.5,527C 766.648,529.905 762.981,528.239 761.5,522C 761.863,519.808 762.863,517.974 764.5,516.5 Z"/></g>
<g><path style="opacity:1" fill="#3a4353" d="M 989.5,517.5 C 990.534,518.687 991.867,519.52 993.5,520C 992.552,520.483 991.552,520.649 990.5,520.5C 990.338,522.527 990.505,524.527 991,526.5C 991.75,527.126 992.584,527.626 993.5,528C 992.216,528.684 991.049,528.517 990,527.5C 989.971,524.633 989.138,522.133 987.5,520C 988.756,519.583 989.423,518.75 989.5,517.5 Z"/></g>
<g><path style="opacity:1" fill="#94c634" d="M 766.5,517.5 C 771.989,517.504 773.822,520.171 772,525.5C 767.43,528.633 764.597,527.466 763.5,522C 763.557,519.791 764.557,518.291 766.5,517.5 Z"/></g>
<g><path style="opacity:1" fill="#4f584b" d="M 808.5,516.5 C 809.748,517.334 810.415,518.667 810.5,520.5C 810.167,521.833 809.833,523.167 809.5,524.5C 808.52,521.914 808.187,519.247 808.5,516.5 Z"/></g>
<g><path style="opacity:1" fill="#444f4f" d="M 778.5,519.5 C 785.486,519.331 787.153,522.164 783.5,528C 776.416,528.475 774.749,525.642 778.5,519.5 Z"/></g>
<g><path style="opacity:1" fill="#434951" d="M 861.5,519.5 C 868.486,519.331 870.153,522.164 866.5,528C 859.416,528.475 857.749,525.642 861.5,519.5 Z"/></g>
<g><path style="opacity:1" fill="#455051" d="M 978.5,519.5 C 980.792,519.244 982.959,519.577 985,520.5C 985.497,523.146 985.664,525.813 985.5,528.5C 982.881,528.768 980.381,528.435 978,527.5C 977.316,526.216 977.483,525.049 978.5,524C 980.577,523.808 982.577,523.308 984.5,522.5C 983.034,520.343 981.2,520.01 979,521.5C 978.536,520.906 978.369,520.239 978.5,519.5 Z"/></g>
<g><path style="opacity:1" fill="#4a6047" d="M 1017.5,519.5 C 1018.76,520.514 1019.43,522.014 1019.5,524C 1019.17,525.5 1018.83,527 1018.5,528.5C 1017.52,525.572 1017.18,522.572 1017.5,519.5 Z"/></g>
<g><path style="opacity:1" fill="#4c5150" d="M 1056.5,523.5 C 1056.24,526.016 1055.41,528.35 1054,530.5C 1052.61,531.554 1051.11,531.72 1049.5,531C 1051.29,530.804 1052.62,529.971 1053.5,528.5C 1052.57,525.47 1051.23,522.637 1049.5,520C 1050.33,519.312 1051,519.479 1051.5,520.5C 1052.25,522.332 1053.25,523.999 1054.5,525.5C 1055.18,524.757 1055.85,524.091 1056.5,523.5 Z"/></g>
<g><path style="opacity:1" fill="#4e524f" d="M 1077.5,527.5 C 1075.51,528.887 1073.68,528.553 1072,526.5C 1072.01,517.166 1072.67,517.166 1074,526.5C 1075.01,527.337 1076.18,527.67 1077.5,527.5 Z"/></g>
<g><path style="opacity:1" fill="#4b504c" d="M 1077.5,527.5 C 1078.07,524.853 1078.74,522.187 1079.5,519.5C 1080.65,522.446 1080.82,525.446 1080,528.5C 1079.33,527.748 1078.5,527.414 1077.5,527.5 Z"/></g>
<g><path style="opacity:1" fill="#595c4e" d="M 1083.5,519.5 C 1085.2,519.34 1086.87,519.506 1088.5,520C 1087.58,520.374 1086.75,520.874 1086,521.5C 1085.81,523.9 1085.31,526.234 1084.5,528.5C 1083.52,525.572 1083.18,522.572 1083.5,519.5 Z"/></g>
<g><path style="opacity:1" fill="#414851" d="M 1133.5,519.5 C 1135.75,519.181 1137.75,519.681 1139.5,521C 1136.21,519.654 1133.88,520.654 1132.5,524C 1133.51,527.281 1135.51,528.115 1138.5,526.5C 1139.7,526.846 1139.7,527.346 1138.5,528C 1131.42,528.475 1129.75,525.642 1133.5,519.5 Z"/></g>
<g><path style="opacity:1" fill="#3e4a51" d="M 788.5,519.5 C 790.642,519.69 792.975,519.856 795.5,520C 798.167,522.667 798.167,525.333 795.5,528C 793.559,528.743 791.726,528.576 790,527.5C 789.667,528.833 789.333,530.167 789,531.5C 788.501,527.514 788.334,523.514 788.5,519.5 Z"/></g>
<g><path style="opacity:1" fill="#464853" d="M 818.5,516.5 C 821.755,518.926 824.588,521.926 827,525.5C 827.333,522.5 827.667,519.5 828,516.5C 828.667,520.5 828.667,524.5 828,528.5C 825.099,525.688 822.432,522.688 820,519.5C 819.667,522.5 819.333,525.5 819,528.5C 818.501,524.514 818.334,520.514 818.5,516.5 Z"/></g>
<g><path style="opacity:1" fill="#334154" d="M 850.5,520.5 C 849.772,523.079 849.272,525.746 849,528.5C 848.333,525.5 848.333,522.5 849,519.5C 849.383,520.056 849.883,520.389 850.5,520.5 Z"/></g>
<g><path style="opacity:1" fill="#4d544f" d="M 962.5,520.5 C 966.051,520.426 969.717,520.259 973.5,520C 975.65,522.555 975.983,525.388 974.5,528.5C 973.786,525.973 973.12,523.473 972.5,521C 971.216,520.316 970.049,520.483 969,521.5C 968,530.833 967,530.833 966,521.5C 964.989,520.663 963.822,520.33 962.5,520.5 Z"/></g>
<g><path style="opacity:1" fill="#4d4d4f" d="M 1056.5,523.5 C 1056.31,521.897 1056.81,520.563 1058,519.5C 1058.35,521.14 1057.85,522.473 1056.5,523.5 Z"/></g>
<g><path style="opacity:1" fill="#364453" d="M 1125.5,519.5 C 1126.71,520.189 1128.04,520.355 1129.5,520C 1127.12,522.226 1125.95,525.059 1126,528.5C 1125.5,525.518 1125.34,522.518 1125.5,519.5 Z"/></g>
<g><path style="opacity:1" fill="#90c235" d="M 779.5,520.5 C 783.473,521.075 784.473,523.242 782.5,527C 777.382,526.824 776.382,524.658 779.5,520.5 Z"/></g>
<g><path style="opacity:1" fill="#8fc135" d="M 791.5,520.5 C 795.473,521.075 796.473,523.242 794.5,527C 789.395,526.751 788.395,524.584 791.5,520.5 Z"/></g>
<g><path style="opacity:1" fill="#424952" d="M 800.5,519.5 C 802.199,519.34 803.866,519.506 805.5,520C 799.004,521.562 799.171,523.062 806,524.5C 806.684,525.784 806.517,526.951 805.5,528C 803.421,528.808 801.421,528.641 799.5,527.5C 801.565,527.738 803.565,527.238 805.5,526C 803.781,524.943 801.947,524.11 800,523.5C 799.421,522.072 799.588,520.738 800.5,519.5 Z"/></g>
<g><path style="opacity:1" fill="#354253" d="M 850.5,520.5 C 852.223,519.193 854.057,519.193 856,520.5C 856.667,523.167 856.667,525.833 856,528.5C 855.667,526.167 855.333,523.833 855,521.5C 853.644,520.62 852.144,520.286 850.5,520.5 Z"/></g>
<g><path style="opacity:1" fill="#8fbe37" d="M 862.5,520.5 C 867.493,520.997 868.493,523.164 865.5,527C 860.382,526.824 859.382,524.658 862.5,520.5 Z"/></g>
<g><path style="opacity:1" fill="#525850" d="M 871.5,517.5 C 872.931,518.082 874.264,518.915 875.5,520C 873.709,522.106 873.042,524.606 873.5,527.5C 874.552,527.351 875.552,527.517 876.5,528C 874.888,528.72 873.388,528.554 872,527.5C 871.774,524.905 871.274,522.405 870.5,520C 871.252,519.329 871.586,518.496 871.5,517.5 Z"/></g>
<g><path style="opacity:1" fill="#354253" d="M 1144.5,520.5 C 1146.22,519.193 1148.06,519.193 1150,520.5C 1150.67,523.167 1150.67,525.833 1150,528.5C 1149.67,526.167 1149.33,523.833 1149,521.5C 1147.64,520.62 1146.14,520.286 1144.5,520.5 Z"/></g>
<g><path style="opacity:1" fill="#554553" d="M 931.5,519.5 C 939.064,518.09 941.564,521.09 939,528.5C 938.667,526.167 938.333,523.833 938,521.5C 936.062,520.14 934.396,520.473 933,522.5C 932.667,524.5 932.333,526.5 932,528.5C 931.502,525.518 931.335,522.518 931.5,519.5 Z"/></g>
<g><path style="opacity:1" fill="#33414e" d="M 962.5,520.5 C 961.772,523.079 961.272,525.746 961,528.5C 960.333,525.5 960.333,522.5 961,519.5C 961.383,520.056 961.883,520.389 962.5,520.5 Z"/></g>
<g><path style="opacity:1" fill="#554553" d="M 1022.5,519.5 C 1030.06,518.09 1032.56,521.09 1030,528.5C 1029.67,526.167 1029.33,523.833 1029,521.5C 1027.06,520.14 1025.4,520.473 1024,522.5C 1023.67,524.5 1023.33,526.5 1023,528.5C 1022.5,525.518 1022.34,522.518 1022.5,519.5 Z"/></g>
<g><path style="opacity:1" fill="#4b544f" d="M 1061.5,519.5 C 1068.72,518.688 1070.72,521.355 1067.5,527.5C 1060.15,528.792 1058.15,526.125 1061.5,519.5 Z"/></g>
<g><path style="opacity:1" fill="#90c136" d="M 1062.5,520.5 C 1067.24,520.161 1068.57,522.161 1066.5,526.5C 1063.85,527.842 1062.18,527.008 1061.5,524C 1061.65,522.744 1061.98,521.577 1062.5,520.5 Z"/></g>
<g><path style="opacity:1" fill="#4c5350" d="M 1119.5,527.5 C 1119.8,526.85 1120.14,526.183 1120.5,525.5C 1118.95,524.548 1117.29,524.215 1115.5,524.5C 1117.04,523.837 1118.71,523.17 1120.5,522.5C 1120.29,521.914 1119.96,521.414 1119.5,521C 1117.69,521.046 1116.02,520.88 1114.5,520.5C 1121.67,518.677 1124.01,521.344 1121.5,528.5C 1120.82,528.137 1120.15,527.804 1119.5,527.5 Z"/></g>
<g><path style="opacity:1" fill="#424a51" d="M 879.5,519.5 C 883.851,518.533 886.185,520.2 886.5,524.5C 883.813,524.336 881.146,524.503 878.5,525C 880.394,527.524 882.727,528.19 885.5,527C 881.408,529.588 878.741,528.588 877.5,524C 877.519,522.167 878.185,520.667 879.5,519.5 Z"/></g>
<g><path style="opacity:1" fill="#8fc035" d="M 880.5,520.5 C 882.346,520.222 883.68,520.889 884.5,522.5C 882.579,523.641 880.579,523.808 878.5,523C 879.381,522.292 880.047,521.458 880.5,520.5 Z"/></g>
<g><path style="opacity:1" fill="#48544f" d="M 1095.5,519.5 C 1097.6,519.201 1099.6,519.534 1101.5,520.5C 1100,520.478 1098.34,520.811 1096.5,521.5C 1097.99,523.012 1099.82,524.012 1102,524.5C 1102.42,527.328 1101.09,528.661 1098,528.5C 1093.4,526.914 1093.4,526.581 1098,527.5C 1099.06,527.37 1099.89,526.87 1100.5,526C 1099,524.885 1097.33,524.052 1095.5,523.5C 1094.37,522.192 1094.37,520.858 1095.5,519.5 Z"/></g>
<g><path style="opacity:1" fill="#48524f" d="M 888.5,520.5 C 890.742,522.471 893.076,524.305 895.5,526C 895.355,526.772 895.022,527.439 894.5,528C 892.421,528.808 890.421,528.641 888.5,527.5C 889.887,527.193 891.554,527.193 893.5,527.5C 893.5,526.5 893.5,525.5 893.5,524.5C 890.05,525.244 888.384,523.91 888.5,520.5 Z"/></g>
<g><path style="opacity:1" fill="#94c138" d="M 979.5,524.5 C 981.288,524.215 982.955,524.548 984.5,525.5C 982.039,528.423 980.372,528.089 979.5,524.5 Z"/></g>
<g><path style="opacity:1" fill="#8dc035" d="M 1115.5,524.5 C 1117.29,524.215 1118.95,524.548 1120.5,525.5C 1120.14,526.183 1119.8,526.85 1119.5,527.5C 1117.03,527.912 1115.69,526.912 1115.5,524.5 Z"/></g>
<g><path style="opacity:1" fill="#47504f" d="M 1040.5,520.5 C 1041.15,520.196 1041.82,519.863 1042.5,519.5C 1043.66,522.784 1043.82,526.118 1043,529.5C 1040.44,531.65 1037.61,531.983 1034.5,530.5C 1036.5,530.653 1038.67,530.32 1041,529.5C 1041.17,529.167 1041.33,528.833 1041.5,528.5C 1039.58,527.692 1037.58,527.192 1035.5,527C 1032.83,524.667 1032.83,522.333 1035.5,520C 1037.39,519.22 1039.05,519.387 1040.5,520.5 Z"/></g>
<g><path style="opacity:1" fill="#94c635" d="M 1040.5,520.5 C 1042.61,524.977 1041.27,526.81 1036.5,526C 1034.51,521.848 1035.84,520.015 1040.5,520.5 Z"/></g>
<g><path style="opacity:1" fill="#4f4a53" d="M 919.5,519.5 C 922.08,530.044 924.58,530.044 927,519.5C 927.667,522.5 927.667,525.5 927,528.5C 925.355,528.307 923.521,528.14 921.5,528C 919.686,525.519 919.02,522.685 919.5,519.5 Z"/></g>
<g><path style="opacity:1" fill="#535052" d="M 949.5,520.5 C 950.302,519.048 950.802,517.382 951,515.5C 951.667,519.833 951.667,524.167 951,528.5C 949.026,528.374 946.859,528.208 944.5,528C 942.604,526.192 942.104,524.025 943,521.5C 945.016,519.392 947.183,519.058 949.5,520.5 Z"/></g>
<g><path style="opacity:1" fill="#90c136" d="M 949.5,520.5 C 951.542,524.915 950.209,527.082 945.5,527C 943.339,522.552 944.672,520.385 949.5,520.5 Z"/></g>
<g><path style="opacity:1" fill="#404a51" d="M 997.5,519.5 C 999.75,519.181 1001.75,519.681 1003.5,521C 1000.21,519.654 997.878,520.654 996.5,524C 997.515,527.281 999.515,528.115 1002.5,526.5C 1003.7,526.846 1003.7,527.346 1002.5,528C 995.416,528.475 993.749,525.642 997.5,519.5 Z"/></g>
<g><path style="opacity:1" fill="#4e594f" d="M 1111.5,521.5 C 1112.4,522.209 1112.74,523.209 1112.5,524.5C 1103.19,525.012 1103.19,525.845 1112.5,527C 1106.23,530.226 1103.39,528.393 1104,521.5C 1106.62,518.86 1109.12,518.86 1111.5,521.5 Z"/></g>
<g><path style="opacity:1" fill="#90bc38" d="M 1111.5,521.5 C 1111.03,522.693 1110.03,523.36 1108.5,523.5C 1104.74,523.03 1104.57,522.03 1108,520.5C 1109.14,520.989 1110.31,521.322 1111.5,521.5 Z"/></g>
<g><path style="opacity:1" fill="#4a4d4f" d="M 808.5,526.5 C 810.337,526.639 810.67,527.306 809.5,528.5C 808.702,528.043 808.369,527.376 808.5,526.5 Z"/></g>
<g><path style="opacity:1" fill="#484e51" d="M 834.5,527.5 C 831.053,525.521 830.72,523.021 833.5,520C 839.667,518.167 841.833,520.333 840,526.5C 838.322,528.553 836.489,528.887 834.5,527.5 Z"/></g>
<g><path style="opacity:1" fill="#90c136" d="M 834.5,527.5 C 832.237,522.74 833.57,520.573 838.5,521C 840.31,525.033 838.976,527.2 834.5,527.5 Z"/></g>
<g><path style="opacity:1" fill="#484e51" d="M 910.5,527.5 C 907.053,525.521 906.72,523.021 909.5,520C 915.667,518.167 917.833,520.333 916,526.5C 914.322,528.553 912.489,528.887 910.5,527.5 Z"/></g>
<g><path style="opacity:1" fill="#90c136" d="M 910.5,527.5 C 908.237,522.74 909.57,520.573 914.5,521C 916.31,525.033 914.976,527.2 910.5,527.5 Z"/></g>
<g><path style="opacity:1" fill="#474a52" d="M 1115.5,524.5 C 1115.69,526.912 1117.03,527.912 1119.5,527.5C 1118.4,528.598 1117.07,528.765 1115.5,528C 1114.21,526.708 1114.21,525.542 1115.5,524.5 Z"/></g>
<g><path style="opacity:1" fill="#3f5448" d="M 1153.5,526.5 C 1155.34,526.639 1155.67,527.306 1154.5,528.5C 1153.7,528.043 1153.37,527.376 1153.5,526.5 Z"/></g>
<g><path style="opacity:1" fill="#2b85fe" d="M 1803.5,738.5 C 1819.84,738.333 1836.17,738.5 1852.5,739C 1860.56,740.732 1865.73,745.565 1868,753.5C 1868.67,769.833 1868.67,786.167 1868,802.5C 1866.17,811 1861,816.167 1852.5,818C 1836.17,818.667 1819.83,818.667 1803.5,818C 1795.56,815.732 1790.73,810.565 1789,802.5C 1788.33,786.167 1788.33,769.833 1789,753.5C 1791.35,745.984 1796.18,740.984 1803.5,738.5 Z"/></g>
<g><path style="opacity:1" fill="#e3eeff" d="M 1826.5,766.5 C 1827.83,766.5 1829.17,766.5 1830.5,766.5C 1830.5,769.833 1830.5,773.167 1830.5,776.5C 1833.83,776.5 1837.17,776.5 1840.5,776.5C 1840.5,777.833 1840.5,779.167 1840.5,780.5C 1837.17,780.5 1833.83,780.5 1830.5,780.5C 1830.5,783.833 1830.5,787.167 1830.5,790.5C 1829.17,790.5 1827.83,790.5 1826.5,790.5C 1826.5,787.167 1826.5,783.833 1826.5,780.5C 1823.17,780.5 1819.83,780.5 1816.5,780.5C 1816.5,779.167 1816.5,777.833 1816.5,776.5C 1819.83,776.5 1823.17,776.5 1826.5,776.5C 1826.5,773.167 1826.5,769.833 1826.5,766.5 Z"/></g>
</svg>
