<?xml version="1.0" encoding="UTF-8"?>
<!DOCTYPE svg PUBLIC "-//W3C//DTD SVG 1.1//EN" "http://www.w3.org/Graphics/SVG/1.1/DTD/svg11.dtd">
<svg xmlns="http://www.w3.org/2000/svg" version="1.1" width="1916px" height="867px" style="shape-rendering:geometricPrecision; text-rendering:geometricPrecision; image-rendering:optimizeQuality; fill-rule:evenodd; clip-rule:evenodd" xmlns:xlink="http://www.w3.org/1999/xlink">
<g><path style="opacity:1" fill="#fefefe" d="M -0.5,-0.5 C 638.167,-0.5 1276.83,-0.5 1915.5,-0.5C 1915.5,24.5 1915.5,49.5 1915.5,74.5C 1276.83,74.5 638.167,74.5 -0.5,74.5C -0.5,49.5 -0.5,24.5 -0.5,-0.5 Z"/></g>
<g><path style="opacity:1" fill="#f0f4f8" d="M 1493.5,13.5 C 1623.5,13.3333 1753.5,13.5 1883.5,14C 1885.67,14.8333 1887.17,16.3333 1888,18.5C 1888.67,30.8333 1888.67,43.1667 1888,55.5C 1887.17,57.6667 1885.67,59.1667 1883.5,60C 1753.5,60.6667 1623.5,60.6667 1493.5,60C 1491.33,59.1667 1489.83,57.6667 1489,55.5C 1488.33,43.1667 1488.33,30.8333 1489,18.5C 1490.02,16.313 1491.52,14.6464 1493.5,13.5 Z"/></g>
<g><path style="opacity:1" fill="#7c7c7c" d="M 45.5,45.5 C 45.6661,39.8236 45.4994,34.1569 45,28.5C 44.8238,32.6877 44.3238,36.6877 43.5,40.5C 43.5,36.1667 43.5,31.8333 43.5,27.5C 44.5,27.5 45.5,27.5 46.5,27.5C 46.8229,33.69 46.4896,39.69 45.5,45.5 Z"/></g>
<g><path style="opacity:1" fill="#a0adc0" d="M 1853.5,28.5 C 1862.81,27.31 1866.14,31.1433 1863.5,40C 1865.35,41.6837 1867.02,43.5171 1868.5,45.5C 1867.64,46.5827 1866.64,46.7494 1865.5,46C 1864.31,44.647 1862.98,43.4803 1861.5,42.5C 1856.94,44.3223 1853.1,43.3223 1850,39.5C 1848.66,34.9597 1849.83,31.293 1853.5,28.5 Z"/></g>
<g><path style="opacity:1" fill="#1f1f1f" d="M 67.5,29.5 C 69.0481,29.8212 69.7148,30.8212 69.5,32.5C 74.8333,33.1667 74.8333,33.8333 69.5,34.5C 69.5,37.5 69.5,40.5 69.5,43.5C 70.9778,43.238 72.3112,43.5713 73.5,44.5C 71.3886,45.8485 69.5553,45.5152 68,43.5C 67.9632,39.9111 67.1299,36.5778 65.5,33.5C 66.8532,32.4763 67.5198,31.143 67.5,29.5 Z"/></g>
<g><path style="opacity:1" fill="#edf2f6" d="M 1854.5,30.5 C 1861.98,30.3083 1863.98,33.4749 1860.5,40C 1852.42,40.8047 1850.42,37.638 1854.5,30.5 Z"/></g>
<g><path style="opacity:1" fill="#161616" d="M 43.5,40.5 C 44.3238,36.6877 44.8238,32.6877 45,28.5C 45.4994,34.1569 45.6661,39.8236 45.5,45.5C 41.85,41.5734 38.1833,37.5734 34.5,33.5C 33.8333,37.5 33.1667,41.5 32.5,45.5C 31.1667,39.8333 31.1667,34.1667 32.5,28.5C 36.1886,32.5201 39.8553,36.5201 43.5,40.5 Z"/></g>
<g><path style="opacity:1" fill="#c2c8d0" d="M 1578.5,34.5 C 1583.88,34.4517 1585.55,36.9517 1583.5,42C 1576.68,42.8606 1575.02,40.3606 1578.5,34.5 Z"/></g>
<g><path style="opacity:1" fill="#cdd3da" d="M 1586.5,32.5 C 1588.44,33.5903 1590.27,34.9236 1592,36.5C 1594.46,33.8997 1596.96,33.8997 1599.5,36.5C 1601.6,34.4798 1603.93,34.1465 1606.5,35.5C 1605.93,36.2913 1605.1,36.2913 1604,35.5C 1602.74,35.8499 1602.41,36.5165 1603,37.5C 1608.9,39.578 1608.9,41.2447 1603,42.5C 1597.87,42.4811 1592.7,42.3144 1587.5,42C 1586.2,38.7844 1585.87,35.6177 1586.5,32.5 Z"/></g>
<g><path style="opacity:1" fill="#1b1b1b" d="M 92.5,32.5 C 95.2469,32.1866 97.9135,32.52 100.5,33.5C 98.2573,34.4742 95.924,34.8076 93.5,34.5C 93.281,35.675 93.6143,36.675 94.5,37.5C 96.5,38.1667 98.5,38.8333 100.5,39.5C 101.916,43.6915 100.249,45.6915 95.5,45.5C 93.5191,45.5629 91.8524,44.8962 90.5,43.5C 93.319,43.2577 96.319,43.2577 99.5,43.5C 99.719,42.325 99.3857,41.325 98.5,40.5C 92.1718,40.8554 90.1718,38.1888 92.5,32.5 Z"/></g>
<g><path style="opacity:1" fill="#1d1d1d" d="M 53.5,32.5 C 62.8075,31.9533 65.4742,35.7866 61.5,44C 53.2463,47.0813 49.7463,44.2479 51,35.5C 52.045,34.6266 52.8783,33.6266 53.5,32.5 Z"/></g>
<g><path style="opacity:1" fill="#f1f1f1" d="M 53.5,34.5 C 60.9974,33.8038 62.9974,36.6372 59.5,43C 52.7813,43.7259 50.7813,40.8925 53.5,34.5 Z"/></g>
<g><path style="opacity:1" fill="#1c1c1c" d="M 79.5,32.5 C 85.1878,31.531 88.1878,33.8643 88.5,39.5C 85.1667,39.5 81.8333,39.5 78.5,39.5C 78.33,40.8221 78.6634,41.9887 79.5,43C 82.3315,43.2121 84.9982,43.3787 87.5,43.5C 83.0534,46.5643 79.2201,45.8977 76,41.5C 74.9804,37.5532 76.1471,34.5532 79.5,32.5 Z"/></g>
<g><path style="opacity:1" fill="#d6d6d6" d="M 79.5,34.5 C 81.5273,34.3379 83.5273,34.5045 85.5,35C 86.3366,36.0113 86.67,37.1779 86.5,38.5C 83.4281,38.8174 80.4281,38.4841 77.5,37.5C 78.1925,36.4822 78.8592,35.4822 79.5,34.5 Z"/></g>
<g><path style="opacity:1" fill="#8ebd2e" d="M -0.5,75.5 C -0.5,75.1667 -0.5,74.8333 -0.5,74.5C 638.167,74.5 1276.83,74.5 1915.5,74.5C 1915.5,75.1667 1915.5,75.8333 1915.5,76.5C 1276.79,76.8326 638.127,76.4993 -0.5,75.5 Z"/></g>
<g><path style="opacity:1" fill="#96c730" d="M -0.5,75.5 C 638.127,76.4993 1276.79,76.8326 1915.5,76.5C 1915.5,77.1667 1915.5,77.8333 1915.5,78.5C 1276.83,78.5 638.167,78.5 -0.5,78.5C -0.5,77.5 -0.5,76.5 -0.5,75.5 Z"/></g>
<g><path style="opacity:1" fill="#99cc32" d="M -0.5,78.5 C 638.167,78.5 1276.83,78.5 1915.5,78.5C 1915.5,341.167 1915.5,603.833 1915.5,866.5C 1276.83,866.5 638.167,866.5 -0.5,866.5C -0.5,603.833 -0.5,341.167 -0.5,78.5 Z"/></g>
<g><path style="opacity:1" fill="#fefefe" d="M 719.5,637.5 C 719.333,497.833 719.5,358.166 720,218.5C 720.513,217.473 721.013,216.473 721.5,215.5C 879.706,214.168 1038.04,214.168 1196.5,215.5C 1197.19,216.025 1197.69,216.692 1198,217.5C 1198.67,357.5 1198.67,497.5 1198,637.5C 1197.5,638.667 1196.67,639.5 1195.5,640C 1037.5,640.667 879.5,640.667 721.5,640C 720.244,639.583 719.577,638.75 719.5,637.5 Z"/></g>
<g><path style="opacity:1" fill="#e4e7ea" d="M 721.5,215.5 C 721.013,216.473 720.513,217.473 720,218.5C 719.5,358.166 719.333,497.833 719.5,637.5C 718.334,497.667 718.167,357.667 719,217.5C 719.417,216.244 720.25,215.577 721.5,215.5 Z"/></g>
<g><path style="opacity:1" fill="#000000" d="M 758.5,274.5 C 759.49,280.645 759.823,286.978 759.5,293.5C 763.555,293.176 767.555,293.509 771.5,294.5C 767.217,295.492 762.884,295.826 758.5,295.5C 758.5,288.5 758.5,281.5 758.5,274.5 Z"/></g>
<g><path style="opacity:1" fill="#22151b" d="M 814.5,273.5 C 816.973,273.947 817.14,274.947 815,276.5C 814.517,275.552 814.351,274.552 814.5,273.5 Z"/></g>
<g><path style="opacity:1" fill="#322025" d="M 778.5,279.5 C 786.523,279.683 790.023,283.683 789,291.5C 784.044,296.674 779.211,296.674 774.5,291.5C 773.348,288.894 773.182,286.227 774,283.5C 775.667,282.267 777.167,280.933 778.5,279.5 Z"/></g>
<g><path style="opacity:1" fill="#43ff59" d="M 814.5,279.5 C 815.812,281.743 816.478,284.41 816.5,287.5C 816.167,290.167 815.833,292.833 815.5,295.5C 814.505,290.208 814.172,284.875 814.5,279.5 Z"/></g>
<g><path style="opacity:1" fill="#3c1d2a" d="M 822.5,279.5 C 823.931,279.881 824.764,280.881 825,282.5C 828.588,278.607 832.254,278.607 836,282.5C 836.156,299.796 835.323,299.796 833.5,282.5C 830.589,281.017 827.922,281.35 825.5,283.5C 824.833,287.5 824.167,291.5 823.5,295.5C 822.505,290.208 822.172,284.875 822.5,279.5 Z"/></g>
<g><path style="opacity:1" fill="#f5f5f2" d="M 778.5,281.5 C 787.818,281.655 789.818,285.488 784.5,293C 775.103,293.139 773.103,289.306 778.5,281.5 Z"/></g>
<g><path style="opacity:1" fill="#2b212c" d="M 797.5,279.5 C 800.862,279.07 803.695,280.07 806,282.5C 806.249,281.376 806.749,280.376 807.5,279.5C 808.664,285.472 808.83,291.472 808,297.5C 804.095,301.512 799.595,302.345 794.5,300C 793.209,296.975 793.876,296.641 796.5,299C 799.916,299.893 803.083,299.393 806,297.5C 806.667,295.833 806.667,294.167 806,292.5C 796.733,296.563 792.4,293.563 793,283.5C 794.397,281.93 795.897,280.596 797.5,279.5 Z"/></g>
<g><path style="opacity:1" fill="#f2f0eb" d="M 797.5,281.5 C 805.937,281.087 808.27,284.587 804.5,292C 796.685,294.522 793.518,291.689 795,283.5C 795.995,282.934 796.828,282.267 797.5,281.5 Z"/></g>
<g><path style="opacity:1" fill="#010101" d="M 756.5,337.5 C 890.834,337.333 1025.17,337.5 1159.5,338C 1162.23,338.398 1164.07,339.898 1165,342.5C 1165.67,359.833 1165.67,377.167 1165,394.5C 1164.5,397.667 1162.67,399.5 1159.5,400C 1025.17,400.667 890.833,400.667 756.5,400C 753.898,399.065 752.398,397.232 752,394.5C 751.333,377.167 751.333,359.833 752,342.5C 753.025,340.313 754.525,338.646 756.5,337.5 Z"/></g>
<g><path style="opacity:1" fill="#e4e6ea" d="M 1159.5,341.5 C 1024.79,341.17 890.126,341.503 755.5,342.5C 755.611,341.883 755.944,341.383 756.5,341C 891.001,340.167 1025.33,340.334 1159.5,341.5 Z"/></g>
<g><path style="opacity:1" fill="#fcfbfb" d="M 1159.5,341.5 C 1160.5,341.414 1161.33,341.748 1162,342.5C 1162.67,359.833 1162.67,377.167 1162,394.5C 1161.5,395.667 1160.67,396.5 1159.5,397C 1025.17,397.667 890.833,397.667 756.5,397C 755.874,396.25 755.374,395.416 755,394.5C 754.171,376.995 754.338,359.662 755.5,342.5C 890.126,341.503 1024.79,341.17 1159.5,341.5 Z"/></g>
<g><path style="opacity:1" fill="#74737d" d="M 817.5,365.5 C 817.611,364.883 817.944,364.383 818.5,364C 821.167,363.333 823.833,363.333 826.5,364C 823.456,364.363 820.456,364.863 817.5,365.5 Z"/></g>
<g><path style="opacity:1" fill="#61314b" d="M 859.5,364.5 C 860.534,365.687 861.867,366.52 863.5,367C 862.552,367.483 861.552,367.649 860.5,367.5C 860.662,369.527 860.495,371.527 860,373.5C 859.933,370.953 859.099,368.786 857.5,367C 858.756,366.583 859.423,365.75 859.5,364.5 Z"/></g>
<g><path style="opacity:1" fill="#a26e1e" d="M 835.5,367.5 C 834.532,369.607 834.198,371.941 834.5,374.5C 833.79,372.107 833.123,369.607 832.5,367C 833.126,366.25 833.626,365.416 834,364.5C 834.772,365.849 835.939,366.682 837.5,367C 836.906,367.464 836.239,367.631 835.5,367.5 Z"/></g>
<g><path style="opacity:1" fill="#517baa" d="M 835.5,367.5 C 835.042,370.394 835.709,372.894 837.5,375C 836.251,375.74 835.251,375.573 834.5,374.5C 834.198,371.941 834.532,369.607 835.5,367.5 Z"/></g>
<g><path style="opacity:1" fill="#3685c5" d="M 798.5,368.5 C 798.56,367.957 798.893,367.624 799.5,367.5C 800.652,370.106 800.818,372.773 800,375.5C 799.814,372.964 799.314,370.631 798.5,368.5 Z"/></g>
<g><path style="opacity:1" fill="#62a6e3" d="M 810.5,368.5 C 810.56,367.957 810.893,367.624 811.5,367.5C 812.652,370.106 812.818,372.773 812,375.5C 811.814,372.964 811.314,370.631 810.5,368.5 Z"/></g>
<g><path style="opacity:1" fill="#7a1810" d="M 873.5,367.5 C 874.239,367.369 874.906,367.536 875.5,368C 874.726,370.405 874.226,372.905 874,375.5C 873.503,372.854 873.336,370.187 873.5,367.5 Z"/></g>
<g><path style="opacity:1" fill="#5ea2df" d="M 890.5,368.5 C 890.56,367.957 890.893,367.624 891.5,367.5C 892.8,370.309 892.8,372.976 891.5,375.5C 891.802,372.941 891.468,370.607 890.5,368.5 Z"/></g>
<g><path style="opacity:1" fill="#344c8e" d="M 935.5,368.5 C 936.251,367.427 937.251,367.26 938.5,368C 937.726,370.405 937.226,372.905 937,375.5C 936.814,372.964 936.314,370.631 935.5,368.5 Z"/></g>
<g><path style="opacity:1" fill="#4791ce" d="M 792.5,367.5 C 793.239,367.369 793.906,367.536 794.5,368C 793.726,370.405 793.226,372.905 793,375.5C 792.503,372.854 792.336,370.187 792.5,367.5 Z"/></g>
<g><path style="opacity:1" fill="#8d6297" d="M 817.5,365.5 C 816.109,367.921 815.275,370.588 815,373.5C 813.834,370.073 814.668,367.407 817.5,365.5 Z"/></g>
<g><path style="opacity:1" fill="#5c4441" d="M 839.5,372.5 C 839.263,371.209 839.596,370.209 840.5,369.5C 842.863,371.002 845.03,370.668 847,368.5C 847.483,369.448 847.649,370.448 847.5,371.5C 844.721,371.279 842.054,371.612 839.5,372.5 Z"/></g>
<g><path style="opacity:1" fill="#b9b4b6" d="M 839.5,372.5 C 842.054,371.612 844.721,371.279 847.5,371.5C 847.649,370.448 847.483,369.448 847,368.5C 845.03,370.668 842.863,371.002 840.5,369.5C 840.414,368.504 840.748,367.671 841.5,367C 845.825,365.576 848.325,367.076 849,371.5C 849.219,370.062 849.719,368.729 850.5,367.5C 852.791,369.123 854.791,370.957 856.5,373C 856.355,373.772 856.022,374.439 855.5,375C 851.759,374.919 848.092,375.085 844.5,375.5C 841.952,375.735 840.286,374.735 839.5,372.5 Z"/></g>
<g><path style="opacity:1" fill="#836d81" d="M 873.5,367.5 C 871.856,367.286 870.356,367.62 869,368.5C 868.814,370.9 868.314,373.234 867.5,375.5C 866.345,372.554 866.179,369.554 867,366.5C 869.17,366.388 871.336,366.722 873.5,367.5 Z"/></g>
<g><path style="opacity:1" fill="#644b2a" d="M 890.5,368.5 C 891.468,370.607 891.802,372.941 891.5,375.5C 890.833,375.167 890.167,374.833 889.5,374.5C 889.804,373.85 890.137,373.183 890.5,372.5C 888.955,371.548 887.288,371.215 885.5,371.5C 887.531,371.028 889.198,370.028 890.5,368.5 Z"/></g>
<g><path style="opacity:1" fill="#787996" d="M 909.5,366.5 C 915.853,366.453 916.02,367.119 910,368.5C 909.667,370.167 909.333,371.833 909,373.5C 907.03,371.037 907.196,368.703 909.5,366.5 Z"/></g>
<g><path style="opacity:1" fill="#4d4993" d="M 918.5,367.5 C 919.043,367.56 919.376,367.893 919.5,368.5C 918.902,369.795 918.402,371.128 918,372.5C 917.36,370.735 917.527,369.068 918.5,367.5 Z"/></g>
<g><path style="opacity:1" fill="#094a96" d="M 929.5,366.5 C 930.289,366.783 930.956,367.283 931.5,368C 930.726,370.405 930.226,372.905 930,375.5C 929.502,372.518 929.335,369.518 929.5,366.5 Z"/></g>
<g><path style="opacity:1" fill="#2260ab" d="M 942.5,368.5 C 942.56,367.957 942.893,367.624 943.5,367.5C 944.652,370.106 944.818,372.773 944,375.5C 943.814,372.964 943.314,370.631 942.5,368.5 Z"/></g>
<g><path style="opacity:1" fill="#eef7f9" d="M 885.5,371.5 C 887.288,371.215 888.955,371.548 890.5,372.5C 890.137,373.183 889.804,373.85 889.5,374.5C 888.167,374.5 886.833,374.5 885.5,374.5C 885.5,373.5 885.5,372.5 885.5,371.5 Z"/></g>
<g><path style="opacity:1" fill="#865959" d="M 885.5,371.5 C 885.5,372.5 885.5,373.5 885.5,374.5C 886.833,374.5 888.167,374.5 889.5,374.5C 888.081,375.451 886.415,375.784 884.5,375.5C 884.232,373.901 884.566,372.568 885.5,371.5 Z"/></g>
<g><path style="opacity:1" fill="#3d313a" d="M 918.5,374.5 C 918.56,373.957 918.893,373.624 919.5,373.5C 920.795,374.098 922.128,374.598 923.5,375C 921.735,375.64 920.068,375.473 918.5,374.5 Z"/></g>
<g><path style="opacity:1" fill="#9aa0aa" d="M 816.5,376.5 C 816.56,375.957 816.893,375.624 817.5,375.5C 820.22,377.111 823.22,377.944 826.5,378C 822.794,380.075 819.461,379.575 816.5,376.5 Z"/></g>
<g><path style="opacity:1" fill="#afbaca" d="M 1112.5,436.5 C 1114.47,437.441 1116.47,438.441 1118.5,439.5C 1126.49,435.991 1132.16,438.324 1135.5,446.5C 1135.12,448.383 1134.12,449.883 1132.5,451C 1137.67,456.264 1137,456.764 1130.5,452.5C 1122.8,456.485 1117.13,454.485 1113.5,446.5C 1115.89,441.389 1116.55,441.389 1115.5,446.5C 1117.95,451.796 1121.95,453.629 1127.5,452C 1124.39,452.053 1121.89,450.886 1120,448.5C 1119.49,447.004 1119.99,445.837 1121.5,445C 1117.93,442.588 1114.93,439.755 1112.5,436.5 Z"/></g>
<g><path style="opacity:1" fill="#f7f8f9" d="M 1121.5,439.5 C 1128.11,438.695 1131.94,441.362 1133,447.5C 1132.31,448.357 1131.48,449.023 1130.5,449.5C 1130.57,442.889 1127.57,440.555 1121.5,442.5C 1120.44,441.575 1120.44,440.575 1121.5,439.5 Z"/></g>
<g><path style="opacity:1" fill="#244676" d="M 782.5,446.5 C 784.337,446.639 784.67,447.306 783.5,448.5C 782.702,448.043 782.369,447.376 782.5,446.5 Z"/></g>
<g><path style="opacity:1" fill="#281045" d="M 787.5,446.5 C 789.337,446.639 789.67,447.306 788.5,448.5C 787.702,448.043 787.369,447.376 787.5,446.5 Z"/></g>
<g><path style="opacity:1" fill="#281045" d="M 792.5,446.5 C 794.337,446.639 794.67,447.306 793.5,448.5C 792.702,448.043 792.369,447.376 792.5,446.5 Z"/></g>
<g><path style="opacity:1" fill="#301121" d="M 797.5,446.5 C 799.337,446.639 799.67,447.306 798.5,448.5C 797.702,448.043 797.369,447.376 797.5,446.5 Z"/></g>
<g><path style="opacity:1" fill="#e5e7eb" d="M 1159.5,419.5 C 1160.19,418.226 1161.02,418.226 1162,419.5C 1162.67,437.167 1162.67,454.833 1162,472.5C 1161.5,473 1161,473.5 1160.5,474C 1025.83,474.667 891.167,474.667 756.5,474C 755.238,471.505 755.571,471.172 757.5,473C 891.5,473.667 1025.5,473.667 1159.5,473C 1160,472.5 1160.5,472 1161,471.5C 1161.67,454.833 1161.67,438.167 1161,421.5C 1160.72,420.584 1160.22,419.918 1159.5,419.5 Z"/></g>
<g><path style="opacity:1" fill="#2b85ff" d="M 757.5,494.5 C 891.5,494.333 1025.5,494.5 1159.5,495C 1160.67,495.5 1161.5,496.333 1162,497.5C 1162.67,510.5 1162.67,523.5 1162,536.5C 1161.5,537.667 1160.67,538.5 1159.5,539C 1025.5,539.667 891.5,539.667 757.5,539C 756.333,538.5 755.5,537.667 755,536.5C 754.333,523.5 754.333,510.5 755,497.5C 755.698,496.309 756.531,495.309 757.5,494.5 Z"/></g>
<g><path style="opacity:1" fill="#ddebff" d="M 946.5,514.5 C 953.94,513.753 955.94,516.587 952.5,523C 944.749,524.091 942.749,521.258 946.5,514.5 Z"/></g>
<g><path style="opacity:1" fill="#e1ecff" d="M 957.5,514.5 C 960.167,514.5 962.833,514.5 965.5,514.5C 965.665,517.85 965.498,521.183 965,524.5C 963.124,527.428 960.624,528.094 957.5,526.5C 956.479,525.998 956.312,525.332 957,524.5C 959.518,526.028 961.685,525.694 963.5,523.5C 961.014,523.919 958.514,523.252 956,521.5C 955.167,518.829 955.667,516.496 957.5,514.5 Z"/></g>
<g><path style="opacity:1" fill="#dde0ff" d="M 968.5,514.5 C 969.765,515.514 970.431,517.014 970.5,519C 970.167,520.5 969.833,522 969.5,523.5C 968.516,520.572 968.183,517.572 968.5,514.5 Z"/></g>
<g><path style="opacity:1" fill="#d2e8ff" d="M 972.5,514.5 C 980.687,512.685 983.687,515.685 981.5,523.5C 980.686,521.234 980.186,518.9 980,516.5C 978.062,515.14 976.396,515.473 975,517.5C 974.808,519.577 974.308,521.577 973.5,523.5C 972.516,520.572 972.183,517.572 972.5,514.5 Z"/></g>
<g><path style="opacity:1" fill="#3e89ff" d="M 947.5,515.5 C 950.233,515.196 951.899,516.363 952.5,519C 950.449,523.634 948.449,523.634 946.5,519C 946.648,517.744 946.982,516.577 947.5,515.5 Z"/></g>
<g><path style="opacity:1" fill="#3888ff" d="M 958.5,515.5 C 963.159,515.015 964.492,516.848 962.5,521C 957.728,521.81 956.395,519.977 958.5,515.5 Z"/></g>
<g><path style="opacity:1" fill="#e9f3ff" d="M 935.5,511.5 C 937.414,514.684 938.08,518.351 937.5,522.5C 939.857,522.337 942.19,522.503 944.5,523C 941.518,523.498 938.518,523.665 935.5,523.5C 935.5,519.5 935.5,515.5 935.5,511.5 Z"/></g>
<g><path style="opacity:1" fill="#e7c890" d="M 798.5,579.5 C 799.117,579.611 799.617,579.944 800,580.5C 800.333,577.5 800.667,574.5 801,571.5C 801.667,575.5 801.667,579.5 801,583.5C 799.519,582.529 798.685,581.196 798.5,579.5 Z"/></g>
<g><path style="opacity:1" fill="#500046" d="M 792.5,571.5 C 793.289,571.783 793.956,572.283 794.5,573C 793.707,576.411 793.207,579.911 793,583.5C 792.501,579.514 792.334,575.514 792.5,571.5 Z"/></g>
<g><path style="opacity:1" fill="#61314b" d="M 817.5,572.5 C 818.534,573.687 819.867,574.52 821.5,575C 820.552,575.483 819.552,575.649 818.5,575.5C 818.662,577.527 818.495,579.527 818,581.5C 817.933,578.953 817.099,576.786 815.5,575C 816.756,574.583 817.423,573.75 817.5,572.5 Z"/></g>
<g><path style="opacity:1" fill="#7090ff" d="M 976.5,574.5 C 978.199,574.34 979.866,574.506 981.5,575C 980.584,575.374 979.75,575.874 979,576.5C 978.814,578.9 978.314,581.234 977.5,583.5C 976.516,580.572 976.183,577.572 976.5,574.5 Z"/></g>
<g><path style="opacity:1" fill="#6e93ff" d="M 1004.5,572.5 C 1006.08,573.382 1007.75,574.215 1009.5,575C 1008.55,575.483 1007.55,575.649 1006.5,575.5C 1006.5,577.5 1006.5,579.5 1006.5,581.5C 1007.68,581.281 1008.68,581.614 1009.5,582.5C 1007.99,583.747 1006.49,583.747 1005,582.5C 1004.77,579.905 1004.27,577.405 1003.5,575C 1004.25,574.329 1004.59,573.496 1004.5,572.5 Z"/></g>
<g><path style="opacity:1" fill="#3988ff" d="M 1037.5,574.5 C 1039.9,574.437 1042.4,574.77 1045,575.5C 1045.67,578.167 1045.67,580.833 1045,583.5C 1044.67,581.167 1044.33,578.833 1044,576.5C 1042.06,575.14 1040.4,575.473 1039,577.5C 1038.67,579.5 1038.33,581.5 1038,583.5C 1037.5,580.518 1037.34,577.518 1037.5,574.5 Z"/></g>
<g><path style="opacity:1" fill="#3988ff" d="M 1109.5,574.5 C 1111.9,574.437 1114.4,574.77 1117,575.5C 1117.67,578.167 1117.67,580.833 1117,583.5C 1116.67,581.167 1116.33,578.833 1116,576.5C 1114.06,575.14 1112.4,575.473 1111,577.5C 1110.67,579.5 1110.33,581.5 1110,583.5C 1109.5,580.518 1109.34,577.518 1109.5,574.5 Z"/></g>
<g><path style="opacity:1" fill="#6195ff" d="M 1121.5,572.5 C 1122.93,573.082 1124.26,573.915 1125.5,575C 1122.83,577.667 1122.83,580.333 1125.5,583C 1124.22,583.684 1123.05,583.517 1122,582.5C 1121.97,579.633 1121.14,577.133 1119.5,575C 1120.76,574.583 1121.42,573.75 1121.5,572.5 Z"/></g>
<g><path style="opacity:1" fill="#bf8b64" d="M 798.5,579.5 C 796.243,578.438 795.077,576.772 795,574.5C 796.802,575.789 797.969,577.456 798.5,579.5 Z"/></g>
<g><path style="opacity:1" fill="#a26e1e" d="M 873.5,575.5 C 872.532,577.607 872.198,579.941 872.5,582.5C 871.79,580.107 871.123,577.607 870.5,575C 871.126,574.25 871.626,573.416 872,572.5C 872.772,573.849 873.939,574.682 875.5,575C 874.906,575.464 874.239,575.631 873.5,575.5 Z"/></g>
<g><path style="opacity:1" fill="#517baa" d="M 873.5,575.5 C 873.042,578.394 873.709,580.894 875.5,583C 874.251,583.74 873.251,583.573 872.5,582.5C 872.198,579.941 872.532,577.607 873.5,575.5 Z"/></g>
<g><path style="opacity:1" fill="#a26e1e" d="M 944.5,575.5 C 943.532,577.607 943.198,579.941 943.5,582.5C 942.79,580.107 942.123,577.607 941.5,575C 942.126,574.25 942.626,573.416 943,572.5C 943.772,573.849 944.939,574.682 946.5,575C 945.906,575.464 945.239,575.631 944.5,575.5 Z"/></g>
<g><path style="opacity:1" fill="#517baa" d="M 944.5,575.5 C 944.042,578.394 944.709,580.894 946.5,583C 945.251,583.74 944.251,583.573 943.5,582.5C 943.198,579.941 943.532,577.607 944.5,575.5 Z"/></g>
<g><path style="opacity:1" fill="#4b0351" d="M 912.5,575.5 C 913.302,574.048 913.802,572.382 914,570.5C 914.667,574.833 914.667,579.167 914,583.5C 913.728,580.746 913.228,578.079 912.5,575.5 Z"/></g>
<g><path style="opacity:1" fill="#6191ff" d="M 966.5,571.5 C 969.397,571.125 972.063,571.625 974.5,573C 967.579,570.923 964.745,573.423 966,580.5C 968.333,581.833 970.667,581.833 973,580.5C 973.5,581 974,581.5 974.5,582C 966.758,585.248 963.258,582.748 964,574.5C 964.698,573.309 965.531,572.309 966.5,571.5 Z"/></g>
<g><path style="opacity:1" fill="#6693ff" d="M 984.5,574.5 C 986.527,574.338 988.527,574.505 990.5,575C 991.38,576.356 991.714,577.856 991.5,579.5C 982.384,579.563 982.384,580.397 991.5,582C 989.386,583.518 987.053,583.851 984.5,583C 981.899,580.17 981.899,577.337 984.5,574.5 Z"/></g>
<g><path style="opacity:1" fill="#edebff" d="M 985.5,575.5 C 987.484,575.383 989.15,576.05 990.5,577.5C 988.5,578.833 986.5,578.833 984.5,577.5C 984.863,576.817 985.196,576.15 985.5,575.5 Z"/></g>
<g><path style="opacity:1" fill="#757b9d" d="M 807.5,574.5 C 813.853,574.453 814.02,575.119 808,576.5C 807.667,578.167 807.333,579.833 807,581.5C 805.266,579.137 805.433,576.804 807.5,574.5 Z"/></g>
<g><path style="opacity:1" fill="#084a94" d="M 829.5,574.5 C 830.289,574.783 830.956,575.283 831.5,576C 830.726,578.405 830.226,580.905 830,583.5C 829.502,580.518 829.335,577.518 829.5,574.5 Z"/></g>
<g><path style="opacity:1" fill="#49465e" d="M 835.5,576.5 C 838.01,579.061 840.51,579.061 843,576.5C 843.483,577.448 843.649,578.448 843.5,579.5C 840.606,579.042 838.106,579.709 836,581.5C 835.506,579.866 835.34,578.199 835.5,576.5 Z"/></g>
<g><path style="opacity:1" fill="#737393" d="M 852.5,575.5 C 848.241,575.102 846.408,577.102 847,581.5C 844.949,579.191 845.116,577.024 847.5,575C 849.387,574.22 851.054,574.387 852.5,575.5 Z"/></g>
<g><path style="opacity:1" fill="#515064" d="M 862.5,575.5 C 863.749,577.136 865.416,578.303 867.5,579C 864.074,580.238 862.408,579.071 862.5,575.5 Z"/></g>
<g><path style="opacity:1" fill="#705d60" d="M 884.5,575.5 C 886.176,576.183 886.843,577.517 886.5,579.5C 883.753,579.187 881.086,579.52 878.5,580.5C 879.506,581.396 879.506,582.062 878.5,582.5C 877.369,580.926 877.202,579.259 878,577.5C 880.041,578.423 882.208,578.756 884.5,578.5C 884.5,577.5 884.5,576.5 884.5,575.5 Z"/></g>
<g><path style="opacity:1" fill="#084a94" d="M 889.5,574.5 C 890.289,574.783 890.956,575.283 891.5,576C 890.726,578.405 890.226,580.905 890,583.5C 889.502,580.518 889.335,577.518 889.5,574.5 Z"/></g>
<g><path style="opacity:1" fill="#49465e" d="M 895.5,576.5 C 898.01,579.061 900.51,579.061 903,576.5C 903.483,577.448 903.649,578.448 903.5,579.5C 900.606,579.042 898.106,579.709 896,581.5C 895.506,579.866 895.34,578.199 895.5,576.5 Z"/></g>
<g><path style="opacity:1" fill="#767998" d="M 912.5,575.5 C 908.241,575.102 906.408,577.102 907,581.5C 904.949,579.191 905.116,577.024 907.5,575C 909.387,574.22 911.054,574.387 912.5,575.5 Z"/></g>
<g><path style="opacity:1" fill="#534a57" d="M 931.5,576.5 C 934.01,579.061 936.51,579.061 939,576.5C 939.692,577.025 940.192,577.692 940.5,578.5C 937.634,579.208 934.8,579.875 932,580.5C 931.51,579.207 931.343,577.873 931.5,576.5 Z"/></g>
<g><path style="opacity:1" fill="#588eff" d="M 1031.5,582.5 C 1029.98,583.735 1028.32,583.735 1026.5,582.5C 1025.27,581.349 1025.27,580.183 1026.5,579C 1028.58,578.808 1030.58,578.308 1032.5,577.5C 1032.29,576.914 1031.96,576.414 1031.5,576C 1029.58,575.821 1027.91,575.654 1026.5,575.5C 1033.67,573.677 1036.01,576.344 1033.5,583.5C 1032.82,583.137 1032.15,582.804 1031.5,582.5 Z"/></g>
<g><path style="opacity:1" fill="#5a8eff" d="M 1057.5,571.5 C 1058.5,571.414 1059.33,571.748 1060,572.5C 1062.16,576.119 1063.32,579.785 1063.5,583.5C 1062.61,582.675 1062.28,581.675 1062.5,580.5C 1059.83,580.5 1057.17,580.5 1054.5,580.5C 1054.72,581.675 1054.39,582.675 1053.5,583.5C 1053.17,583.167 1052.83,582.833 1052.5,582.5C 1053.91,578.688 1055.57,575.022 1057.5,571.5 Z"/></g>
<g><path style="opacity:1" fill="#e9ebff" d="M 1057.5,573.5 C 1059.54,574.911 1060.54,576.911 1060.5,579.5C 1059.17,579.5 1057.83,579.5 1056.5,579.5C 1056.83,577.5 1057.17,575.5 1057.5,573.5 Z"/></g>
<g><path style="opacity:1" fill="#f0f0ff" d="M 1031.5,582.5 C 1029.65,582.778 1028.32,582.111 1027.5,580.5C 1029.17,579.167 1030.83,579.167 1032.5,580.5C 1032.14,581.183 1031.8,581.85 1031.5,582.5 Z"/></g>
<g><path style="opacity:1" fill="#5c8fff" d="M 993.5,574.5 C 996.119,574.232 998.619,574.565 1001,575.5C 1001.5,578.146 1001.66,580.813 1001.5,583.5C 998.881,583.768 996.381,583.435 994,582.5C 993.316,581.216 993.483,580.049 994.5,579C 996.256,578.798 997.922,578.298 999.5,577.5C 998.252,575.31 996.586,574.977 994.5,576.5C 993.702,576.043 993.369,575.376 993.5,574.5 Z"/></g>
<g><path style="opacity:1" fill="#eff4ff" d="M 995.5,579.5 C 996.978,579.238 998.311,579.571 999.5,580.5C 998.081,582.915 996.415,583.081 994.5,581C 995.056,580.617 995.389,580.117 995.5,579.5 Z"/></g>
<g><path style="opacity:1" fill="#6e92ff" d="M 1067.5,574.5 C 1070.07,574.148 1072.41,574.648 1074.5,576C 1072.26,575.681 1070.09,575.848 1068,576.5C 1067.28,581.111 1069.11,582.945 1073.5,582C 1067.65,584.822 1065.15,582.989 1066,576.5C 1066.72,575.956 1067.22,575.289 1067.5,574.5 Z"/></g>
<g><path style="opacity:1" fill="#6e92ff" d="M 1077.5,574.5 C 1080.07,574.148 1082.41,574.648 1084.5,576C 1082.26,575.681 1080.09,575.848 1078,576.5C 1077.28,581.111 1079.11,582.945 1083.5,582C 1077.65,584.822 1075.15,582.989 1076,576.5C 1076.72,575.956 1077.22,575.289 1077.5,574.5 Z"/></g>
<g><path style="opacity:1" fill="#5a0b1c" d="M 852.5,575.5 C 853.117,575.389 853.617,575.056 854,574.5C 854.667,577.833 854.667,581.167 854,584.5C 853.741,581.413 853.241,578.413 852.5,575.5 Z"/></g>
<g><path style="opacity:1" fill="#5f6286" d="M 924.5,579.5 C 925.218,581.246 926.218,581.912 927.5,581.5C 925.712,584.905 924.712,584.238 924.5,579.5 Z"/></g>
<g><path style="opacity:1" fill="#6693ff" d="M 1012.5,574.5 C 1016.85,573.533 1019.18,575.2 1019.5,579.5C 1011.11,579.772 1010.78,580.606 1018.5,582C 1014.41,584.588 1011.74,583.588 1010.5,579C 1010.52,577.167 1011.19,575.667 1012.5,574.5 Z"/></g>
<g><path style="opacity:1" fill="#f4f3ff" d="M 1013.5,575.5 C 1015.35,575.222 1016.68,575.889 1017.5,577.5C 1015.83,578.833 1014.17,578.833 1012.5,577.5C 1012.86,576.817 1013.2,576.15 1013.5,575.5 Z"/></g>
<g><path style="opacity:1" fill="#578dff" d="M 1087.5,574.5 C 1094.68,573.985 1096.34,576.818 1092.5,583C 1085.42,583.475 1083.75,580.642 1087.5,574.5 Z"/></g>
<g><path style="opacity:1" fill="#f4f2ff" d="M 1088.5,575.5 C 1093.49,575.997 1094.49,578.164 1091.5,582C 1090.22,582.684 1089.05,582.517 1088,581.5C 1087.32,579.402 1087.49,577.402 1088.5,575.5 Z"/></g>
<g><path style="opacity:1" fill="#8097ff" d="M 1097.5,574.5 C 1098.47,576.607 1098.8,578.941 1098.5,581.5C 1100.17,581.5 1101.83,581.5 1103.5,581.5C 1103.19,579.076 1103.53,576.743 1104.5,574.5C 1105.65,577.446 1105.82,580.446 1105,583.5C 1102.77,583.626 1100.43,583.293 1098,582.5C 1097.5,579.854 1097.34,577.187 1097.5,574.5 Z"/></g>
<g><path style="opacity:1" fill="#3d2d34" d="M 932.5,582.5 C 932.56,581.957 932.893,581.624 933.5,581.5C 934.795,582.098 936.128,582.598 937.5,583C 935.735,583.64 934.068,583.473 932.5,582.5 Z"/></g>
</svg>
