<?xml version="1.0" encoding="UTF-8"?>
<!DOCTYPE svg PUBLIC "-//W3C//DTD SVG 1.1//EN" "http://www.w3.org/Graphics/SVG/1.1/DTD/svg11.dtd">
<svg xmlns="http://www.w3.org/2000/svg" version="1.1" width="1914px" height="865px" style="shape-rendering:geometricPrecision; text-rendering:geometricPrecision; image-rendering:optimizeQuality; fill-rule:evenodd; clip-rule:evenodd" xmlns:xlink="http://www.w3.org/1999/xlink">
<g><path style="opacity:1" fill="#513733" d="M -0.5,-0.5 C 637.5,-0.5 1275.5,-0.5 1913.5,-0.5C 1913.5,0.5 1913.5,1.5 1913.5,2.5C 1275.5,2.5 637.5,2.5 -0.5,2.5C -0.5,1.5 -0.5,0.5 -0.5,-0.5 Z"/></g>
<g><path style="opacity:1" fill="#fefefe" d="M -0.5,2.5 C 637.5,2.5 1275.5,2.5 1913.5,2.5C 1913.5,29.1667 1913.5,55.8333 1913.5,82.5C 1275.5,82.5 637.5,82.5 -0.5,82.5C -0.5,55.8333 -0.5,29.1667 -0.5,2.5 Z"/></g>
<g><path style="opacity:1" fill="#eff3f7" d="M 1707.5,12.5 C 1731.99,12.1511 1743.82,24.1511 1743,48.5C 1737.57,65.9209 1725.74,73.7543 1707.5,72C 1690.09,66.5774 1682.26,54.7441 1684,36.5C 1687.35,23.9853 1695.18,15.9853 1707.5,12.5 Z"/></g>
<g><path style="opacity:1" fill="#f0f4f8" d="M 697.5,18.5 C 827.5,18.3333 957.5,18.5 1087.5,19C 1089.67,19.8333 1091.17,21.3333 1092,23.5C 1092.67,36.1667 1092.67,48.8333 1092,61.5C 1091.17,63.6667 1089.67,65.1667 1087.5,66C 957.5,66.6667 827.5,66.6667 697.5,66C 695.333,65.1667 693.833,63.6667 693,61.5C 692.333,48.8333 692.333,36.1667 693,23.5C 694.025,21.313 695.525,19.6464 697.5,18.5 Z"/></g>
<g><path style="opacity:1" fill="#000000" d="M 1761.5,20.5 C 1761.5,24.8333 1761.5,29.1667 1761.5,33.5C 1764.06,33.1984 1766.39,33.5318 1768.5,34.5C 1765.83,34.5 1763.17,34.5 1760.5,34.5C 1760.18,29.6367 1760.51,24.97 1761.5,20.5 Z"/></g>
<g><path style="opacity:1" fill="#232323" d="M 1771.5,19.5 C 1773.34,19.6395 1773.67,20.3061 1772.5,21.5C 1771.7,21.0431 1771.37,20.3764 1771.5,19.5 Z"/></g>
<g><path style="opacity:1" fill="#060606" d="M 1791.5,19.5 C 1793.34,24.1524 1793.51,29.1524 1792,34.5C 1791.5,29.5111 1791.33,24.5111 1791.5,19.5 Z"/></g>
<g><path style="opacity:1" fill="#363636" d="M 1810.5,20.5 C 1814.09,23.2588 1817.25,26.5921 1820,30.5C 1820.18,27.1182 1820.68,23.7848 1821.5,20.5C 1822.83,25.1667 1822.83,29.8333 1821.5,34.5C 1818.48,31.3135 1815.65,27.9802 1813,24.5C 1812.82,27.8818 1812.32,31.2152 1811.5,34.5C 1810.51,29.8804 1810.17,25.2137 1810.5,20.5 Z"/></g>
<g><path style="opacity:1" fill="#414141" d="M 1777.5,24.5 C 1786.19,22.8573 1789.19,26.1906 1786.5,34.5C 1785.68,31.8929 1785.18,29.2263 1785,26.5C 1783.33,25.1667 1781.67,25.1667 1780,26.5C 1779.82,29.2263 1779.32,31.8929 1778.5,34.5C 1777.51,31.2317 1777.18,27.8984 1777.5,24.5 Z"/></g>
<g><path style="opacity:1" fill="#3f3f3f" d="M 1852.5,24.5 C 1853.38,24.3691 1854.04,24.7025 1854.5,25.5C 1855.5,27.5101 1856.5,29.5101 1857.5,31.5C 1858.5,29.5101 1859.5,27.5101 1860.5,25.5C 1861.17,24.1667 1861.83,24.1667 1862.5,25.5C 1860.7,28.9393 1859.03,32.4393 1857.5,36C 1855.82,38.6762 1853.82,39.0096 1851.5,37C 1852.83,36.6667 1854.17,36.3333 1855.5,36C 1856.02,35.4387 1856.36,34.772 1856.5,34C 1855.02,30.8695 1853.68,27.7029 1852.5,24.5 Z"/></g>
<g><path style="opacity:1" fill="#363636" d="M 1794.5,25.5 C 1796.82,24.0584 1798.98,24.3918 1801,26.5C 1800.99,37.1668 1800.33,37.1668 1799,26.5C 1797.64,25.6198 1796.14,25.2865 1794.5,25.5 Z"/></g>
<g><path style="opacity:1" fill="#2d2d2d" d="M 1865.5,24.5 C 1867.86,24.3367 1870.19,24.5034 1872.5,25C 1873.38,26.3561 1873.71,27.8561 1873.5,29.5C 1863.06,30.1404 1863.06,31.3071 1873.5,33C 1868.37,35.853 1865.04,34.5197 1863.5,29C 1863.52,27.167 1864.19,25.667 1865.5,24.5 Z"/></g>
<g><path style="opacity:1" fill="#eaeaea" d="M 1866.5,25.5 C 1868.98,25.0508 1870.98,25.7175 1872.5,27.5C 1870.17,28.8333 1867.83,28.8333 1865.5,27.5C 1865.86,26.8165 1866.2,26.1499 1866.5,25.5 Z"/></g>
<g><path style="opacity:1" fill="#474747" d="M 1876.5,23.5 C 1879.72,24.0295 1882.88,24.6962 1886,25.5C 1886.82,28.5541 1886.65,31.5541 1885.5,34.5C 1884.52,31.5719 1884.18,28.5719 1884.5,25.5C 1882.53,25.2606 1880.7,25.5939 1879,26.5C 1878.82,29.2263 1878.32,31.8929 1877.5,34.5C 1876.51,30.8927 1876.18,27.226 1876.5,23.5 Z"/></g>
<g><path style="opacity:1" fill="#5b5b5b" d="M 1761.5,20.5 C 1762.48,24.2984 1762.82,28.2984 1762.5,32.5C 1764.92,32.1924 1767.26,32.5258 1769.5,33.5C 1769.38,34.1067 1769.04,34.44 1768.5,34.5C 1766.39,33.5318 1764.06,33.1984 1761.5,33.5C 1761.5,29.1667 1761.5,24.8333 1761.5,20.5 Z"/></g>
<g><path style="opacity:1" fill="#1f1f1f" d="M 1840.5,24.5 C 1841.31,26.631 1841.81,28.9644 1842,31.5C 1844,32.8333 1846,32.8333 1848,31.5C 1848.33,29.1667 1848.67,26.8333 1849,24.5C 1849.67,27.8333 1849.67,31.1667 1849,34.5C 1846.57,34.5234 1844.07,34.1901 1841.5,33.5C 1840.52,30.5719 1840.18,27.5719 1840.5,24.5 Z"/></g>
<g><path style="opacity:1" fill="#7c7c7c" d="M 45.5,51.5 C 45.6661,45.8236 45.4994,40.1569 45,34.5C 44.8238,38.6877 44.3238,42.6877 43.5,46.5C 43.5,42.1667 43.5,37.8333 43.5,33.5C 44.5,33.5 45.5,33.5 46.5,33.5C 46.8229,39.69 46.4896,45.69 45.5,51.5 Z"/></g>
<g><path style="opacity:1" fill="#1f1f1f" d="M 67.5,35.5 C 69.0481,35.8212 69.7148,36.8212 69.5,38.5C 74.8333,39.1667 74.8333,39.8333 69.5,40.5C 69.5,43.5 69.5,46.5 69.5,49.5C 70.9778,49.238 72.3112,49.5713 73.5,50.5C 71.3886,51.8485 69.5553,51.5152 68,49.5C 67.9632,45.9111 67.1299,42.5778 65.5,39.5C 66.8532,38.4763 67.5198,37.143 67.5,35.5 Z"/></g>
<g><path style="opacity:1" fill="#020617" d="M 1702.5,35.5 C 1702.5,39.8333 1702.5,44.1667 1702.5,48.5C 1705.06,48.1984 1707.39,48.5318 1709.5,49.5C 1706.83,49.5 1704.17,49.5 1701.5,49.5C 1701.18,44.6367 1701.51,39.97 1702.5,35.5 Z"/></g>
<g><path style="opacity:1" fill="#1f1f20" d="M 1058.5,34.5 C 1067.02,33.0197 1070.35,36.353 1068.5,44.5C 1069.48,45.9814 1070.65,47.3147 1072,48.5C 1072.75,49.635 1072.58,50.635 1071.5,51.5C 1069.63,47.247 1066.63,45.9137 1062.5,47.5C 1057.83,47.5 1055.5,45.1667 1055.5,40.5C 1055.63,38.0452 1056.63,36.0452 1058.5,34.5 Z"/></g>
<g><path style="opacity:1" fill="#dbdfe3" d="M 1059.5,36.5 C 1065.5,35.3327 1068,37.6661 1067,43.5C 1062.61,46.6136 1059.45,45.7803 1057.5,41C 1057.52,39.167 1058.19,37.667 1059.5,36.5 Z"/></g>
<g><path style="opacity:1" fill="#383838" d="M 1834.5,23.5 C 1835.79,25.0478 1836.46,27.0478 1836.5,29.5C 1837.5,36.6713 1834.5,39.5046 1827.5,38C 1826.55,37.2825 1826.38,36.4491 1827,35.5C 1829.06,36.5914 1831.23,36.7581 1833.5,36C 1834.52,34.9505 1834.68,33.7839 1834,32.5C 1827.83,34.9901 1825.17,32.9901 1826,26.5C 1828.71,25.0035 1831.55,24.0035 1834.5,23.5 Z"/></g>
<g><path style="opacity:1" fill="#eeeeee" d="M 1828.5,25.5 C 1833.89,24.5548 1835.56,26.5548 1833.5,31.5C 1827.74,33.2121 1826.07,31.2121 1828.5,25.5 Z"/></g>
<g><path style="opacity:1" fill="#2a2e3b" d="M 1713.5,35.5 C 1717.17,38.3325 1720.33,41.6659 1723,45.5C 1723.33,42.1667 1723.67,38.8333 1724,35.5C 1724.67,40.1667 1724.67,44.8333 1724,49.5C 1721.57,46.3119 1718.9,43.3119 1716,40.5C 1715.82,43.5535 1715.32,46.5535 1714.5,49.5C 1713.51,44.8804 1713.17,40.2137 1713.5,35.5 Z"/></g>
<g><path style="opacity:1" fill="#758499" d="M 1027.5,37.5 C 1029.13,38.6253 1030.63,39.9586 1032,41.5C 1036.82,37.4861 1037.32,37.8195 1033.5,42.5C 1037.48,48.5244 1036.98,48.8578 1032,43.5C 1027.02,48.8578 1026.52,48.5244 1030.5,42.5C 1029.05,41.0603 1028.05,39.3936 1027.5,37.5 Z"/></g>
<g><path style="opacity:1" fill="#161616" d="M 43.5,46.5 C 44.3238,42.6877 44.8238,38.6877 45,34.5C 45.4994,40.1569 45.6661,45.8236 45.5,51.5C 41.85,47.5734 38.1833,43.5734 34.5,39.5C 33.8333,43.5 33.1667,47.5 32.5,51.5C 31.1667,45.8333 31.1667,40.1667 32.5,34.5C 36.1886,38.5201 39.8553,42.5201 43.5,46.5 Z"/></g>
<g><path style="opacity:1" fill="#727476" d="M 742.5,36.5 C 743.314,38.631 743.814,40.9644 744,43.5C 745.422,41.3619 747.255,40.1953 749.5,40C 748.5,41 747.5,42 746.5,43C 747.743,44.1545 748.743,45.4878 749.5,47C 747.92,45.6913 745.92,44.8579 743.5,44.5C 742.276,44.1211 741.943,41.4544 742.5,36.5 Z"/></g>
<g><path style="opacity:1" fill="#898c8e" d="M 713.5,39.5 C 714.675,40.9738 715.675,42.6404 716.5,44.5C 717.316,42.7127 718.316,41.0461 719.5,39.5C 720.684,41.0461 721.684,42.7127 722.5,44.5C 723.427,42.8872 724.261,41.2205 725,39.5C 725.288,42.4724 724.455,45.139 722.5,47.5C 721.5,46.1667 720.5,44.8333 719.5,43.5C 718.5,44.8333 717.5,46.1667 716.5,47.5C 714.713,45.1416 713.713,42.475 713.5,39.5 Z"/></g>
<g><path style="opacity:1" fill="#1b1b1b" d="M 92.5,38.5 C 95.2469,38.1866 97.9135,38.52 100.5,39.5C 98.2573,40.4742 95.924,40.8076 93.5,40.5C 93.281,41.675 93.6143,42.675 94.5,43.5C 96.5,44.1667 98.5,44.8333 100.5,45.5C 101.916,49.6915 100.249,51.6915 95.5,51.5C 93.5191,51.5629 91.8524,50.8962 90.5,49.5C 93.319,49.2577 96.319,49.2577 99.5,49.5C 99.719,48.325 99.3857,47.325 98.5,46.5C 92.1718,46.8554 90.1718,44.1888 92.5,38.5 Z"/></g>
<g><path style="opacity:1" fill="#575b67" d="M 1702.5,35.5 C 1703.48,39.2984 1703.82,43.2984 1703.5,47.5C 1705.92,47.1924 1708.26,47.5258 1710.5,48.5C 1710.38,49.1067 1710.04,49.44 1709.5,49.5C 1707.39,48.5318 1705.06,48.1984 1702.5,48.5C 1702.5,44.1667 1702.5,39.8333 1702.5,35.5 Z"/></g>
<g><path style="opacity:1" fill="#1d1d1d" d="M 53.5,38.5 C 62.8075,37.9533 65.4742,41.7866 61.5,50C 53.2463,53.0813 49.7463,50.2479 51,41.5C 52.045,40.6266 52.8783,39.6266 53.5,38.5 Z"/></g>
<g><path style="opacity:1" fill="#f1f1f1" d="M 53.5,40.5 C 60.9974,39.8038 62.9974,42.6372 59.5,49C 52.7813,49.7259 50.7813,46.8925 53.5,40.5 Z"/></g>
<g><path style="opacity:1" fill="#1c1c1c" d="M 79.5,38.5 C 85.1878,37.531 88.1878,39.8643 88.5,45.5C 85.1667,45.5 81.8333,45.5 78.5,45.5C 78.33,46.8221 78.6634,47.9887 79.5,49C 82.3315,49.2121 84.9982,49.3787 87.5,49.5C 83.0534,52.5643 79.2201,51.8977 76,47.5C 74.9804,43.5532 76.1471,40.5532 79.5,38.5 Z"/></g>
<g><path style="opacity:1" fill="#d6d6d6" d="M 79.5,40.5 C 81.5273,40.3379 83.5273,40.5045 85.5,41C 86.3366,42.0113 86.67,43.1779 86.5,44.5C 83.4281,44.8174 80.4281,44.4841 77.5,43.5C 78.1925,42.4822 78.8592,41.4822 79.5,40.5 Z"/></g>
<g><path style="opacity:1" fill="#687281" d="M 1804.5,63.5 C 1807.87,57.8549 1806.21,55.1883 1799.5,55.5C 1802.07,53.0361 1804.57,53.3695 1807,56.5C 1808.08,59.6939 1807.25,62.0272 1804.5,63.5 Z"/></g>
<g><path style="opacity:1" fill="#6f7887" d="M 1774.5,53.5 C 1781.99,54.8052 1783.32,58.3052 1778.5,64C 1773.16,64.9888 1770.66,62.8222 1771,57.5C 1771.69,55.6498 1772.86,54.3164 1774.5,53.5 Z"/></g>
<g><path style="opacity:1" fill="#f8f8f9" d="M 1773.5,55.5 C 1779.24,54.8213 1780.9,57.1546 1778.5,62.5C 1772.8,63.4458 1771.14,61.1125 1773.5,55.5 Z"/></g>
<g><path style="opacity:1" fill="#f4f4f6" d="M 1799.5,55.5 C 1806.21,55.1883 1807.87,57.8549 1804.5,63.5C 1798.81,63.4344 1797.14,60.7677 1799.5,55.5 Z"/></g>
<g><path style="opacity:1" fill="#505c6d" d="M 1824.5,51.5 C 1825.66,52.6114 1826.99,53.6114 1828.5,54.5C 1827.68,55.3857 1826.68,55.719 1825.5,55.5C 1825.34,57.8568 1825.5,60.1902 1826,62.5C 1826.75,63.1258 1827.58,63.6258 1828.5,64C 1827.22,64.6838 1826.05,64.5171 1825,63.5C 1824.94,60.2369 1824.1,57.2369 1822.5,54.5C 1823.61,53.7348 1824.28,52.7348 1824.5,51.5 Z"/></g>
<g><path style="opacity:1" fill="#5c6777" d="M 1799.5,55.5 C 1797.14,60.7677 1798.81,63.4344 1804.5,63.5C 1798.65,65.1503 1796.49,62.817 1798,56.5C 1798.38,55.944 1798.88,55.6107 1799.5,55.5 Z"/></g>
<g><path style="opacity:1" fill="#586373" d="M 1810.5,54.5 C 1811.31,56.631 1811.81,58.9644 1812,61.5C 1814,64.1667 1816,64.1667 1818,61.5C 1818.33,59.1667 1818.67,56.8333 1819,54.5C 1819.67,57.8333 1819.67,61.1667 1819,64.5C 1817.03,64.3744 1814.86,64.2078 1812.5,64C 1810.66,61.1737 1809.99,58.0071 1810.5,54.5 Z"/></g>
<g><path style="opacity:1" fill="#3c495c" d="M 1760.5,50.5 C 1761.48,54.6344 1761.82,58.9677 1761.5,63.5C 1764.19,63.3359 1766.85,63.5026 1769.5,64C 1766.52,64.498 1763.52,64.6646 1760.5,64.5C 1760.5,59.8333 1760.5,55.1667 1760.5,50.5 Z"/></g>
<g><path style="opacity:1" fill="#808895" d="M 1791.5,55.5 C 1792.12,55.3893 1792.62,55.056 1793,54.5C 1793.67,58.5 1793.67,62.5 1793,66.5C 1790.85,68.4439 1788.35,68.9439 1785.5,68C 1784.3,67.3457 1784.3,66.8457 1785.5,66.5C 1787.9,68.0622 1789.9,67.7288 1791.5,65.5C 1785.8,64.9758 1783.3,61.9758 1784,56.5C 1786.24,53.0126 1788.74,52.6793 1791.5,55.5 Z"/></g>
<g><path style="opacity:1" fill="#f7f7f8" d="M 1791.5,55.5 C 1793.93,60.972 1792.26,63.1387 1786.5,62C 1784.79,60.8668 1784.29,59.3668 1785,57.5C 1786.79,55.771 1788.96,55.1043 1791.5,55.5 Z"/></g>
<g><path style="opacity:1" fill="#334155" d="M 1758.5,65.5 C 1766.2,65.1692 1773.86,65.5025 1781.5,66.5C 1777.67,66.8333 1773.83,67.1667 1770,67.5C 1765.77,67.4898 1761.94,66.8232 1758.5,65.5 Z"/></g>
<g><path style="opacity:1" fill="#354356" d="M 1795.5,65.5 C 1807.19,65.1678 1818.85,65.5011 1830.5,66.5C 1824.67,66.8333 1818.83,67.1667 1813,67.5C 1806.79,67.4958 1800.96,66.8291 1795.5,65.5 Z"/></g>
<g><path style="opacity:1" fill="#8ebd2e" d="M -0.5,83.5 C -0.5,83.1667 -0.5,82.8333 -0.5,82.5C 637.5,82.5 1275.5,82.5 1913.5,82.5C 1913.5,83.1667 1913.5,83.8333 1913.5,84.5C 1275.46,84.8326 637.46,84.4993 -0.5,83.5 Z"/></g>
<g><path style="opacity:1" fill="#96c730" d="M -0.5,83.5 C 637.46,84.4993 1275.46,84.8326 1913.5,84.5C 1913.5,85.1667 1913.5,85.8333 1913.5,86.5C 1275.5,86.5 637.5,86.5 -0.5,86.5C -0.5,85.5 -0.5,84.5 -0.5,83.5 Z"/></g>
<g><path style="opacity:1" fill="#99cc32" d="M -0.5,86.5 C 637.5,86.5 1275.5,86.5 1913.5,86.5C 1913.5,345.833 1913.5,605.167 1913.5,864.5C 1275.5,864.5 637.5,864.5 -0.5,864.5C -0.5,667.5 -0.5,470.5 -0.5,273.5C 207.127,274.664 414.794,274.831 622.5,274C 623.667,273.5 624.5,272.667 625,271.5C 625.667,222.833 625.667,174.167 625,125.5C 624.5,124.333 623.667,123.5 622.5,123C 414.794,122.169 207.127,122.336 -0.5,123.5C -0.5,111.167 -0.5,98.8333 -0.5,86.5 Z"/></g>
<g><path style="opacity:1" fill="#baf4ce" d="M -0.5,273.5 C -0.5,223.5 -0.5,173.5 -0.5,123.5C 207.127,122.336 414.794,122.169 622.5,123C 623.667,123.5 624.5,124.333 625,125.5C 625.667,174.167 625.667,222.833 625,271.5C 624.5,272.667 623.667,273.5 622.5,274C 414.794,274.831 207.127,274.664 -0.5,273.5 Z"/></g>
<g><path style="opacity:1" fill="#baf5cf" d="M 648.5,122.5 C 855.167,122.333 1061.83,122.5 1268.5,123C 1269.67,123.5 1270.5,124.333 1271,125.5C 1271.67,174.167 1271.67,222.833 1271,271.5C 1270.5,272.667 1269.67,273.5 1268.5,274C 1061.83,274.667 855.167,274.667 648.5,274C 647.333,273.5 646.5,272.667 646,271.5C 645.333,222.833 645.333,174.167 646,125.5C 646.698,124.309 647.531,123.309 648.5,122.5 Z"/></g>
<g><path style="opacity:1" fill="#8bb9b5" d="M 530.5,147.5 C 531.643,150.976 531.81,154.642 531,158.5C 528.954,158.549 526.787,158.215 524.5,157.5C 522.773,152.062 524.607,150.062 530,151.5C 530.49,150.207 530.657,148.873 530.5,147.5 Z"/></g>
<g><path style="opacity:1" fill="#380102" d="M 676.5,147.5 C 678.343,150.796 678.509,154.462 677,158.5C 676.501,154.848 676.335,151.182 676.5,147.5 Z"/></g>
<g><path style="opacity:1" fill="#293a43" d="M 203.5,147.5 C 205.924,147.192 208.257,147.526 210.5,148.5C 208.604,149.466 206.604,149.799 204.5,149.5C 204.5,150.5 204.5,151.5 204.5,152.5C 211.167,152.833 211.167,153.167 204.5,153.5C 204.5,154.833 204.5,156.167 204.5,157.5C 206.527,157.338 208.527,157.505 210.5,158C 208.19,158.497 205.857,158.663 203.5,158.5C 203.5,154.833 203.5,151.167 203.5,147.5 Z"/></g>
<g><path style="opacity:1" fill="#3e4153" d="M 666.5,147.5 C 669.572,147.183 672.572,147.516 675.5,148.5C 674.311,149.429 672.978,149.762 671.5,149.5C 671.167,161.5 670.833,161.5 670.5,149.5C 668.517,149.843 667.183,149.176 666.5,147.5 Z"/></g>
<g><path style="opacity:1" fill="#362a32" d="M 841.5,151.5 C 840.175,150.047 839.342,150.381 839,152.5C 838.219,151.056 838.386,149.723 839.5,148.5C 840.919,149.005 841.585,150.005 841.5,151.5 Z"/></g>
<g><path style="opacity:1" fill="#586763" d="M 72.5,157.5 C 71.3281,158.705 69.9948,158.705 68.5,157.5C 67.1667,155.167 67.1667,152.833 68.5,150.5C 69.3078,152.423 69.8078,154.423 70,156.5C 70.6708,157.252 71.5041,157.586 72.5,157.5 Z"/></g>
<g><path style="opacity:1" fill="#34303f" d="M 78.5,156.5 C 77.1134,154.511 77.4468,152.678 79.5,151C 81.403,150.226 83.0696,150.56 84.5,152C 80.7496,150.898 78.7496,152.398 78.5,156.5 Z"/></g>
<g><path style="opacity:1" fill="#401e1f" d="M 106.5,150.5 C 108.571,150.498 110.738,150.831 113,151.5C 113.667,153.833 113.667,156.167 113,158.5C 112.667,156.5 112.333,154.5 112,152.5C 110.887,151.289 109.72,151.289 108.5,152.5C 107.692,154.423 107.192,156.423 107,158.5C 106.503,155.854 106.336,153.187 106.5,150.5 Z"/></g>
<g><path style="opacity:1" fill="#271f3d" d="M 168.5,151.5 C 170.435,150.291 172.435,150.458 174.5,152C 173.736,154.069 173.236,156.236 173,158.5C 172.667,156.5 172.333,154.5 172,152.5C 170.989,151.663 169.822,151.33 168.5,151.5 Z"/></g>
<g><path style="opacity:1" fill="#401e1f" d="M 237.5,150.5 C 239.571,150.498 241.738,150.831 244,151.5C 244.667,153.833 244.667,156.167 244,158.5C 243.667,156.5 243.333,154.5 243,152.5C 241.887,151.289 240.72,151.289 239.5,152.5C 238.692,154.423 238.192,156.423 238,158.5C 237.503,155.854 237.336,153.187 237.5,150.5 Z"/></g>
<g><path style="opacity:1" fill="#0d003c" d="M 701.5,157.5 C 702.21,155.254 702.71,152.92 703,150.5C 703.667,153.167 703.667,155.833 703,158.5C 702.617,157.944 702.117,157.611 701.5,157.5 Z"/></g>
<g><path style="opacity:1" fill="#370107" d="M 788.5,150.5 C 789.289,150.783 789.956,151.283 790.5,152C 789.736,154.069 789.236,156.236 789,158.5C 788.503,155.854 788.336,153.187 788.5,150.5 Z"/></g>
<g><path style="opacity:1" fill="#676b55" d="M 25.5,150.5 C 27.0447,151.58 28.5447,151.58 30,150.5C 33.4649,152.22 34.2982,154.887 32.5,158.5C 31.5344,156.604 31.2011,154.604 31.5,152.5C 30.1667,152.5 28.8333,152.5 27.5,152.5C 27.7989,154.604 27.4656,156.604 26.5,158.5C 25.52,155.914 25.1866,153.247 25.5,150.5 Z"/></g>
<g><path style="opacity:1" fill="#0c0027" d="M 184.5,151.5 C 183.167,153.5 183.167,155.5 184.5,157.5C 183.71,158.609 183.21,159.942 183,161.5C 182.333,157.833 182.333,154.167 183,150.5C 183.383,151.056 183.883,151.389 184.5,151.5 Z"/></g>
<g><path style="opacity:1" fill="#676b55" d="M 212.5,150.5 C 214.045,151.58 215.545,151.58 217,150.5C 220.465,152.22 221.298,154.887 219.5,158.5C 218.534,156.604 218.201,154.604 218.5,152.5C 217.167,152.5 215.833,152.5 214.5,152.5C 214.799,154.604 214.466,156.604 213.5,158.5C 212.52,155.914 212.187,153.247 212.5,150.5 Z"/></g>
<g><path style="opacity:1" fill="#344157" d="M 227.5,151.5 C 225.248,151.916 223.748,153.249 223,155.5C 222.643,151.676 224.143,150.343 227.5,151.5 Z"/></g>
<g><path style="opacity:1" fill="#6f94a4" d="M 559.5,148.5 C 560.309,149.469 561.309,150.302 562.5,151C 560.75,152.754 560.083,154.921 560.5,157.5C 564.172,158.045 563.838,158.378 559.5,158.5C 559.958,155.606 559.291,153.106 557.5,151C 558.756,150.583 559.423,149.75 559.5,148.5 Z"/></g>
<g><path style="opacity:1" fill="#696d58" d="M 716.5,147.5 C 718.045,148.23 718.878,149.563 719,151.5C 720.938,150.14 722.604,150.473 724,152.5C 724.808,154.579 724.641,156.579 723.5,158.5C 722.534,156.604 722.201,154.604 722.5,152.5C 721.167,152.5 719.833,152.5 718.5,152.5C 718.799,154.604 718.466,156.604 717.5,158.5C 716.511,154.893 716.177,151.226 716.5,147.5 Z"/></g>
<g><path style="opacity:1" fill="#729eac" d="M 1206.5,148.5 C 1207.31,149.469 1208.31,150.302 1209.5,151C 1206.83,153.333 1206.83,155.667 1209.5,158C 1208.55,158.483 1207.55,158.649 1206.5,158.5C 1206.96,155.606 1206.29,153.106 1204.5,151C 1205.76,150.583 1206.42,149.75 1206.5,148.5 Z"/></g>
<g><path style="opacity:1" fill="#26314e" d="M 36.5,148.5 C 37.3094,149.469 38.3094,150.302 39.5,151C 36.8333,153.333 36.8333,155.667 39.5,158C 38.552,158.483 37.552,158.649 36.5,158.5C 36.9577,155.606 36.291,153.106 34.5,151C 35.756,150.583 36.4226,149.75 36.5,148.5 Z"/></g>
<g><path style="opacity:1" fill="#b3e8ba" d="M 62.5,151.5 C 63.8333,153.5 63.8333,155.5 62.5,157.5C 58.65,157.299 57.65,155.466 59.5,152C 60.448,151.517 61.448,151.351 62.5,151.5 Z"/></g>
<g><path style="opacity:1" fill="#26314e" d="M 87.5,148.5 C 88.3094,149.469 89.3094,150.302 90.5,151C 87.8333,153.333 87.8333,155.667 90.5,158C 89.552,158.483 88.552,158.649 87.5,158.5C 87.9577,155.606 87.291,153.106 85.5,151C 86.756,150.583 87.4226,149.75 87.5,148.5 Z"/></g>
<g><path style="opacity:1" fill="#26314e" d="M 121.5,148.5 C 122.309,149.469 123.309,150.302 124.5,151C 121.833,153.333 121.833,155.667 124.5,158C 123.552,158.483 122.552,158.649 121.5,158.5C 121.958,155.606 121.291,153.106 119.5,151C 120.756,150.583 121.423,149.75 121.5,148.5 Z"/></g>
<g><path style="opacity:1" fill="#a7e6c5" d="M 184.5,151.5 C 188.35,151.701 189.35,153.534 187.5,157C 186.552,157.483 185.552,157.649 184.5,157.5C 183.167,155.5 183.167,153.5 184.5,151.5 Z"/></g>
<g><path style="opacity:1" fill="#4a494f" d="M 192.5,149.5 C 193.766,150.09 195.099,150.59 196.5,151C 193.833,153.333 193.833,155.667 196.5,158C 195.216,158.684 194.049,158.517 193,157.5C 192.764,155.236 192.264,153.069 191.5,151C 192.056,150.617 192.389,150.117 192.5,149.5 Z"/></g>
<g><path style="opacity:1" fill="#b3ebbe" d="M 291.5,151.5 C 292.301,153.042 292.634,154.708 292.5,156.5C 290.833,156.5 289.167,156.5 287.5,156.5C 286.756,153.05 288.09,151.384 291.5,151.5 Z"/></g>
<g><path style="opacity:1" fill="#1e0746" d="M 727.5,149.5 C 728.473,149.987 729.473,150.487 730.5,151C 728.901,152.786 728.067,154.953 728,157.5C 727.933,154.953 727.099,152.786 725.5,151C 726.416,150.722 727.082,150.222 727.5,149.5 Z"/></g>
<g><path style="opacity:1" fill="#1e0746" d="M 814.5,149.5 C 815.473,149.987 816.473,150.487 817.5,151C 815.901,152.786 815.067,154.953 815,157.5C 814.933,154.953 814.099,152.786 812.5,151C 813.416,150.722 814.082,150.222 814.5,149.5 Z"/></g>
<g><path style="opacity:1" fill="#46586f" d="M 833.5,150.5 C 835.117,152.121 836.284,154.121 837,156.5C 838.199,152.814 838.533,153.147 838,157.5C 837.586,157.957 837.086,158.291 836.5,158.5C 835.103,155.974 834.103,153.308 833.5,150.5 Z"/></g>
<g><path style="opacity:1" fill="#758899" d="M 1158.5,151.5 C 1162.27,152.424 1163.27,154.59 1161.5,158C 1159.83,158.667 1158.17,158.667 1156.5,158C 1162.54,156.978 1162.87,155.311 1157.5,153C 1158.06,152.617 1158.39,152.117 1158.5,151.5 Z"/></g>
<g><path style="opacity:1" fill="#baf3c9" d="M 1175.5,151.5 C 1176.83,153.5 1176.83,155.5 1175.5,157.5C 1171.65,157.299 1170.65,155.466 1172.5,152C 1173.45,151.517 1174.45,151.351 1175.5,151.5 Z"/></g>
<g><path style="opacity:1" fill="#89a5a5" d="M 1225.5,149.5 C 1227.2,146.876 1229.03,146.876 1231,149.5C 1233.05,152.46 1232.89,155.293 1230.5,158C 1225.97,159.471 1223.63,157.804 1223.5,153C 1223.39,151.301 1224.05,150.134 1225.5,149.5 Z"/></g>
<g><path style="opacity:1" fill="#b9f5cd" d="M 1225.5,149.5 C 1227.14,149.286 1228.64,149.62 1230,150.5C 1230.76,152.769 1230.59,154.936 1229.5,157C 1228.22,157.684 1227.05,157.517 1226,156.5C 1225.5,154.19 1225.34,151.857 1225.5,149.5 Z"/></g>
<g><path style="opacity:1" fill="#23476b" d="M 42.5,150.5 C 43.7072,151.189 45.0406,151.355 46.5,151C 44.1965,152.885 43.0299,155.385 43,158.5C 42.5026,155.854 42.3359,153.187 42.5,150.5 Z"/></g>
<g><path style="opacity:1" fill="#3e0a02" d="M 62.5,157.5 C 63.8333,155.5 63.8333,153.5 62.5,151.5C 63.29,150.391 63.79,149.058 64,147.5C 64.6667,151.167 64.6667,154.833 64,158.5C 63.6174,157.944 63.1174,157.611 62.5,157.5 Z"/></g>
<g><path style="opacity:1" fill="#2c2c58" d="M 131.5,151.5 C 128.812,152.024 127.312,153.691 127,156.5C 126.158,152.181 127.658,150.514 131.5,151.5 Z"/></g>
<g><path style="opacity:1" fill="#515b57" d="M 147.5,149.5 C 149.108,154.44 147.108,156.44 141.5,155.5C 140.276,155.121 139.943,152.454 140.5,147.5C 143.152,147.41 145.485,148.076 147.5,149.5 Z"/></g>
<g><path style="opacity:1" fill="#b9eabb" d="M 147.5,149.5 C 147.5,150.833 147.5,152.167 147.5,153.5C 145.833,153.5 144.167,153.5 142.5,153.5C 142.5,152.167 142.5,150.833 142.5,149.5C 144.167,149.5 145.833,149.5 147.5,149.5 Z"/></g>
<g><path style="opacity:1" fill="#2c2c58" d="M 161.5,151.5 C 158.812,152.024 157.312,153.691 157,156.5C 156.158,152.181 157.658,150.514 161.5,151.5 Z"/></g>
<g><path style="opacity:1" fill="#090137" d="M 168.5,151.5 C 167.79,153.746 167.29,156.08 167,158.5C 166.333,155.833 166.333,153.167 167,150.5C 167.383,151.056 167.883,151.389 168.5,151.5 Z"/></g>
<g><path style="opacity:1" fill="#574e3d" d="M 184.5,151.5 C 187.639,149.806 189.639,150.806 190.5,154.5C 189.639,158.194 187.639,159.194 184.5,157.5C 185.552,157.649 186.552,157.483 187.5,157C 189.35,153.534 188.35,151.701 184.5,151.5 Z"/></g>
<g><path style="opacity:1" fill="#525c5d" d="M 257.5,156.5 C 257.167,156.5 256.833,156.5 256.5,156.5C 256.5,155.167 256.5,153.833 256.5,152.5C 259.573,154.1 261.573,153.767 262.5,151.5C 263.429,152.689 263.762,154.022 263.5,155.5C 261.265,155.205 259.265,155.539 257.5,156.5 Z"/></g>
<g><path style="opacity:1" fill="#23476b" d="M 266.5,150.5 C 267.707,151.189 269.041,151.355 270.5,151C 268.197,152.885 267.03,155.385 267,158.5C 266.503,155.854 266.336,153.187 266.5,150.5 Z"/></g>
<g><path style="opacity:1" fill="#090136" d="M 278.5,151.5 C 277.79,153.746 277.29,156.08 277,158.5C 276.333,155.833 276.333,153.167 277,150.5C 277.383,151.056 277.883,151.389 278.5,151.5 Z"/></g>
<g><path style="opacity:1" fill="#36143d" d="M 278.5,151.5 C 279.884,150.199 281.384,150.199 283,151.5C 283.667,153.833 283.667,156.167 283,158.5C 282.667,156.5 282.333,154.5 282,152.5C 280.989,151.663 279.822,151.33 278.5,151.5 Z"/></g>
<g><path style="opacity:1" fill="#4f1313" d="M 679.5,151.5 C 680.542,150.209 681.708,150.209 683,151.5C 683.667,153.833 683.667,156.167 683,158.5C 682.667,156.5 682.333,154.5 682,152.5C 681.329,151.748 680.496,151.414 679.5,151.5 Z"/></g>
<g><path style="opacity:1" fill="#2c2c58" d="M 691.5,151.5 C 688.812,152.024 687.312,153.691 687,156.5C 686.158,152.181 687.658,150.514 691.5,151.5 Z"/></g>
<g><path style="opacity:1" fill="#2c2c58" d="M 749.5,151.5 C 746.812,152.024 745.312,153.691 745,156.5C 744.158,152.181 745.658,150.514 749.5,151.5 Z"/></g>
<g><path style="opacity:1" fill="#090136" d="M 756.5,151.5 C 755.79,153.746 755.29,156.08 755,158.5C 754.333,155.833 754.333,153.167 755,150.5C 755.383,151.056 755.883,151.389 756.5,151.5 Z"/></g>
<g><path style="opacity:1" fill="#36143d" d="M 756.5,151.5 C 757.884,150.199 759.384,150.199 761,151.5C 761.667,153.833 761.667,156.167 761,158.5C 760.667,156.5 760.333,154.5 760,152.5C 758.989,151.663 757.822,151.33 756.5,151.5 Z"/></g>
<g><path style="opacity:1" fill="#4e4046" d="M 775.5,149.5 C 776.764,151.772 776.598,154.105 775,156.5C 773.301,155.594 771.467,155.261 769.5,155.5C 768.22,155.637 767.887,153.303 768.5,148.5C 771.059,148.198 773.393,148.532 775.5,149.5 Z"/></g>
<g><path style="opacity:1" fill="#b2e5b7" d="M 775.5,149.5 C 776.167,153.5 774.5,155.167 770.5,154.5C 770.5,152.833 770.5,151.167 770.5,149.5C 772.167,149.5 773.833,149.5 775.5,149.5 Z"/></g>
<g><path style="opacity:1" fill="#637569" d="M 780.5,150.5 C 784.349,150.019 786.349,151.686 786.5,155.5C 784.473,155.338 782.473,155.505 780.5,156C 782.193,157.347 783.86,157.847 785.5,157.5C 778.789,158.788 777.123,156.455 780.5,150.5 Z"/></g>
<g><path style="opacity:1" fill="#140e38" d="M 791.5,151.5 C 793.089,150.379 794.756,150.546 796.5,152C 795.736,154.069 795.236,156.236 795,158.5C 794.667,156.5 794.333,154.5 794,152.5C 793.329,151.748 792.496,151.414 791.5,151.5 Z"/></g>
<g><path style="opacity:1" fill="#525c5d" d="M 820.5,156.5 C 819.402,155.399 819.235,154.066 820,152.5C 821.726,153.576 823.559,153.743 825.5,153C 824.304,152.346 824.304,151.846 825.5,151.5C 826.429,152.689 826.762,154.022 826.5,155.5C 824.265,155.205 822.265,155.539 820.5,156.5 Z"/></g>
<g><path style="opacity:1" fill="#2d2a5f" d="M 854.5,157.5 C 855.148,155.914 855.648,154.247 856,152.5C 856.167,153.333 856.333,154.167 856.5,155C 856.316,156.376 855.649,157.209 854.5,157.5 Z"/></g>
<g><path style="opacity:1" fill="#838293" d="M 1175.5,157.5 C 1176.83,155.5 1176.83,153.5 1175.5,151.5C 1176.29,150.391 1176.79,149.058 1177,147.5C 1177.67,151.167 1177.67,154.833 1177,158.5C 1176.62,157.944 1176.12,157.611 1175.5,157.5 Z"/></g>
<g><path style="opacity:1" fill="#0b6685" d="M 151.5,150.5 C 152.289,150.783 152.956,151.283 153.5,152C 152.736,154.069 152.236,156.236 152,158.5C 151.503,155.854 151.336,153.187 151.5,150.5 Z"/></g>
<g><path style="opacity:1" fill="#2d485f" d="M 291.5,151.5 C 288.09,151.384 286.756,153.05 287.5,156.5C 286.387,155.054 286.22,153.387 287,151.5C 288.616,150.199 290.116,150.199 291.5,151.5 Z"/></g>
<g><path style="opacity:1" fill="#7c959c" d="M 597.5,151.5 C 598.774,152.189 598.774,153.023 597.5,154C 599.135,154.54 600.468,154.04 601.5,152.5C 603.767,154.335 603.767,156.335 601.5,158.5C 600.614,157.675 600.281,156.675 600.5,155.5C 595.831,156.01 594.831,154.677 597.5,151.5 Z"/></g>
<g><path style="opacity:1" fill="#433f3c" d="M 733.5,150.5 C 735.288,150.215 736.955,150.548 738.5,151.5C 737.313,151.554 735.98,151.887 734.5,152.5C 735.32,154.111 736.654,154.778 738.5,154.5C 738.649,155.552 738.483,156.552 738,157.5C 736.934,155.901 735.434,154.901 733.5,154.5C 732.374,153.192 732.374,151.858 733.5,150.5 Z"/></g>
<g><path style="opacity:1" fill="#0b6685" d="M 859.5,150.5 C 860.289,150.783 860.956,151.283 861.5,152C 860.736,154.069 860.236,156.236 860,158.5C 859.503,155.854 859.336,153.187 859.5,150.5 Z"/></g>
<g><path style="opacity:1" fill="#4b5052" d="M 869.5,155.5 C 868.883,155.389 868.383,155.056 868,154.5C 867.077,155.759 866.243,157.092 865.5,158.5C 864.167,154.833 864.167,151.167 865.5,147.5C 866.207,151.317 867.541,153.983 869.5,155.5 Z"/></g>
<g><path style="opacity:1" fill="#727b90" d="M 1247.5,152.5 C 1248.31,153.469 1249.31,154.302 1250.5,155C 1249.15,155.772 1248.32,156.939 1248,158.5C 1247.52,157.552 1247.35,156.552 1247.5,155.5C 1245.47,155.662 1243.47,155.495 1241.5,155C 1242.55,153.461 1243.88,153.295 1245.5,154.5C 1246.71,154.253 1247.38,153.586 1247.5,152.5 Z"/></g>
<g><path style="opacity:1" fill="#75907f" d="M 256.5,152.5 C 256.5,153.833 256.5,155.167 256.5,156.5C 255.107,157.26 253.607,157.926 252,158.5C 248.261,158.095 246.927,156.095 248,152.5C 251.391,152.615 254.224,152.615 256.5,152.5 Z"/></g>
<g><path style="opacity:1" fill="#7d99a2" d="M 1216.5,147.5 C 1222.78,149.565 1223.11,152.731 1217.5,157C 1219.17,157.333 1220.83,157.667 1222.5,158C 1219.83,158.667 1217.17,158.667 1214.5,158C 1217.56,155.793 1219.56,152.959 1220.5,149.5C 1218.8,149.66 1217.13,149.494 1215.5,149C 1216.06,148.617 1216.39,148.117 1216.5,147.5 Z"/></g>
<g><path style="opacity:1" fill="#45423e" d="M 62.5,151.5 C 61.448,151.351 60.448,151.517 59.5,152C 57.65,155.466 58.65,157.299 62.5,157.5C 59.361,159.194 57.361,158.194 56.5,154.5C 57.361,150.806 59.361,149.806 62.5,151.5 Z"/></g>
<g><path style="opacity:1" fill="#4f330a" d="M 72.5,157.5 C 73.2096,155.254 73.7096,152.92 74,150.5C 74.6667,153.167 74.6667,155.833 74,158.5C 73.6174,157.944 73.1174,157.611 72.5,157.5 Z"/></g>
<g><path style="opacity:1" fill="#81a0a5" d="M 551.5,150.5 C 556.539,150.451 556.705,151.118 552,152.5C 551.333,153.833 551.333,155.167 552,156.5C 553.652,157.217 555.152,157.55 556.5,157.5C 549.789,158.788 548.123,156.455 551.5,150.5 Z"/></g>
<g><path style="opacity:1" fill="#87a1a3" d="M 577.5,149.5 C 578.314,151.631 578.814,153.964 579,156.5C 580.333,157.833 581.667,157.833 583,156.5C 583.333,154.167 583.667,151.833 584,149.5C 585.964,152.388 585.797,155.221 583.5,158C 577.285,158.444 575.285,155.611 577.5,149.5 Z"/></g>
<g><path style="opacity:1" fill="#47413f" d="M 805.5,150.5 C 810.539,150.451 810.705,151.118 806,152.5C 804.746,156.111 805.912,157.611 809.5,157C 810.227,155.601 810.727,154.101 811,152.5C 812.5,157.667 810.667,159.5 805.5,158C 802.914,155.506 802.914,153.006 805.5,150.5 Z"/></g>
<g><path style="opacity:1" fill="#48393b" d="M 841.5,151.5 C 842.481,153.396 843.481,155.396 844.5,157.5C 844.167,157.833 843.833,158.167 843.5,158.5C 841.829,156.49 841.162,154.157 841.5,151.5 Z"/></g>
<g><path style="opacity:1" fill="#464241" d="M 854.5,157.5 C 850.15,158.994 848.317,157.328 849,152.5C 850.466,150.675 852.299,150.175 854.5,151C 850.682,151.613 849.682,153.613 851.5,157C 852.448,157.483 853.448,157.649 854.5,157.5 Z"/></g>
<g><path style="opacity:1" fill="#4f4043" d="M 869.5,155.5 C 870.627,156.122 871.627,156.955 872.5,158C 870.511,158.519 869.511,157.686 869.5,155.5 Z"/></g>
<g><path style="opacity:1" fill="#7fa0a6" d="M 1175.5,151.5 C 1174.45,151.351 1173.45,151.517 1172.5,152C 1170.65,155.466 1171.65,157.299 1175.5,157.5C 1172.36,159.194 1170.36,158.194 1169.5,154.5C 1170.36,150.806 1172.36,149.806 1175.5,151.5 Z"/></g>
<g><path style="opacity:1" fill="#3e4043" d="M 48.5,156.5 C 47.0057,152.15 48.6724,150.317 53.5,151C 56.8333,156 55.5,158.333 49.5,158C 48.944,157.617 48.6107,157.117 48.5,156.5 Z"/></g>
<g><path style="opacity:1" fill="#b0eec7" d="M 48.5,156.5 C 48.3642,153.476 49.6975,151.976 52.5,152C 54.4183,156.579 53.085,158.079 48.5,156.5 Z"/></g>
<g><path style="opacity:1" fill="#293339" d="M 78.5,156.5 C 80.4995,157.626 82.4995,157.793 84.5,157C 82.2276,159.09 80.2276,158.924 78.5,156.5 Z"/></g>
<g><path style="opacity:1" fill="#3e4043" d="M 97.5,156.5 C 96.0057,152.15 97.6724,150.317 102.5,151C 105.833,156 104.5,158.333 98.5,158C 97.944,157.617 97.6107,157.117 97.5,156.5 Z"/></g>
<g><path style="opacity:1" fill="#b0eec7" d="M 97.5,156.5 C 97.3642,153.476 98.6975,151.976 101.5,152C 103.418,156.579 102.085,158.079 97.5,156.5 Z"/></g>
<g><path style="opacity:1" fill="#4b5050" d="M 131.5,151.5 C 135.068,152.969 135.402,155.136 132.5,158C 127.501,158.552 127.334,158.052 132,156.5C 132.64,154.735 132.473,153.068 131.5,151.5 Z"/></g>
<g><path style="opacity:1" fill="#4b5050" d="M 161.5,151.5 C 165.068,152.969 165.402,155.136 162.5,158C 157.501,158.552 157.334,158.052 162,156.5C 162.64,154.735 162.473,153.068 161.5,151.5 Z"/></g>
<g><path style="opacity:1" fill="#534f52" d="M 227.5,151.5 C 228.496,151.586 229.329,151.252 230,150.5C 230.824,153.882 230.657,157.216 229.5,160.5C 227.902,161.485 226.235,161.651 224.5,161C 226.286,160.804 227.619,159.971 228.5,158.5C 226.86,158.847 225.193,158.347 223.5,157C 225.134,156.506 226.801,156.34 228.5,156.5C 228.634,154.708 228.301,153.042 227.5,151.5 Z"/></g>
<g><path style="opacity:1" fill="#263135" d="M 257.5,156.5 C 263.081,157.686 263.414,158.186 258.5,158C 257.944,157.617 257.611,157.117 257.5,156.5 Z"/></g>
<g><path style="opacity:1" fill="#728194" d="M 514.5,153.5 C 516.163,158 514.497,159.5 509.5,158C 512.901,158.266 514.567,156.766 514.5,153.5 Z"/></g>
<g><path style="opacity:1" fill="#66758c" d="M 569.5,156.5 C 571.414,157.185 573.414,157.685 575.5,158C 573.167,158.667 570.833,158.667 568.5,158C 569.056,157.617 569.389,157.117 569.5,156.5 Z"/></g>
<g><path style="opacity:1" fill="#6a7b91" d="M 587.5,156.5 C 589.746,157.21 592.08,157.71 594.5,158C 591.833,158.667 589.167,158.667 586.5,158C 587.056,157.617 587.389,157.117 587.5,156.5 Z"/></g>
<g><path style="opacity:1" fill="#4b5050" d="M 691.5,151.5 C 695.068,152.969 695.402,155.136 692.5,158C 687.501,158.552 687.334,158.052 692,156.5C 692.64,154.735 692.473,153.068 691.5,151.5 Z"/></g>
<g><path style="opacity:1" fill="#241c3c" d="M 701.5,157.5 C 700.116,158.801 698.616,158.801 697,157.5C 696.333,155.167 696.333,152.833 697,150.5C 697.333,152.5 697.667,154.5 698,156.5C 699.011,157.337 700.178,157.67 701.5,157.5 Z"/></g>
<g><path style="opacity:1" fill="#4b5050" d="M 749.5,151.5 C 753.068,152.969 753.402,155.136 750.5,158C 745.501,158.552 745.334,158.052 750,156.5C 750.64,154.735 750.473,153.068 749.5,151.5 Z"/></g>
<g><path style="opacity:1" fill="#263135" d="M 820.5,156.5 C 826.081,157.686 826.414,158.186 821.5,158C 820.944,157.617 820.611,157.117 820.5,156.5 Z"/></g>
<g><path style="opacity:1" fill="#66758c" d="M 1234.5,156.5 C 1236.41,157.185 1238.41,157.685 1240.5,158C 1238.17,158.667 1235.83,158.667 1233.5,158C 1234.06,157.617 1234.39,157.117 1234.5,156.5 Z"/></g>
<g><path style="opacity:1" fill="#3b3a36" d="M 287.5,156.5 C 289.167,156.5 290.833,156.5 292.5,156.5C 292.634,154.708 292.301,153.042 291.5,151.5C 292.117,151.389 292.617,151.056 293,150.5C 293.667,153.833 293.667,157.167 293,160.5C 290.708,161.908 288.541,161.741 286.5,160C 287.672,159.647 288.838,159.813 290,160.5C 291.28,160.387 292.113,159.72 292.5,158.5C 291.418,158.251 290.085,158.085 288.5,158C 287.944,157.617 287.611,157.117 287.5,156.5 Z"/></g>
<g><path style="opacity:1" fill="#3a3b3e" d="M 711.5,151.5 C 712.117,151.389 712.617,151.056 713,150.5C 713.667,153.833 713.667,157.167 713,160.5C 710.708,161.908 708.541,161.741 706.5,160C 707.672,159.647 708.838,159.813 710,160.5C 711.28,160.387 712.113,159.72 712.5,158.5C 711.091,158.346 709.424,158.179 707.5,158C 704.498,154.507 705.165,152.007 709.5,150.5C 710.416,150.543 711.083,150.876 711.5,151.5 Z"/></g>
<g><path style="opacity:1" fill="#b4e6b8" d="M 711.5,151.5 C 712.301,153.042 712.634,154.708 712.5,156.5C 710.833,156.5 709.167,156.5 707.5,156.5C 706.756,153.05 708.09,151.384 711.5,151.5 Z"/></g>
<g><path style="opacity:1" fill="#4794f8" d="M 25.5,165.5 C 29.8839,165.174 34.2172,165.508 38.5,166.5C 36.5714,169.225 36.0714,172.225 37,175.5C 37.7504,176.126 38.5838,176.626 39.5,177C 37.5273,177.495 35.5273,177.662 33.5,177.5C 32.5,189.5 31.5,189.5 30.5,177.5C 28.396,177.799 26.396,177.466 24.5,176.5C 25.325,175.614 26.325,175.281 27.5,175.5C 27.7681,171.917 27.1014,168.584 25.5,165.5 Z"/></g>
<g><path style="opacity:1" fill="#84cae2" d="M 34.5,174.5 C 33.5386,172.735 33.2053,170.735 33.5,168.5C 32.5,168.5 31.5,168.5 30.5,168.5C 30.7947,170.735 30.4614,172.735 29.5,174.5C 29.5,172.167 29.5,169.833 29.5,167.5C 31.1667,167.5 32.8333,167.5 34.5,167.5C 34.5,169.833 34.5,172.167 34.5,174.5 Z"/></g>
<g><path style="opacity:1" fill="#baf6d0" d="M 34.5,174.5 C 32.8333,175.833 31.1667,175.833 29.5,174.5C 30.4614,172.735 30.7947,170.735 30.5,168.5C 31.5,168.5 32.5,168.5 33.5,168.5C 33.2053,170.735 33.5386,172.735 34.5,174.5 Z"/></g>
<g><path style="opacity:1" fill="#c7dbdd" d="M 672.5,165.5 C 676.884,165.174 681.217,165.508 685.5,166.5C 683.74,169.212 683.073,172.212 683.5,175.5C 684.5,175.5 685.5,175.5 686.5,175.5C 686.5,176.5 686.5,177.5 686.5,178.5C 684.5,178.5 682.5,178.5 680.5,178.5C 679.5,189.167 678.5,189.167 677.5,178.5C 675.5,178.5 673.5,178.5 671.5,178.5C 671.5,177.5 671.5,176.5 671.5,175.5C 672.5,175.5 673.5,175.5 674.5,175.5C 674.768,171.917 674.101,168.584 672.5,165.5 Z"/></g>
<g><path style="opacity:1" fill="#bcf2d2" d="M 676.5,167.5 C 678.167,167.5 679.833,167.5 681.5,167.5C 681.5,170.167 681.5,172.833 681.5,175.5C 679.833,175.5 678.167,175.5 676.5,175.5C 676.5,172.833 676.5,170.167 676.5,167.5 Z"/></g>
<g><path style="opacity:1" fill="#93c1b1" d="M 21.5,202.5 C 23.5273,202.338 25.5273,202.505 27.5,203C 30.6707,208.362 29.004,210.862 22.5,210.5C 21.2759,210.121 20.9426,207.454 21.5,202.5 Z"/></g>
<g><path style="opacity:1" fill="#597e8b" d="M 294.5,202.5 C 299.041,202.331 299.374,202.998 295.5,204.5C 296.025,205.192 296.692,205.692 297.5,206C 295.862,208.133 295.029,210.633 295,213.5C 294.971,210.633 294.138,208.133 292.5,206C 293.973,205.29 294.64,204.124 294.5,202.5 Z"/></g>
<g><path style="opacity:1" fill="#7a9c99" d="M 984.5,206.5 C 985.919,205.549 987.585,205.216 989.5,205.5C 991.879,210.933 990.213,213.433 984.5,213C 988.04,212.671 989.206,210.838 988,207.5C 986.989,206.663 985.822,206.33 984.5,206.5 Z"/></g>
<g><path style="opacity:1" fill="#91b8ac" d="M 223.5,205.5 C 225.314,205.772 227.314,205.939 229.5,206C 231.673,207.865 232.007,210.031 230.5,212.5C 228.647,213.76 226.814,213.76 225,212.5C 224.667,213.833 224.333,215.167 224,216.5C 223.501,212.848 223.335,209.182 223.5,205.5 Z"/></g>
<g><path style="opacity:1" fill="#93bcaa" d="M 266.5,205.5 C 268.492,205.328 270.158,205.995 271.5,207.5C 273.191,205.744 275.191,205.244 277.5,206C 273.637,207.814 273.97,208.98 278.5,209.5C 278.67,210.822 278.337,211.989 277.5,213C 275.5,213.667 273.5,213.667 271.5,213C 270.331,211.164 268.664,209.998 266.5,209.5C 265.374,208.192 265.374,206.858 266.5,205.5 Z"/></g>
<g><path style="opacity:1" fill="#96c2ae" d="M 335.5,205.5 C 337.46,206.138 339.293,206.138 341,205.5C 341.903,209.033 341.57,212.367 340,215.5C 339.957,212.783 338.957,212.116 337,213.5C 333.005,211.518 332.505,208.851 335.5,205.5 Z"/></g>
<g><path style="opacity:1" fill="#7d7477" d="M 430.5,203.5 C 431.534,204.687 432.867,205.52 434.5,206C 433.552,206.483 432.552,206.649 431.5,206.5C 431.663,208.857 431.497,211.19 431,213.5C 430.774,210.905 430.274,208.405 429.5,206C 430.252,205.329 430.586,204.496 430.5,203.5 Z"/></g>
<g><path style="opacity:1" fill="#94c3b1" d="M 713.5,203.5 C 715.39,205.042 717.39,206.542 719.5,208C 721.441,208.743 723.274,208.576 725,207.5C 725.483,208.448 725.649,209.448 725.5,210.5C 721.414,210.282 717.747,211.115 714.5,213C 714.072,210.371 713.072,208.038 711.5,206C 712.756,205.583 713.423,204.75 713.5,203.5 Z"/></g>
<g><path style="opacity:1" fill="#6a939f" d="M 106.5,212.5 C 102.658,213.486 101.158,211.819 102,207.5C 102.5,207 103,206.5 103.5,206C 105.521,205.86 107.355,205.693 109,205.5C 109.667,208.5 109.667,211.5 109,214.5C 108.583,213.244 107.75,212.577 106.5,212.5 Z"/></g>
<g><path style="opacity:1" fill="#b8ebc1" d="M 106.5,212.5 C 104.516,212.516 103.516,211.516 103.5,209.5C 104.917,205.673 106.584,205.673 108.5,209.5C 108.058,210.739 107.391,211.739 106.5,212.5 Z"/></g>
<g><path style="opacity:1" fill="#baf3c8" d="M 406.5,206.5 C 407.833,208.5 407.833,210.5 406.5,212.5C 402.65,212.299 401.65,210.466 403.5,207C 404.448,206.517 405.448,206.351 406.5,206.5 Z"/></g>
<g><path style="opacity:1" fill="#6a939f" d="M 468.5,212.5 C 464.658,213.486 463.158,211.819 464,207.5C 464.5,207 465,206.5 465.5,206C 467.521,205.86 469.355,205.693 471,205.5C 471.667,208.5 471.667,211.5 471,214.5C 470.583,213.244 469.75,212.577 468.5,212.5 Z"/></g>
<g><path style="opacity:1" fill="#b8ebc1" d="M 468.5,212.5 C 466.516,212.516 465.516,211.516 465.5,209.5C 466.917,205.673 468.584,205.673 470.5,209.5C 470.058,210.739 469.391,211.739 468.5,212.5 Z"/></g>
<g><path style="opacity:1" fill="#8eb4a4" d="M 127.5,205.5 C 131.349,205.019 133.349,206.686 133.5,210.5C 131.473,210.338 129.473,210.505 127.5,211C 129.193,212.347 130.86,212.847 132.5,212.5C 125.789,213.788 124.123,211.455 127.5,205.5 Z"/></g>
<g><path style="opacity:1" fill="#8eb4a4" d="M 136.5,205.5 C 140.349,205.019 142.349,206.686 142.5,210.5C 140.473,210.338 138.473,210.505 136.5,211C 138.193,212.347 139.86,212.847 141.5,212.5C 134.789,213.788 133.123,211.455 136.5,205.5 Z"/></g>
<g><path style="opacity:1" fill="#755885" d="M 156.5,206.5 C 155.79,208.746 155.29,211.08 155,213.5C 154.333,210.833 154.333,208.167 155,205.5C 155.383,206.056 155.883,206.389 156.5,206.5 Z"/></g>
<g><path style="opacity:1" fill="#5e6288" d="M 383.5,206.5 C 384.884,205.199 386.384,205.199 388,206.5C 388.667,208.833 388.667,211.167 388,213.5C 387.667,211.5 387.333,209.5 387,207.5C 385.989,206.663 384.822,206.33 383.5,206.5 Z"/></g>
<g><path style="opacity:1" fill="#776c79" d="M 406.5,212.5 C 407.833,210.5 407.833,208.5 406.5,206.5C 407.29,205.391 407.79,204.058 408,202.5C 408.667,206.167 408.667,209.833 408,213.5C 407.617,212.944 407.117,212.611 406.5,212.5 Z"/></g>
<g><path style="opacity:1" fill="#755885" d="M 441.5,206.5 C 440.79,208.746 440.29,211.08 440,213.5C 439.333,210.833 439.333,208.167 440,205.5C 440.383,206.056 440.883,206.389 441.5,206.5 Z"/></g>
<g><path style="opacity:1" fill="#8eb4a4" d="M 679.5,205.5 C 683.349,205.019 685.349,206.686 685.5,210.5C 683.473,210.338 681.473,210.505 679.5,211C 681.193,212.347 682.86,212.847 684.5,212.5C 677.789,213.788 676.123,211.455 679.5,205.5 Z"/></g>
<g><path style="opacity:1" fill="#755885" d="M 689.5,206.5 C 688.79,208.746 688.29,211.08 688,213.5C 687.333,210.833 687.333,208.167 688,205.5C 688.383,206.056 688.883,206.389 689.5,206.5 Z"/></g>
<g><path style="opacity:1" fill="#6f6082" d="M 689.5,206.5 C 691.347,205.427 693.347,205.427 695.5,206.5C 694.79,208.746 694.29,211.08 694,213.5C 693.667,211.5 693.333,209.5 693,207.5C 691.989,206.663 690.822,206.33 689.5,206.5 Z"/></g>
<g><path style="opacity:1" fill="#6e6287" d="M 695.5,206.5 C 696.884,205.199 698.384,205.199 700,206.5C 700.667,208.833 700.667,211.167 700,213.5C 699.667,211.5 699.333,209.5 699,207.5C 697.989,206.663 696.822,206.33 695.5,206.5 Z"/></g>
<g><path style="opacity:1" fill="#8aaea1" d="M 787.5,206.5 C 788.117,206.611 788.617,206.944 789,207.5C 789.495,209.473 789.662,211.473 789.5,213.5C 787.473,213.662 785.473,213.495 783.5,213C 782.978,212.439 782.645,211.772 782.5,211C 784.09,209.368 785.756,207.868 787.5,206.5 Z"/></g>
<g><path style="opacity:1" fill="#765687" d="M 813.5,206.5 C 812.79,208.746 812.29,211.08 812,213.5C 811.333,209.833 811.333,206.167 812,202.5C 812.21,204.058 812.71,205.391 813.5,206.5 Z"/></g>
<g><path style="opacity:1" fill="#5e6288" d="M 822.5,206.5 C 823.884,205.199 825.384,205.199 827,206.5C 827.667,208.833 827.667,211.167 827,213.5C 826.667,211.5 826.333,209.5 826,207.5C 824.989,206.663 823.822,206.33 822.5,206.5 Z"/></g>
<g><path style="opacity:1" fill="#755885" d="M 832.5,206.5 C 831.79,208.746 831.29,211.08 831,213.5C 830.333,210.833 830.333,208.167 831,205.5C 831.383,206.056 831.883,206.389 832.5,206.5 Z"/></g>
<g><path style="opacity:1" fill="#8aaea1" d="M 967.5,206.5 C 968.117,206.611 968.617,206.944 969,207.5C 969.495,209.473 969.662,211.473 969.5,213.5C 967.473,213.662 965.473,213.495 963.5,213C 962.978,212.439 962.645,211.772 962.5,211C 964.09,209.368 965.756,207.868 967.5,206.5 Z"/></g>
<g><path style="opacity:1" fill="#8ba799" d="M 1007.5,205.5 C 1013.2,205.146 1015.04,207.813 1013,213.5C 1011.09,213.579 1009.09,213.246 1007,212.5C 1007.14,209.851 1008.64,208.185 1011.5,207.5C 1010.35,206.269 1009.18,206.269 1008,207.5C 1007.54,206.906 1007.37,206.239 1007.5,205.5 Z"/></g>
<g><path style="opacity:1" fill="#779f9f" d="M 1017.5,205.5 C 1022.54,205.451 1022.71,206.118 1018,207.5C 1017.51,209.134 1017.34,210.801 1017.5,212.5C 1018.87,212.343 1020.21,212.51 1021.5,213C 1015.41,213.205 1014.08,210.705 1017.5,205.5 Z"/></g>
<g><path style="opacity:1" fill="#765687" d="M 1026.5,206.5 C 1025.79,208.746 1025.29,211.08 1025,213.5C 1024.33,209.833 1024.33,206.167 1025,202.5C 1025.21,204.058 1025.71,205.391 1026.5,206.5 Z"/></g>
<g><path style="opacity:1" fill="#8aaea1" d="M 1137.5,206.5 C 1138.12,206.611 1138.62,206.944 1139,207.5C 1139.5,209.473 1139.66,211.473 1139.5,213.5C 1137.47,213.662 1135.47,213.495 1133.5,213C 1132.98,212.439 1132.64,211.772 1132.5,211C 1134.09,209.368 1135.76,207.868 1137.5,206.5 Z"/></g>
<g><path style="opacity:1" fill="#765882" d="M 62.5,205.5 C 64.2177,209.122 64.3844,212.789 63,216.5C 62.5014,212.848 62.3347,209.182 62.5,205.5 Z"/></g>
<g><path style="opacity:1" fill="#617397" d="M 118.5,206.5 C 117.79,208.746 117.29,211.08 117,213.5C 116.333,210.833 116.333,208.167 117,205.5C 117.383,206.056 117.883,206.389 118.5,206.5 Z"/></g>
<g><path style="opacity:1" fill="#71617d" d="M 118.5,206.5 C 119.884,205.199 121.384,205.199 123,206.5C 123.667,208.833 123.667,211.167 123,213.5C 122.667,211.5 122.333,209.5 122,207.5C 120.989,206.663 119.822,206.33 118.5,206.5 Z"/></g>
<g><path style="opacity:1" fill="#7f7671" d="M 156.5,206.5 C 157.884,205.199 159.384,205.199 161,206.5C 161.667,208.833 161.667,211.167 161,213.5C 160.667,211.5 160.333,209.5 160,207.5C 158.989,206.663 157.822,206.33 156.5,206.5 Z"/></g>
<g><path style="opacity:1" fill="#60749a" d="M 202.5,206.5 C 201.79,208.746 201.29,211.08 201,213.5C 200.333,209.833 200.333,206.167 201,202.5C 201.21,204.058 201.71,205.391 202.5,206.5 Z"/></g>
<g><path style="opacity:1" fill="#71617d" d="M 202.5,206.5 C 203.884,205.199 205.384,205.199 207,206.5C 207.667,208.833 207.667,211.167 207,213.5C 206.667,211.5 206.333,209.5 206,207.5C 204.989,206.663 203.822,206.33 202.5,206.5 Z"/></g>
<g><path style="opacity:1" fill="#94baa4" d="M 308.5,202.5 C 309.787,203.871 310.453,205.705 310.5,208C 310.333,209.833 310.167,211.667 310,213.5C 308.87,212.886 307.537,212.886 306,213.5C 302.101,211.733 301.601,209.233 304.5,206C 305.784,205.316 306.951,205.483 308,206.5C 308.49,205.207 308.657,203.873 308.5,202.5 Z"/></g>
<g><path style="opacity:1" fill="#93bdaa" d="M 314.5,205.5 C 317.808,204.974 319.974,206.307 321,209.5C 321.329,205.96 323.162,204.794 326.5,206C 321.306,207.344 321.306,208.511 326.5,209.5C 327.998,212.133 327.165,213.466 324,213.5C 322.674,213.245 321.674,212.578 321,211.5C 316.946,214.691 314.113,213.858 312.5,209C 312.978,207.697 313.645,206.531 314.5,205.5 Z"/></g>
<g><path style="opacity:1" fill="#4d81a2" d="M 349.5,207.5 C 349.56,206.957 349.893,206.624 350.5,206.5C 351.647,208.765 351.814,211.098 351,213.5C 350.809,211.292 350.309,209.292 349.5,207.5 Z"/></g>
<g><path style="opacity:1" fill="#4d81a2" d="M 363.5,207.5 C 363.56,206.957 363.893,206.624 364.5,206.5C 365.647,208.765 365.814,211.098 365,213.5C 364.809,211.292 364.309,209.292 363.5,207.5 Z"/></g>
<g><path style="opacity:1" fill="#617397" d="M 393.5,206.5 C 392.79,208.746 392.29,211.08 392,213.5C 391.333,210.833 391.333,208.167 392,205.5C 392.383,206.056 392.883,206.389 393.5,206.5 Z"/></g>
<g><path style="opacity:1" fill="#71617d" d="M 393.5,206.5 C 394.884,205.199 396.384,205.199 398,206.5C 398.667,208.833 398.667,211.167 398,213.5C 397.667,211.5 397.333,209.5 397,207.5C 395.989,206.663 394.822,206.33 393.5,206.5 Z"/></g>
<g><path style="opacity:1" fill="#7f7671" d="M 441.5,206.5 C 442.884,205.199 444.384,205.199 446,206.5C 446.667,208.833 446.667,211.167 446,213.5C 445.667,211.5 445.333,209.5 445,207.5C 443.989,206.663 442.822,206.33 441.5,206.5 Z"/></g>
<g><path style="opacity:1" fill="#87afa2" d="M 667.5,202.5 C 676.037,201.497 678.204,204.497 674,211.5C 672.644,210.62 671.144,210.286 669.5,210.5C 669.719,211.675 669.386,212.675 668.5,213.5C 667.511,209.893 667.177,206.226 667.5,202.5 Z"/></g>
<g><path style="opacity:1" fill="#4d81a2" d="M 778.5,207.5 C 778.56,206.957 778.893,206.624 779.5,206.5C 780.647,208.765 780.814,211.098 780,213.5C 779.809,211.292 779.309,209.292 778.5,207.5 Z"/></g>
<g><path style="opacity:1" fill="#7f7671" d="M 813.5,206.5 C 814.884,205.199 816.384,205.199 818,206.5C 818.667,208.833 818.667,211.167 818,213.5C 817.667,211.5 817.333,209.5 817,207.5C 815.989,206.663 814.822,206.33 813.5,206.5 Z"/></g>
<g><path style="opacity:1" fill="#7f7671" d="M 832.5,206.5 C 833.884,205.199 835.384,205.199 837,206.5C 837.667,208.833 837.667,211.167 837,213.5C 836.667,211.5 836.333,209.5 836,207.5C 834.989,206.663 833.822,206.33 832.5,206.5 Z"/></g>
<g><path style="opacity:1" fill="#94baa4" d="M 865.5,202.5 C 866.787,203.871 867.453,205.705 867.5,208C 867.333,209.833 867.167,211.667 867,213.5C 865.87,212.886 864.537,212.886 863,213.5C 859.101,211.733 858.601,209.233 861.5,206C 862.784,205.316 863.951,205.483 865,206.5C 865.49,205.207 865.657,203.873 865.5,202.5 Z"/></g>
<g><path style="opacity:1" fill="#4d81a2" d="M 885.5,207.5 C 885.56,206.957 885.893,206.624 886.5,206.5C 887.647,208.765 887.814,211.098 887,213.5C 886.809,211.292 886.309,209.292 885.5,207.5 Z"/></g>
<g><path style="opacity:1" fill="#7f7671" d="M 1026.5,206.5 C 1027.88,205.199 1029.38,205.199 1031,206.5C 1031.67,208.833 1031.67,211.167 1031,213.5C 1030.67,211.5 1030.33,209.5 1030,207.5C 1028.99,206.663 1027.82,206.33 1026.5,206.5 Z"/></g>
<g><path style="opacity:1" fill="#765882" d="M 1038.5,205.5 C 1040.22,209.122 1040.38,212.789 1039,216.5C 1038.5,212.848 1038.33,209.182 1038.5,205.5 Z"/></g>
<g><path style="opacity:1" fill="#94baa4" d="M 1069.5,202.5 C 1070.79,203.871 1071.45,205.705 1071.5,208C 1071.33,209.833 1071.17,211.667 1071,213.5C 1069.87,212.886 1068.54,212.886 1067,213.5C 1063.1,211.733 1062.6,209.233 1065.5,206C 1066.78,205.316 1067.95,205.483 1069,206.5C 1069.49,205.207 1069.66,203.873 1069.5,202.5 Z"/></g>
<g><path style="opacity:1" fill="#94baa4" d="M 1157.5,202.5 C 1158.79,203.871 1159.45,205.705 1159.5,208C 1159.33,209.833 1159.17,211.667 1159,213.5C 1157.87,212.886 1156.54,212.886 1155,213.5C 1151.1,211.733 1150.6,209.233 1153.5,206C 1154.78,205.316 1155.95,205.483 1157,206.5C 1157.49,205.207 1157.66,203.873 1157.5,202.5 Z"/></g>
<g><path style="opacity:1" fill="#6d7175" d="M 170.5,205.5 C 171.641,208.64 171.808,211.973 171,215.5C 169.274,216.576 167.441,216.743 165.5,216C 167.619,215.902 169.286,215.069 170.5,213.5C 170.486,210.805 170.486,208.138 170.5,205.5 Z"/></g>
<g><path style="opacity:1" fill="#64627e" d="M 374.5,205.5 C 375.641,208.64 375.808,211.973 375,215.5C 373.274,216.576 371.441,216.743 369.5,216C 371.101,215.727 372.601,215.227 374,214.5C 374.242,211.303 374.408,208.303 374.5,205.5 Z"/></g>
<g><path style="opacity:1" fill="#748f90" d="M 406.5,206.5 C 405.448,206.351 404.448,206.517 403.5,207C 401.65,210.466 402.65,212.299 406.5,212.5C 403.361,214.194 401.361,213.194 400.5,209.5C 401.361,205.806 403.361,204.806 406.5,206.5 Z"/></g>
<g><path style="opacity:1" fill="#799293" d="M 708.5,206.5 C 709.693,206.97 710.36,207.97 710.5,209.5C 710.202,213.226 708.202,214.393 704.5,213C 701.498,209.507 702.165,207.007 706.5,205.5C 707.416,205.543 708.083,205.876 708.5,206.5 Z"/></g>
<g><path style="opacity:1" fill="#baf4c8" d="M 708.5,206.5 C 710.463,210.284 709.463,212.118 705.5,212C 703.65,208.534 704.65,206.701 708.5,206.5 Z"/></g>
<g><path style="opacity:1" fill="#6d7175" d="M 846.5,205.5 C 847.641,208.64 847.808,211.973 847,215.5C 845.274,216.576 843.441,216.743 841.5,216C 843.619,215.902 845.286,215.069 846.5,213.5C 846.486,210.805 846.486,208.138 846.5,205.5 Z"/></g>
<g><path style="opacity:1" fill="#799293" d="M 1059.5,206.5 C 1060.69,206.97 1061.36,207.97 1061.5,209.5C 1061.2,213.226 1059.2,214.393 1055.5,213C 1052.5,209.507 1053.16,207.007 1057.5,205.5C 1058.42,205.543 1059.08,205.876 1059.5,206.5 Z"/></g>
<g><path style="opacity:1" fill="#baf4c8" d="M 1059.5,206.5 C 1061.46,210.284 1060.46,212.118 1056.5,212C 1054.65,208.534 1055.65,206.701 1059.5,206.5 Z"/></g>
<g><path style="opacity:1" fill="#8eaa99" d="M 916.5,205.5 C 919.372,205.804 922.039,205.971 924.5,206C 925.557,208.339 926.89,210.505 928.5,212.5C 927.988,215.532 926.322,216.699 923.5,216C 926.001,213.601 926.001,211.101 923.5,208.5C 922.702,210.078 922.202,211.744 922,213.5C 920.355,213.307 918.521,213.14 916.5,213C 915.549,212.282 915.383,211.449 916,210.5C 917.307,209.228 918.807,208.228 920.5,207.5C 919.349,206.269 918.183,206.269 917,207.5C 916.536,206.906 916.369,206.239 916.5,205.5 Z"/></g>
<g><path style="opacity:1" fill="#22a752" d="M 562.5,231.5 C 566.394,233.089 566.894,235.089 564,237.5C 562.647,236.315 561.48,234.981 560.5,233.5C 561.243,232.818 561.909,232.151 562.5,231.5 Z"/></g>
<g><path style="opacity:1" fill="#c9d8de" d="M 588.5,231.5 C 592.348,231.24 596.015,231.906 599.5,233.5C 594.5,234.833 589.5,234.833 584.5,233.5C 585.949,232.828 587.282,232.161 588.5,231.5 Z"/></g>
<g><path style="opacity:1" fill="#22a752" d="M 1208.5,231.5 C 1212.39,233.089 1212.89,235.089 1210,237.5C 1208.65,236.315 1207.48,234.981 1206.5,233.5C 1207.24,232.818 1207.91,232.151 1208.5,231.5 Z"/></g>
<g><path style="opacity:1" fill="#c9d8de" d="M 1234.5,231.5 C 1238.35,231.24 1242.01,231.906 1245.5,233.5C 1240.5,234.833 1235.5,234.833 1230.5,233.5C 1231.95,232.828 1233.28,232.161 1234.5,231.5 Z"/></g>
<g><path style="opacity:1" fill="#7f749a" d="M 257.5,235.5 C 258.21,237.893 258.877,240.393 259.5,243C 258.809,244.067 258.309,245.234 258,246.5C 257.501,242.848 257.335,239.182 257.5,235.5 Z"/></g>
<g><path style="opacity:1" fill="#1ca54d" d="M 558.5,235.5 C 561.001,235.826 562.168,237.159 562,239.5C 558.464,242.701 555.297,246.201 552.5,250C 550.866,250.494 549.199,250.66 547.5,250.5C 547.343,249.127 547.51,247.793 548,246.5C 551.704,242.964 555.204,239.298 558.5,235.5 Z"/></g>
<g><path style="opacity:1" fill="#7185a3" d="M 709.5,235.5 C 710.21,237.893 710.877,240.393 711.5,243C 710.809,244.067 710.309,245.234 710,246.5C 709.501,242.848 709.335,239.182 709.5,235.5 Z"/></g>
<g><path style="opacity:1" fill="#1ca54d" d="M 1204.5,235.5 C 1207,235.826 1208.17,237.159 1208,239.5C 1204.46,242.701 1201.3,246.201 1198.5,250C 1196.87,250.494 1195.2,250.66 1193.5,250.5C 1193.34,249.127 1193.51,247.793 1194,246.5C 1197.7,242.964 1201.2,239.298 1204.5,235.5 Z"/></g>
<g><path style="opacity:1" fill="#cad6e0" d="M 585.5,235.5 C 589.833,235.5 594.167,235.5 598.5,235.5C 598.666,240.179 598.499,244.845 598,249.5C 594,250.833 590,250.833 586,249.5C 585.501,244.845 585.334,240.179 585.5,235.5 Z"/></g>
<g><path style="opacity:1" fill="#cad6e0" d="M 1231.5,235.5 C 1235.83,235.5 1240.17,235.5 1244.5,235.5C 1244.67,240.179 1244.5,244.845 1244,249.5C 1240,250.833 1236,250.833 1232,249.5C 1231.5,244.845 1231.33,240.179 1231.5,235.5 Z"/></g>
<g><path style="opacity:1" fill="#779aa6" d="M 68.5,241.5 C 67.0101,243.28 65.0101,243.946 62.5,243.5C 61.2759,243.121 60.9426,240.454 61.5,235.5C 63.5273,235.338 65.5273,235.505 67.5,236C 69.5532,237.678 69.8866,239.511 68.5,241.5 Z"/></g>
<g><path style="opacity:1" fill="#b7f0c8" d="M 68.5,241.5 C 66.5648,242.15 64.5648,242.483 62.5,242.5C 62.5,240.833 62.5,239.167 62.5,237.5C 66.2407,236.599 68.2407,237.932 68.5,241.5 Z"/></g>
<g><path style="opacity:1" fill="#7f9faa" d="M 691.5,235.5 C 692.097,235.735 692.43,236.235 692.5,237C 691.646,240.405 690.312,243.571 688.5,246.5C 687.058,244.684 686.558,242.684 687,240.5C 687.419,241.672 688.085,242.672 689,243.5C 689.941,240.846 690.774,238.179 691.5,235.5 Z"/></g>
<g><path style="opacity:1" fill="#8ba9a7" d="M 56.5,235.5 C 57.1859,236.848 58.1859,238.015 59.5,239C 58.9414,241.626 57.7748,244.126 56,246.5C 55.5172,245.552 55.3505,244.552 55.5,243.5C 54.5,243.5 53.5,243.5 52.5,243.5C 52.6495,244.552 52.4828,245.552 52,246.5C 51.6905,245.234 51.1905,244.067 50.5,243C 53.1667,241.667 53.1667,240.333 50.5,239C 51.6667,238.5 52.5,237.667 53,236.5C 53.7096,237.973 54.8762,238.64 56.5,238.5C 56.5,237.5 56.5,236.5 56.5,235.5 Z"/></g>
<g><path style="opacity:1" fill="#809faa" d="M 232.5,236.5 C 233.376,236.369 234.043,236.702 234.5,237.5C 235.432,239.795 236.265,242.129 237,244.5C 238.197,241.911 239.197,239.244 240,236.5C 240.425,240.228 239.425,243.562 237,246.5C 235.742,244.236 234.575,241.902 233.5,239.5C 232.573,241.113 231.739,242.779 231,244.5C 230.955,241.78 231.455,239.114 232.5,236.5 Z"/></g>
<g><path style="opacity:1" fill="#8ba9a7" d="M 673.5,235.5 C 674.186,236.848 675.186,238.015 676.5,239C 675.941,241.626 674.775,244.126 673,246.5C 672.517,245.552 672.351,244.552 672.5,243.5C 671.5,243.5 670.5,243.5 669.5,243.5C 669.649,244.552 669.483,245.552 669,246.5C 668.691,245.234 668.191,244.067 667.5,243C 670.167,241.667 670.167,240.333 667.5,239C 668.667,238.5 669.5,237.667 670,236.5C 670.71,237.973 671.876,238.64 673.5,238.5C 673.5,237.5 673.5,236.5 673.5,235.5 Z"/></g>
<g><path style="opacity:1" fill="#729eac" d="M 113.5,236.5 C 114.309,237.469 115.309,238.302 116.5,239C 113.833,241.333 113.833,243.667 116.5,246C 115.552,246.483 114.552,246.649 113.5,246.5C 113.958,243.606 113.291,241.106 111.5,239C 112.756,238.583 113.423,237.75 113.5,236.5 Z"/></g>
<g><path style="opacity:1" fill="#99c9ba" d="M 203.5,238.5 C 205.541,238.854 207.374,238.854 209,238.5C 209.903,242.033 209.57,245.367 208,248.5C 207.957,245.783 206.957,245.116 205,246.5C 201.09,244.449 200.59,241.782 203.5,238.5 Z"/></g>
<g><path style="opacity:1" fill="#677f96" d="M 119.5,236.5 C 120.434,237.568 120.768,238.901 120.5,240.5C 127.167,240.833 127.167,241.167 120.5,241.5C 120.5,242.833 120.5,244.167 120.5,245.5C 122.527,245.338 124.527,245.505 126.5,246C 124.19,246.497 121.857,246.663 119.5,246.5C 119.5,243.167 119.5,239.833 119.5,236.5 Z"/></g>
<g><path style="opacity:1" fill="#7b9ea8" d="M 143.5,245.5 C 139.658,246.486 138.158,244.819 139,240.5C 139.5,240 140,239.5 140.5,239C 142.521,238.86 144.355,238.693 146,238.5C 146.667,241.833 146.667,245.167 146,248.5C 143.38,249.923 140.88,249.757 138.5,248C 140.443,248.305 142.443,248.305 144.5,248C 145.883,246.539 145.549,245.706 143.5,245.5 Z"/></g>
<g><path style="opacity:1" fill="#b9eec7" d="M 143.5,245.5 C 141.516,245.516 140.516,244.516 140.5,242.5C 141.639,238.706 143.305,238.54 145.5,242C 145.022,243.303 144.355,244.469 143.5,245.5 Z"/></g>
<g><path style="opacity:1" fill="#7f769a" d="M 153.5,238.5 C 154.289,238.783 154.956,239.283 155.5,240C 154.736,242.069 154.236,244.236 154,246.5C 153.503,243.854 153.336,241.187 153.5,238.5 Z"/></g>
<g><path style="opacity:1" fill="#7f769a" d="M 191.5,238.5 C 192.289,238.783 192.956,239.283 193.5,240C 192.736,242.069 192.236,244.236 192,246.5C 191.503,243.854 191.336,241.187 191.5,238.5 Z"/></g>
<g><path style="opacity:1" fill="#8eaba6" d="M 26.5,235.5 C 27.1859,236.848 28.1859,238.015 29.5,239C 28.9414,241.626 27.7748,244.126 26,246.5C 25.5172,245.552 25.3505,244.552 25.5,243.5C 24.5,243.5 23.5,243.5 22.5,243.5C 22.6495,244.552 22.4828,245.552 22,246.5C 21.6905,245.234 21.1905,244.067 20.5,243C 23.1667,241.667 23.1667,240.333 20.5,239C 21.6667,238.5 22.5,237.667 23,236.5C 23.7096,237.973 24.8762,238.64 26.5,238.5C 26.5,237.5 26.5,236.5 26.5,235.5 Z"/></g>
<g><path style="opacity:1" fill="#758899" d="M 32.5,240.5 C 34.3566,243.018 36.1899,243.018 38,240.5C 41.8503,246.846 41.0169,247.846 35.5,243.5C 31.6427,245.462 30.6427,244.462 32.5,240.5 Z"/></g>
<g><path style="opacity:1" fill="#7f769a" d="M 71.5,238.5 C 72.2891,238.783 72.9558,239.283 73.5,240C 72.7362,242.069 72.2362,244.236 72,246.5C 71.5026,243.854 71.3359,241.187 71.5,238.5 Z"/></g>
<g><path style="opacity:1" fill="#8eaba6" d="M 221.5,235.5 C 222.186,236.848 223.186,238.015 224.5,239C 223.941,241.626 222.775,244.126 221,246.5C 220.517,245.552 220.351,244.552 220.5,243.5C 219.5,243.5 218.5,243.5 217.5,243.5C 217.649,244.552 217.483,245.552 217,246.5C 216.691,245.234 216.191,244.067 215.5,243C 218.167,241.667 218.167,240.333 215.5,239C 216.667,238.5 217.5,237.667 218,236.5C 218.71,237.973 219.876,238.64 221.5,238.5C 221.5,237.5 221.5,236.5 221.5,235.5 Z"/></g>
<g><path style="opacity:1" fill="#7286a4" d="M 703.5,238.5 C 704.289,238.783 704.956,239.283 705.5,240C 704.736,242.069 704.236,244.236 704,246.5C 703.503,243.854 703.336,241.187 703.5,238.5 Z"/></g>
<g><path style="opacity:1" fill="#859fa2" d="M 108.5,239.5 C 109.693,239.97 110.36,240.97 110.5,242.5C 110.333,243.5 110.167,244.5 110,245.5C 108.301,246.406 106.467,246.739 104.5,246.5C 104.719,247.675 104.386,248.675 103.5,249.5C 102.511,245.893 102.177,242.226 102.5,238.5C 104.735,238.205 106.735,238.539 108.5,239.5 Z"/></g>
<g><path style="opacity:1" fill="#baf4cb" d="M 108.5,239.5 C 110.463,243.284 109.463,245.118 105.5,245C 103.65,241.534 104.65,239.701 108.5,239.5 Z"/></g>
<g><path style="opacity:1" fill="#2b85fe" d="M 1803.5,741.5 C 1819.84,741.333 1836.17,741.5 1852.5,742C 1860.56,743.732 1865.73,748.565 1868,756.5C 1868.67,772.833 1868.67,789.167 1868,805.5C 1866.17,814 1861,819.167 1852.5,821C 1836.17,821.667 1819.83,821.667 1803.5,821C 1795.56,818.732 1790.73,813.565 1789,805.5C 1788.33,789.167 1788.33,772.833 1789,756.5C 1791.35,748.984 1796.18,743.984 1803.5,741.5 Z"/></g>
<g><path style="opacity:1" fill="#e3eeff" d="M 1826.5,769.5 C 1827.83,769.5 1829.17,769.5 1830.5,769.5C 1830.5,772.833 1830.5,776.167 1830.5,779.5C 1833.83,779.5 1837.17,779.5 1840.5,779.5C 1840.5,780.833 1840.5,782.167 1840.5,783.5C 1837.17,783.5 1833.83,783.5 1830.5,783.5C 1830.5,786.833 1830.5,790.167 1830.5,793.5C 1829.17,793.5 1827.83,793.5 1826.5,793.5C 1826.5,790.167 1826.5,786.833 1826.5,783.5C 1823.17,783.5 1819.83,783.5 1816.5,783.5C 1816.5,782.167 1816.5,780.833 1816.5,779.5C 1819.83,779.5 1823.17,779.5 1826.5,779.5C 1826.5,776.167 1826.5,772.833 1826.5,769.5 Z"/></g>
</svg>
